<?xml version="1.0" encoding="utf-8" standalone="no"?>
<!DOCTYPE svg PUBLIC "-//W3C//DTD SVG 1.1//EN"
  "http://www.w3.org/Graphics/SVG/1.1/DTD/svg11.dtd">
<svg xmlns:xlink="http://www.w3.org/1999/xlink" width="963.347273pt" height="497.52pt" viewBox="0 0 963.347273 497.52" xmlns="http://www.w3.org/2000/svg" version="1.1">
 <metadata>
  <rdf:RDF xmlns:dc="http://purl.org/dc/elements/1.1/" xmlns:cc="http://creativecommons.org/ns#" xmlns:rdf="http://www.w3.org/1999/02/22-rdf-syntax-ns#">
   <cc:Work>
    <dc:type rdf:resource="http://purl.org/dc/dcmitype/StillImage"/>
    <dc:date>2026-03-05T10:04:18.850580</dc:date>
    <dc:format>image/svg+xml</dc:format>
    <dc:creator>
     <cc:Agent>
      <dc:title>Matplotlib v3.10.5, https://matplotlib.org/</dc:title>
     </cc:Agent>
    </dc:creator>
   </cc:Work>
  </rdf:RDF>
 </metadata>
 <defs>
  <style type="text/css">*{stroke-linejoin: round; stroke-linecap: butt}</style>
 </defs>
 <g id="figure_1">
  <g id="patch_1">
   <path d="M 0 497.52 
L 963.347273 497.52 
L 963.347273 0 
L 0 0 
z
" style="fill: #ffffff"/>
  </g>
  <g id="axes_1">
   <g id="patch_2">
    <path d="M 59.259273 477.153455 
L 444.380727 477.153455 
L 444.380727 59.115636 
L 59.259273 59.115636 
L 59.259273 477.153455 
z
" clip-path="url(#pd0684e59ac)" style="fill: none; stroke: #000000; stroke-width: 2.5; stroke-linejoin: miter"/>
   </g>
   <g id="LineCollection_1">
    <path d="M 126.737818 141.951723 
L 225.486909 210.417759 
" clip-path="url(#pd0684e59ac)" style="fill: none; stroke: #998ec3; stroke-width: 5.5"/>
    <path d="M 126.737818 141.951723 
L 123.446182 297.316959 
" clip-path="url(#pd0684e59ac)" style="fill: none; stroke: #998ec3; stroke-width: 5.5"/>
    <path d="M 126.737818 141.951723 
L 346.619127 402.649323 
" clip-path="url(#pd0684e59ac)" style="fill: none; stroke: #998ec3; stroke-width: 5.5"/>
    <path d="M 126.737818 141.951723 
L 128.054473 240.042486 
" clip-path="url(#pd0684e59ac)" style="fill: none; stroke: #f1a340; stroke-width: 5.5"/>
    <path d="M 236.678473 267.805382 
L 331.4776 220.950995 
" clip-path="url(#pd0684e59ac)" style="fill: none; stroke: #998ec3; stroke-width: 5.5"/>
    <path d="M 236.678473 267.805382 
L 128.054473 240.042486 
" clip-path="url(#pd0684e59ac)" style="fill: none; stroke: #998ec3; stroke-width: 5.5"/>
    <path d="M 236.678473 267.805382 
L 123.446182 297.316959 
" clip-path="url(#pd0684e59ac)" style="fill: none; stroke: #f1a340; stroke-width: 5.5"/>
    <path d="M 128.054473 240.042486 
L 351.885745 346.691505 
" clip-path="url(#pd0684e59ac)" style="fill: none; stroke: #f1a340; stroke-width: 5.5"/>
    <path d="M 128.054473 240.042486 
L 346.619127 402.649323 
" clip-path="url(#pd0684e59ac)" style="fill: none; stroke: #f1a340; stroke-width: 5.5"/>
    <path d="M 128.054473 240.042486 
L 123.446182 297.316959 
" clip-path="url(#pd0684e59ac)" style="fill: none; stroke: #f1a340; stroke-width: 5.5"/>
    <path d="M 128.054473 240.042486 
L 225.486909 210.417759 
" clip-path="url(#pd0684e59ac)" style="fill: none; stroke: #f1a340; stroke-width: 5.5"/>
    <path d="M 128.054473 240.042486 
L 214.295345 373.024595 
" clip-path="url(#pd0684e59ac)" style="fill: none; stroke: #f1a340; stroke-width: 5.5"/>
    <path d="M 346.619127 307.191868 
L 225.486909 210.417759 
" clip-path="url(#pd0684e59ac)" style="fill: none; stroke: #998ec3; stroke-width: 5.5"/>
    <path d="M 346.619127 307.191868 
L 214.295345 373.024595 
" clip-path="url(#pd0684e59ac)" style="fill: none; stroke: #998ec3; stroke-width: 5.5"/>
    <path d="M 123.446182 297.316959 
L 351.885745 346.691505 
" clip-path="url(#pd0684e59ac)" style="fill: none; stroke: #998ec3; stroke-width: 5.5"/>
   </g>
   <g id="PathCollection_1">
    <defs>
     <path id="ma836165e74" d="M 0 14.142136 
C 3.750538 14.142136 7.347969 12.652031 10 10 
C 12.652031 7.347969 14.142136 3.750538 14.142136 0 
C 14.142136 -3.750538 12.652031 -7.347969 10 -10 
C 7.347969 -12.652031 3.750538 -14.142136 0 -14.142136 
C -3.750538 -14.142136 -7.347969 -12.652031 -10 -10 
C -12.652031 -7.347969 -14.142136 -3.750538 -14.142136 0 
C -14.142136 3.750538 -12.652031 7.347969 -10 10 
C -7.347969 12.652031 -3.750538 14.142136 0 14.142136 
z
" style="stroke: #111111; stroke-width: 1.5"/>
    </defs>
    <g clip-path="url(#pd0684e59ac)">
     <use xlink:href="#ma836165e74" x="126.737818" y="141.951723" style="fill: #8cc7ca; stroke: #111111; stroke-width: 1.5"/>
     <use xlink:href="#ma836165e74" x="236.678473" y="267.805382" style="fill: #8cc7ca; stroke: #111111; stroke-width: 1.5"/>
     <use xlink:href="#ma836165e74" x="331.4776" y="220.950995" style="fill: #8cc7ca; stroke: #111111; stroke-width: 1.5"/>
     <use xlink:href="#ma836165e74" x="128.054473" y="240.042486" style="fill: #8cc7ca; stroke: #111111; stroke-width: 1.5"/>
     <use xlink:href="#ma836165e74" x="346.619127" y="307.191868" style="fill: #8cc7ca; stroke: #111111; stroke-width: 1.5"/>
     <use xlink:href="#ma836165e74" x="123.446182" y="297.316959" style="fill: #8cc7ca; stroke: #111111; stroke-width: 1.5"/>
     <use xlink:href="#ma836165e74" x="351.885745" y="346.691505" style="fill: #8cc7ca; stroke: #111111; stroke-width: 1.5"/>
     <use xlink:href="#ma836165e74" x="346.619127" y="402.649323" style="fill: #8cc7ca; stroke: #111111; stroke-width: 1.5"/>
     <use xlink:href="#ma836165e74" x="214.295345" y="373.024595" style="fill: #8cc7ca; stroke: #111111; stroke-width: 1.5"/>
     <use xlink:href="#ma836165e74" x="225.486909" y="210.417759" style="fill: #8cc7ca; stroke: #111111; stroke-width: 1.5"/>
    </g>
   </g>
   <g id="text_1">
    <g clip-path="url(#pd0684e59ac)">
     <!-- I consider ethical -->
     <g transform="translate(79.73774 99.229024) scale(0.11 -0.11)">
      <defs>
       <path id="DejaVuSans-49" d="M 628 4666 
L 1259 4666 
L 1259 0 
L 628 0 
L 628 4666 
z
" transform="scale(0.015625)"/>
       <path id="DejaVuSans-20" transform="scale(0.015625)"/>
       <path id="DejaVuSans-63" d="M 3122 3366 
L 3122 2828 
Q 2878 2963 2633 3030 
Q 2388 3097 2138 3097 
Q 1578 3097 1268 2742 
Q 959 2388 959 1747 
Q 959 1106 1268 751 
Q 1578 397 2138 397 
Q 2388 397 2633 464 
Q 2878 531 3122 666 
L 3122 134 
Q 2881 22 2623 -34 
Q 2366 -91 2075 -91 
Q 1284 -91 818 406 
Q 353 903 353 1747 
Q 353 2603 823 3093 
Q 1294 3584 2113 3584 
Q 2378 3584 2631 3529 
Q 2884 3475 3122 3366 
z
" transform="scale(0.015625)"/>
       <path id="DejaVuSans-6f" d="M 1959 3097 
Q 1497 3097 1228 2736 
Q 959 2375 959 1747 
Q 959 1119 1226 758 
Q 1494 397 1959 397 
Q 2419 397 2687 759 
Q 2956 1122 2956 1747 
Q 2956 2369 2687 2733 
Q 2419 3097 1959 3097 
z
M 1959 3584 
Q 2709 3584 3137 3096 
Q 3566 2609 3566 1747 
Q 3566 888 3137 398 
Q 2709 -91 1959 -91 
Q 1206 -91 779 398 
Q 353 888 353 1747 
Q 353 2609 779 3096 
Q 1206 3584 1959 3584 
z
" transform="scale(0.015625)"/>
       <path id="DejaVuSans-6e" d="M 3513 2113 
L 3513 0 
L 2938 0 
L 2938 2094 
Q 2938 2591 2744 2837 
Q 2550 3084 2163 3084 
Q 1697 3084 1428 2787 
Q 1159 2491 1159 1978 
L 1159 0 
L 581 0 
L 581 3500 
L 1159 3500 
L 1159 2956 
Q 1366 3272 1645 3428 
Q 1925 3584 2291 3584 
Q 2894 3584 3203 3211 
Q 3513 2838 3513 2113 
z
" transform="scale(0.015625)"/>
       <path id="DejaVuSans-73" d="M 2834 3397 
L 2834 2853 
Q 2591 2978 2328 3040 
Q 2066 3103 1784 3103 
Q 1356 3103 1142 2972 
Q 928 2841 928 2578 
Q 928 2378 1081 2264 
Q 1234 2150 1697 2047 
L 1894 2003 
Q 2506 1872 2764 1633 
Q 3022 1394 3022 966 
Q 3022 478 2636 193 
Q 2250 -91 1575 -91 
Q 1294 -91 989 -36 
Q 684 19 347 128 
L 347 722 
Q 666 556 975 473 
Q 1284 391 1588 391 
Q 1994 391 2212 530 
Q 2431 669 2431 922 
Q 2431 1156 2273 1281 
Q 2116 1406 1581 1522 
L 1381 1569 
Q 847 1681 609 1914 
Q 372 2147 372 2553 
Q 372 3047 722 3315 
Q 1072 3584 1716 3584 
Q 2034 3584 2315 3537 
Q 2597 3491 2834 3397 
z
" transform="scale(0.015625)"/>
       <path id="DejaVuSans-69" d="M 603 3500 
L 1178 3500 
L 1178 0 
L 603 0 
L 603 3500 
z
M 603 4863 
L 1178 4863 
L 1178 4134 
L 603 4134 
L 603 4863 
z
" transform="scale(0.015625)"/>
       <path id="DejaVuSans-64" d="M 2906 2969 
L 2906 4863 
L 3481 4863 
L 3481 0 
L 2906 0 
L 2906 525 
Q 2725 213 2448 61 
Q 2172 -91 1784 -91 
Q 1150 -91 751 415 
Q 353 922 353 1747 
Q 353 2572 751 3078 
Q 1150 3584 1784 3584 
Q 2172 3584 2448 3432 
Q 2725 3281 2906 2969 
z
M 947 1747 
Q 947 1113 1208 752 
Q 1469 391 1925 391 
Q 2381 391 2643 752 
Q 2906 1113 2906 1747 
Q 2906 2381 2643 2742 
Q 2381 3103 1925 3103 
Q 1469 3103 1208 2742 
Q 947 2381 947 1747 
z
" transform="scale(0.015625)"/>
       <path id="DejaVuSans-65" d="M 3597 1894 
L 3597 1613 
L 953 1613 
Q 991 1019 1311 708 
Q 1631 397 2203 397 
Q 2534 397 2845 478 
Q 3156 559 3463 722 
L 3463 178 
Q 3153 47 2828 -22 
Q 2503 -91 2169 -91 
Q 1331 -91 842 396 
Q 353 884 353 1716 
Q 353 2575 817 3079 
Q 1281 3584 2069 3584 
Q 2775 3584 3186 3129 
Q 3597 2675 3597 1894 
z
M 3022 2063 
Q 3016 2534 2758 2815 
Q 2500 3097 2075 3097 
Q 1594 3097 1305 2825 
Q 1016 2553 972 2059 
L 3022 2063 
z
" transform="scale(0.015625)"/>
       <path id="DejaVuSans-72" d="M 2631 2963 
Q 2534 3019 2420 3045 
Q 2306 3072 2169 3072 
Q 1681 3072 1420 2755 
Q 1159 2438 1159 1844 
L 1159 0 
L 581 0 
L 581 3500 
L 1159 3500 
L 1159 2956 
Q 1341 3275 1631 3429 
Q 1922 3584 2338 3584 
Q 2397 3584 2469 3576 
Q 2541 3569 2628 3553 
L 2631 2963 
z
" transform="scale(0.015625)"/>
       <path id="DejaVuSans-74" d="M 1172 4494 
L 1172 3500 
L 2356 3500 
L 2356 3053 
L 1172 3053 
L 1172 1153 
Q 1172 725 1289 603 
Q 1406 481 1766 481 
L 2356 481 
L 2356 0 
L 1766 0 
Q 1100 0 847 248 
Q 594 497 594 1153 
L 594 3053 
L 172 3053 
L 172 3500 
L 594 3500 
L 594 4494 
L 1172 4494 
z
" transform="scale(0.015625)"/>
       <path id="DejaVuSans-68" d="M 3513 2113 
L 3513 0 
L 2938 0 
L 2938 2094 
Q 2938 2591 2744 2837 
Q 2550 3084 2163 3084 
Q 1697 3084 1428 2787 
Q 1159 2491 1159 1978 
L 1159 0 
L 581 0 
L 581 4863 
L 1159 4863 
L 1159 2956 
Q 1366 3272 1645 3428 
Q 1925 3584 2291 3584 
Q 2894 3584 3203 3211 
Q 3513 2838 3513 2113 
z
" transform="scale(0.015625)"/>
       <path id="DejaVuSans-61" d="M 2194 1759 
Q 1497 1759 1228 1600 
Q 959 1441 959 1056 
Q 959 750 1161 570 
Q 1363 391 1709 391 
Q 2188 391 2477 730 
Q 2766 1069 2766 1631 
L 2766 1759 
L 2194 1759 
z
M 3341 1997 
L 3341 0 
L 2766 0 
L 2766 531 
Q 2569 213 2275 61 
Q 1981 -91 1556 -91 
Q 1019 -91 701 211 
Q 384 513 384 1019 
Q 384 1609 779 1909 
Q 1175 2209 1959 2209 
L 2766 2209 
L 2766 2266 
Q 2766 2663 2505 2880 
Q 2244 3097 1772 3097 
Q 1472 3097 1187 3025 
Q 903 2953 641 2809 
L 641 3341 
Q 956 3463 1253 3523 
Q 1550 3584 1831 3584 
Q 2591 3584 2966 3190 
Q 3341 2797 3341 1997 
z
" transform="scale(0.015625)"/>
       <path id="DejaVuSans-6c" d="M 603 4863 
L 1178 4863 
L 1178 0 
L 603 0 
L 603 4863 
z
" transform="scale(0.015625)"/>
      </defs>
      <use xlink:href="#DejaVuSans-49"/>
      <use xlink:href="#DejaVuSans-20" transform="translate(29.492188 0)"/>
      <use xlink:href="#DejaVuSans-63" transform="translate(61.279297 0)"/>
      <use xlink:href="#DejaVuSans-6f" transform="translate(116.259766 0)"/>
      <use xlink:href="#DejaVuSans-6e" transform="translate(177.441406 0)"/>
      <use xlink:href="#DejaVuSans-73" transform="translate(240.820312 0)"/>
      <use xlink:href="#DejaVuSans-69" transform="translate(292.919922 0)"/>
      <use xlink:href="#DejaVuSans-64" transform="translate(320.703125 0)"/>
      <use xlink:href="#DejaVuSans-65" transform="translate(384.179688 0)"/>
      <use xlink:href="#DejaVuSans-72" transform="translate(445.703125 0)"/>
      <use xlink:href="#DejaVuSans-20" transform="translate(486.816406 0)"/>
      <use xlink:href="#DejaVuSans-65" transform="translate(518.603516 0)"/>
      <use xlink:href="#DejaVuSans-74" transform="translate(580.126953 0)"/>
      <use xlink:href="#DejaVuSans-68" transform="translate(619.335938 0)"/>
      <use xlink:href="#DejaVuSans-69" transform="translate(682.714844 0)"/>
      <use xlink:href="#DejaVuSans-63" transform="translate(710.498047 0)"/>
      <use xlink:href="#DejaVuSans-61" transform="translate(765.478516 0)"/>
      <use xlink:href="#DejaVuSans-6c" transform="translate(826.757812 0)"/>
     </g>
    </g>
    <g clip-path="url(#pd0684e59ac)">
     <!-- meat consumption -->
     <g transform="translate(75.111724 111.546618) scale(0.11 -0.11)">
      <defs>
       <path id="DejaVuSans-6d" d="M 3328 2828 
Q 3544 3216 3844 3400 
Q 4144 3584 4550 3584 
Q 5097 3584 5394 3201 
Q 5691 2819 5691 2113 
L 5691 0 
L 5113 0 
L 5113 2094 
Q 5113 2597 4934 2840 
Q 4756 3084 4391 3084 
Q 3944 3084 3684 2787 
Q 3425 2491 3425 1978 
L 3425 0 
L 2847 0 
L 2847 2094 
Q 2847 2600 2669 2842 
Q 2491 3084 2119 3084 
Q 1678 3084 1418 2786 
Q 1159 2488 1159 1978 
L 1159 0 
L 581 0 
L 581 3500 
L 1159 3500 
L 1159 2956 
Q 1356 3278 1631 3431 
Q 1906 3584 2284 3584 
Q 2666 3584 2933 3390 
Q 3200 3197 3328 2828 
z
" transform="scale(0.015625)"/>
       <path id="DejaVuSans-75" d="M 544 1381 
L 544 3500 
L 1119 3500 
L 1119 1403 
Q 1119 906 1312 657 
Q 1506 409 1894 409 
Q 2359 409 2629 706 
Q 2900 1003 2900 1516 
L 2900 3500 
L 3475 3500 
L 3475 0 
L 2900 0 
L 2900 538 
Q 2691 219 2414 64 
Q 2138 -91 1772 -91 
Q 1169 -91 856 284 
Q 544 659 544 1381 
z
M 1991 3584 
L 1991 3584 
z
" transform="scale(0.015625)"/>
       <path id="DejaVuSans-70" d="M 1159 525 
L 1159 -1331 
L 581 -1331 
L 581 3500 
L 1159 3500 
L 1159 2969 
Q 1341 3281 1617 3432 
Q 1894 3584 2278 3584 
Q 2916 3584 3314 3078 
Q 3713 2572 3713 1747 
Q 3713 922 3314 415 
Q 2916 -91 2278 -91 
Q 1894 -91 1617 61 
Q 1341 213 1159 525 
z
M 3116 1747 
Q 3116 2381 2855 2742 
Q 2594 3103 2138 3103 
Q 1681 3103 1420 2742 
Q 1159 2381 1159 1747 
Q 1159 1113 1420 752 
Q 1681 391 2138 391 
Q 2594 391 2855 752 
Q 3116 1113 3116 1747 
z
" transform="scale(0.015625)"/>
      </defs>
      <use xlink:href="#DejaVuSans-6d"/>
      <use xlink:href="#DejaVuSans-65" transform="translate(97.412109 0)"/>
      <use xlink:href="#DejaVuSans-61" transform="translate(158.935547 0)"/>
      <use xlink:href="#DejaVuSans-74" transform="translate(220.214844 0)"/>
      <use xlink:href="#DejaVuSans-20" transform="translate(259.423828 0)"/>
      <use xlink:href="#DejaVuSans-63" transform="translate(291.210938 0)"/>
      <use xlink:href="#DejaVuSans-6f" transform="translate(346.191406 0)"/>
      <use xlink:href="#DejaVuSans-6e" transform="translate(407.373047 0)"/>
      <use xlink:href="#DejaVuSans-73" transform="translate(470.751953 0)"/>
      <use xlink:href="#DejaVuSans-75" transform="translate(522.851562 0)"/>
      <use xlink:href="#DejaVuSans-6d" transform="translate(586.230469 0)"/>
      <use xlink:href="#DejaVuSans-70" transform="translate(683.642578 0)"/>
      <use xlink:href="#DejaVuSans-74" transform="translate(747.119141 0)"/>
      <use xlink:href="#DejaVuSans-69" transform="translate(786.328125 0)"/>
      <use xlink:href="#DejaVuSans-6f" transform="translate(814.111328 0)"/>
      <use xlink:href="#DejaVuSans-6e" transform="translate(875.292969 0)"/>
     </g>
    </g>
    <g clip-path="url(#pd0684e59ac)">
     <!-- important -->
     <g transform="translate(99.566099 123.864212) scale(0.11 -0.11)">
      <use xlink:href="#DejaVuSans-69"/>
      <use xlink:href="#DejaVuSans-6d" transform="translate(27.783203 0)"/>
      <use xlink:href="#DejaVuSans-70" transform="translate(125.195312 0)"/>
      <use xlink:href="#DejaVuSans-6f" transform="translate(188.671875 0)"/>
      <use xlink:href="#DejaVuSans-72" transform="translate(249.853516 0)"/>
      <use xlink:href="#DejaVuSans-74" transform="translate(290.966797 0)"/>
      <use xlink:href="#DejaVuSans-61" transform="translate(330.175781 0)"/>
      <use xlink:href="#DejaVuSans-6e" transform="translate(391.455078 0)"/>
      <use xlink:href="#DejaVuSans-74" transform="translate(454.833984 0)"/>
     </g>
    </g>
   </g>
   <g id="text_2">
    <g clip-path="url(#pd0684e59ac)">
     <!-- I need protein for -->
     <g transform="translate(188.95566 237.400277) scale(0.11 -0.11)">
      <defs>
       <path id="DejaVuSans-66" d="M 2375 4863 
L 2375 4384 
L 1825 4384 
Q 1516 4384 1395 4259 
Q 1275 4134 1275 3809 
L 1275 3500 
L 2222 3500 
L 2222 3053 
L 1275 3053 
L 1275 0 
L 697 0 
L 697 3053 
L 147 3053 
L 147 3500 
L 697 3500 
L 697 3744 
Q 697 4328 969 4595 
Q 1241 4863 1831 4863 
L 2375 4863 
z
" transform="scale(0.015625)"/>
      </defs>
      <use xlink:href="#DejaVuSans-49"/>
      <use xlink:href="#DejaVuSans-20" transform="translate(29.492188 0)"/>
      <use xlink:href="#DejaVuSans-6e" transform="translate(61.279297 0)"/>
      <use xlink:href="#DejaVuSans-65" transform="translate(124.658203 0)"/>
      <use xlink:href="#DejaVuSans-65" transform="translate(186.181641 0)"/>
      <use xlink:href="#DejaVuSans-64" transform="translate(247.705078 0)"/>
      <use xlink:href="#DejaVuSans-20" transform="translate(311.181641 0)"/>
      <use xlink:href="#DejaVuSans-70" transform="translate(342.96875 0)"/>
      <use xlink:href="#DejaVuSans-72" transform="translate(406.445312 0)"/>
      <use xlink:href="#DejaVuSans-6f" transform="translate(445.308594 0)"/>
      <use xlink:href="#DejaVuSans-74" transform="translate(506.490234 0)"/>
      <use xlink:href="#DejaVuSans-65" transform="translate(545.699219 0)"/>
      <use xlink:href="#DejaVuSans-69" transform="translate(607.222656 0)"/>
      <use xlink:href="#DejaVuSans-6e" transform="translate(635.005859 0)"/>
      <use xlink:href="#DejaVuSans-20" transform="translate(698.384766 0)"/>
      <use xlink:href="#DejaVuSans-66" transform="translate(730.171875 0)"/>
      <use xlink:href="#DejaVuSans-6f" transform="translate(765.376953 0)"/>
      <use xlink:href="#DejaVuSans-72" transform="translate(826.558594 0)"/>
     </g>
    </g>
    <g clip-path="url(#pd0684e59ac)">
     <!-- workouts -->
     <g transform="translate(211.696441 249.717871) scale(0.11 -0.11)">
      <defs>
       <path id="DejaVuSans-77" d="M 269 3500 
L 844 3500 
L 1563 769 
L 2278 3500 
L 2956 3500 
L 3675 769 
L 4391 3500 
L 4966 3500 
L 4050 0 
L 3372 0 
L 2619 2869 
L 1863 0 
L 1184 0 
L 269 3500 
z
" transform="scale(0.015625)"/>
       <path id="DejaVuSans-6b" d="M 581 4863 
L 1159 4863 
L 1159 1991 
L 2875 3500 
L 3609 3500 
L 1753 1863 
L 3688 0 
L 2938 0 
L 1159 1709 
L 1159 0 
L 581 0 
L 581 4863 
z
" transform="scale(0.015625)"/>
      </defs>
      <use xlink:href="#DejaVuSans-77"/>
      <use xlink:href="#DejaVuSans-6f" transform="translate(81.787109 0)"/>
      <use xlink:href="#DejaVuSans-72" transform="translate(142.96875 0)"/>
      <use xlink:href="#DejaVuSans-6b" transform="translate(184.082031 0)"/>
      <use xlink:href="#DejaVuSans-6f" transform="translate(238.367188 0)"/>
      <use xlink:href="#DejaVuSans-75" transform="translate(299.548828 0)"/>
      <use xlink:href="#DejaVuSans-74" transform="translate(362.927734 0)"/>
      <use xlink:href="#DejaVuSans-73" transform="translate(402.136719 0)"/>
     </g>
    </g>
   </g>
   <g id="text_3">
    <g clip-path="url(#pd0684e59ac)">
     <!-- I work out a lot -->
     <g transform="translate(290.127053 202.863485) scale(0.11 -0.11)">
      <use xlink:href="#DejaVuSans-49"/>
      <use xlink:href="#DejaVuSans-20" transform="translate(29.492188 0)"/>
      <use xlink:href="#DejaVuSans-77" transform="translate(61.279297 0)"/>
      <use xlink:href="#DejaVuSans-6f" transform="translate(143.066406 0)"/>
      <use xlink:href="#DejaVuSans-72" transform="translate(204.248047 0)"/>
      <use xlink:href="#DejaVuSans-6b" transform="translate(245.361328 0)"/>
      <use xlink:href="#DejaVuSans-20" transform="translate(303.271484 0)"/>
      <use xlink:href="#DejaVuSans-6f" transform="translate(335.058594 0)"/>
      <use xlink:href="#DejaVuSans-75" transform="translate(396.240234 0)"/>
      <use xlink:href="#DejaVuSans-74" transform="translate(459.619141 0)"/>
      <use xlink:href="#DejaVuSans-20" transform="translate(498.828125 0)"/>
      <use xlink:href="#DejaVuSans-61" transform="translate(530.615234 0)"/>
      <use xlink:href="#DejaVuSans-20" transform="translate(591.894531 0)"/>
      <use xlink:href="#DejaVuSans-6c" transform="translate(623.681641 0)"/>
      <use xlink:href="#DejaVuSans-6f" transform="translate(651.464844 0)"/>
      <use xlink:href="#DejaVuSans-74" transform="translate(712.646484 0)"/>
     </g>
    </g>
   </g>
   <g id="text_4">
    <g clip-path="url(#pd0684e59ac)">
     <!-- I eat meat -->
     <g transform="translate(99.756973 209.637382) scale(0.11 -0.11)">
      <use xlink:href="#DejaVuSans-49"/>
      <use xlink:href="#DejaVuSans-20" transform="translate(29.492188 0)"/>
      <use xlink:href="#DejaVuSans-65" transform="translate(61.279297 0)"/>
      <use xlink:href="#DejaVuSans-61" transform="translate(122.802734 0)"/>
      <use xlink:href="#DejaVuSans-74" transform="translate(184.082031 0)"/>
      <use xlink:href="#DejaVuSans-20" transform="translate(223.291016 0)"/>
      <use xlink:href="#DejaVuSans-6d" transform="translate(255.078125 0)"/>
      <use xlink:href="#DejaVuSans-65" transform="translate(352.490234 0)"/>
      <use xlink:href="#DejaVuSans-61" transform="translate(414.013672 0)"/>
      <use xlink:href="#DejaVuSans-74" transform="translate(475.292969 0)"/>
     </g>
    </g>
    <g clip-path="url(#pd0684e59ac)">
     <!-- regularly -->
     <g transform="translate(103.612988 221.954976) scale(0.11 -0.11)">
      <defs>
       <path id="DejaVuSans-67" d="M 2906 1791 
Q 2906 2416 2648 2759 
Q 2391 3103 1925 3103 
Q 1463 3103 1205 2759 
Q 947 2416 947 1791 
Q 947 1169 1205 825 
Q 1463 481 1925 481 
Q 2391 481 2648 825 
Q 2906 1169 2906 1791 
z
M 3481 434 
Q 3481 -459 3084 -895 
Q 2688 -1331 1869 -1331 
Q 1566 -1331 1297 -1286 
Q 1028 -1241 775 -1147 
L 775 -588 
Q 1028 -725 1275 -790 
Q 1522 -856 1778 -856 
Q 2344 -856 2625 -561 
Q 2906 -266 2906 331 
L 2906 616 
Q 2728 306 2450 153 
Q 2172 0 1784 0 
Q 1141 0 747 490 
Q 353 981 353 1791 
Q 353 2603 747 3093 
Q 1141 3584 1784 3584 
Q 2172 3584 2450 3431 
Q 2728 3278 2906 2969 
L 2906 3500 
L 3481 3500 
L 3481 434 
z
" transform="scale(0.015625)"/>
       <path id="DejaVuSans-79" d="M 2059 -325 
Q 1816 -950 1584 -1140 
Q 1353 -1331 966 -1331 
L 506 -1331 
L 506 -850 
L 844 -850 
Q 1081 -850 1212 -737 
Q 1344 -625 1503 -206 
L 1606 56 
L 191 3500 
L 800 3500 
L 1894 763 
L 2988 3500 
L 3597 3500 
L 2059 -325 
z
" transform="scale(0.015625)"/>
      </defs>
      <use xlink:href="#DejaVuSans-72"/>
      <use xlink:href="#DejaVuSans-65" transform="translate(38.863281 0)"/>
      <use xlink:href="#DejaVuSans-67" transform="translate(100.386719 0)"/>
      <use xlink:href="#DejaVuSans-75" transform="translate(163.863281 0)"/>
      <use xlink:href="#DejaVuSans-6c" transform="translate(227.242188 0)"/>
      <use xlink:href="#DejaVuSans-61" transform="translate(255.025391 0)"/>
      <use xlink:href="#DejaVuSans-72" transform="translate(316.304688 0)"/>
      <use xlink:href="#DejaVuSans-6c" transform="translate(357.417969 0)"/>
      <use xlink:href="#DejaVuSans-79" transform="translate(385.201172 0)"/>
     </g>
    </g>
   </g>
   <g id="text_5">
    <g clip-path="url(#pd0684e59ac)">
     <!-- Protein content of -->
     <g transform="translate(297.487799 264.46917) scale(0.11 -0.11)">
      <defs>
       <path id="DejaVuSans-50" d="M 1259 4147 
L 1259 2394 
L 2053 2394 
Q 2494 2394 2734 2622 
Q 2975 2850 2975 3272 
Q 2975 3691 2734 3919 
Q 2494 4147 2053 4147 
L 1259 4147 
z
M 628 4666 
L 2053 4666 
Q 2838 4666 3239 4311 
Q 3641 3956 3641 3272 
Q 3641 2581 3239 2228 
Q 2838 1875 2053 1875 
L 1259 1875 
L 1259 0 
L 628 0 
L 628 4666 
z
" transform="scale(0.015625)"/>
      </defs>
      <use xlink:href="#DejaVuSans-50"/>
      <use xlink:href="#DejaVuSans-72" transform="translate(58.552734 0)"/>
      <use xlink:href="#DejaVuSans-6f" transform="translate(97.416016 0)"/>
      <use xlink:href="#DejaVuSans-74" transform="translate(158.597656 0)"/>
      <use xlink:href="#DejaVuSans-65" transform="translate(197.806641 0)"/>
      <use xlink:href="#DejaVuSans-69" transform="translate(259.330078 0)"/>
      <use xlink:href="#DejaVuSans-6e" transform="translate(287.113281 0)"/>
      <use xlink:href="#DejaVuSans-20" transform="translate(350.492188 0)"/>
      <use xlink:href="#DejaVuSans-63" transform="translate(382.279297 0)"/>
      <use xlink:href="#DejaVuSans-6f" transform="translate(437.259766 0)"/>
      <use xlink:href="#DejaVuSans-6e" transform="translate(498.441406 0)"/>
      <use xlink:href="#DejaVuSans-74" transform="translate(561.820312 0)"/>
      <use xlink:href="#DejaVuSans-65" transform="translate(601.029297 0)"/>
      <use xlink:href="#DejaVuSans-6e" transform="translate(662.552734 0)"/>
      <use xlink:href="#DejaVuSans-74" transform="translate(725.931641 0)"/>
      <use xlink:href="#DejaVuSans-20" transform="translate(765.140625 0)"/>
      <use xlink:href="#DejaVuSans-6f" transform="translate(796.927734 0)"/>
      <use xlink:href="#DejaVuSans-66" transform="translate(858.109375 0)"/>
     </g>
    </g>
    <g clip-path="url(#pd0684e59ac)">
     <!-- alternatives -->
     <g transform="translate(313.970612 276.786764) scale(0.11 -0.11)">
      <defs>
       <path id="DejaVuSans-76" d="M 191 3500 
L 800 3500 
L 1894 563 
L 2988 3500 
L 3597 3500 
L 2284 0 
L 1503 0 
L 191 3500 
z
" transform="scale(0.015625)"/>
      </defs>
      <use xlink:href="#DejaVuSans-61"/>
      <use xlink:href="#DejaVuSans-6c" transform="translate(61.279297 0)"/>
      <use xlink:href="#DejaVuSans-74" transform="translate(89.0625 0)"/>
      <use xlink:href="#DejaVuSans-65" transform="translate(128.271484 0)"/>
      <use xlink:href="#DejaVuSans-72" transform="translate(189.794922 0)"/>
      <use xlink:href="#DejaVuSans-6e" transform="translate(229.158203 0)"/>
      <use xlink:href="#DejaVuSans-61" transform="translate(292.537109 0)"/>
      <use xlink:href="#DejaVuSans-74" transform="translate(353.816406 0)"/>
      <use xlink:href="#DejaVuSans-69" transform="translate(393.025391 0)"/>
      <use xlink:href="#DejaVuSans-76" transform="translate(420.808594 0)"/>
      <use xlink:href="#DejaVuSans-65" transform="translate(479.988281 0)"/>
      <use xlink:href="#DejaVuSans-73" transform="translate(541.511719 0)"/>
     </g>
    </g>
    <g clip-path="url(#pd0684e59ac)">
     <!-- matters to me -->
     <g transform="translate(307.309596 289.104357) scale(0.11 -0.11)">
      <use xlink:href="#DejaVuSans-6d"/>
      <use xlink:href="#DejaVuSans-61" transform="translate(97.412109 0)"/>
      <use xlink:href="#DejaVuSans-74" transform="translate(158.691406 0)"/>
      <use xlink:href="#DejaVuSans-74" transform="translate(197.900391 0)"/>
      <use xlink:href="#DejaVuSans-65" transform="translate(237.109375 0)"/>
      <use xlink:href="#DejaVuSans-72" transform="translate(298.632812 0)"/>
      <use xlink:href="#DejaVuSans-73" transform="translate(339.746094 0)"/>
      <use xlink:href="#DejaVuSans-20" transform="translate(391.845703 0)"/>
      <use xlink:href="#DejaVuSans-74" transform="translate(423.632812 0)"/>
      <use xlink:href="#DejaVuSans-6f" transform="translate(462.841797 0)"/>
      <use xlink:href="#DejaVuSans-20" transform="translate(524.023438 0)"/>
      <use xlink:href="#DejaVuSans-6d" transform="translate(555.810547 0)"/>
      <use xlink:href="#DejaVuSans-65" transform="translate(653.222656 0)"/>
     </g>
    </g>
   </g>
   <g id="text_6">
    <g clip-path="url(#pd0684e59ac)">
     <!-- I try to reduce -->
     <g transform="translate(84.478682 266.911855) scale(0.11 -0.11)">
      <use xlink:href="#DejaVuSans-49"/>
      <use xlink:href="#DejaVuSans-20" transform="translate(29.492188 0)"/>
      <use xlink:href="#DejaVuSans-74" transform="translate(61.279297 0)"/>
      <use xlink:href="#DejaVuSans-72" transform="translate(100.488281 0)"/>
      <use xlink:href="#DejaVuSans-79" transform="translate(141.601562 0)"/>
      <use xlink:href="#DejaVuSans-20" transform="translate(200.78125 0)"/>
      <use xlink:href="#DejaVuSans-74" transform="translate(232.568359 0)"/>
      <use xlink:href="#DejaVuSans-6f" transform="translate(271.777344 0)"/>
      <use xlink:href="#DejaVuSans-20" transform="translate(332.958984 0)"/>
      <use xlink:href="#DejaVuSans-72" transform="translate(364.746094 0)"/>
      <use xlink:href="#DejaVuSans-65" transform="translate(403.609375 0)"/>
      <use xlink:href="#DejaVuSans-64" transform="translate(465.132812 0)"/>
      <use xlink:href="#DejaVuSans-75" transform="translate(528.609375 0)"/>
      <use xlink:href="#DejaVuSans-63" transform="translate(591.988281 0)"/>
      <use xlink:href="#DejaVuSans-65" transform="translate(646.96875 0)"/>
     </g>
    </g>
    <g clip-path="url(#pd0684e59ac)">
     <!-- meat consumption -->
     <g transform="translate(71.820088 279.229448) scale(0.11 -0.11)">
      <use xlink:href="#DejaVuSans-6d"/>
      <use xlink:href="#DejaVuSans-65" transform="translate(97.412109 0)"/>
      <use xlink:href="#DejaVuSans-61" transform="translate(158.935547 0)"/>
      <use xlink:href="#DejaVuSans-74" transform="translate(220.214844 0)"/>
      <use xlink:href="#DejaVuSans-20" transform="translate(259.423828 0)"/>
      <use xlink:href="#DejaVuSans-63" transform="translate(291.210938 0)"/>
      <use xlink:href="#DejaVuSans-6f" transform="translate(346.191406 0)"/>
      <use xlink:href="#DejaVuSans-6e" transform="translate(407.373047 0)"/>
      <use xlink:href="#DejaVuSans-73" transform="translate(470.751953 0)"/>
      <use xlink:href="#DejaVuSans-75" transform="translate(522.851562 0)"/>
      <use xlink:href="#DejaVuSans-6d" transform="translate(586.230469 0)"/>
      <use xlink:href="#DejaVuSans-70" transform="translate(683.642578 0)"/>
      <use xlink:href="#DejaVuSans-74" transform="translate(747.119141 0)"/>
      <use xlink:href="#DejaVuSans-69" transform="translate(786.328125 0)"/>
      <use xlink:href="#DejaVuSans-6f" transform="translate(814.111328 0)"/>
      <use xlink:href="#DejaVuSans-6e" transform="translate(875.292969 0)"/>
     </g>
    </g>
   </g>
   <g id="text_7">
    <g clip-path="url(#pd0684e59ac)">
     <!-- I want to reduce -->
     <g transform="translate(307.080511 316.2864) scale(0.11 -0.11)">
      <use xlink:href="#DejaVuSans-49"/>
      <use xlink:href="#DejaVuSans-20" transform="translate(29.492188 0)"/>
      <use xlink:href="#DejaVuSans-77" transform="translate(61.279297 0)"/>
      <use xlink:href="#DejaVuSans-61" transform="translate(143.066406 0)"/>
      <use xlink:href="#DejaVuSans-6e" transform="translate(204.345703 0)"/>
      <use xlink:href="#DejaVuSans-74" transform="translate(267.724609 0)"/>
      <use xlink:href="#DejaVuSans-20" transform="translate(306.933594 0)"/>
      <use xlink:href="#DejaVuSans-74" transform="translate(338.720703 0)"/>
      <use xlink:href="#DejaVuSans-6f" transform="translate(377.929688 0)"/>
      <use xlink:href="#DejaVuSans-20" transform="translate(439.111328 0)"/>
      <use xlink:href="#DejaVuSans-72" transform="translate(470.898438 0)"/>
      <use xlink:href="#DejaVuSans-65" transform="translate(509.761719 0)"/>
      <use xlink:href="#DejaVuSans-64" transform="translate(571.285156 0)"/>
      <use xlink:href="#DejaVuSans-75" transform="translate(634.761719 0)"/>
      <use xlink:href="#DejaVuSans-63" transform="translate(698.140625 0)"/>
      <use xlink:href="#DejaVuSans-65" transform="translate(753.121094 0)"/>
     </g>
    </g>
    <g clip-path="url(#pd0684e59ac)">
     <!-- cholesterol level -->
     <g transform="translate(306.83473 328.603994) scale(0.11 -0.11)">
      <use xlink:href="#DejaVuSans-63"/>
      <use xlink:href="#DejaVuSans-68" transform="translate(54.980469 0)"/>
      <use xlink:href="#DejaVuSans-6f" transform="translate(118.359375 0)"/>
      <use xlink:href="#DejaVuSans-6c" transform="translate(179.541016 0)"/>
      <use xlink:href="#DejaVuSans-65" transform="translate(207.324219 0)"/>
      <use xlink:href="#DejaVuSans-73" transform="translate(268.847656 0)"/>
      <use xlink:href="#DejaVuSans-74" transform="translate(320.947266 0)"/>
      <use xlink:href="#DejaVuSans-65" transform="translate(360.15625 0)"/>
      <use xlink:href="#DejaVuSans-72" transform="translate(421.679688 0)"/>
      <use xlink:href="#DejaVuSans-6f" transform="translate(460.542969 0)"/>
      <use xlink:href="#DejaVuSans-6c" transform="translate(521.724609 0)"/>
      <use xlink:href="#DejaVuSans-20" transform="translate(549.507812 0)"/>
      <use xlink:href="#DejaVuSans-6c" transform="translate(581.294922 0)"/>
      <use xlink:href="#DejaVuSans-65" transform="translate(609.078125 0)"/>
      <use xlink:href="#DejaVuSans-76" transform="translate(670.601562 0)"/>
      <use xlink:href="#DejaVuSans-65" transform="translate(729.78125 0)"/>
      <use xlink:href="#DejaVuSans-6c" transform="translate(791.304688 0)"/>
     </g>
    </g>
   </g>
   <g id="text_8">
    <g clip-path="url(#pd0684e59ac)">
     <!-- I want to reduce -->
     <g transform="translate(301.813893 359.926624) scale(0.11 -0.11)">
      <use xlink:href="#DejaVuSans-49"/>
      <use xlink:href="#DejaVuSans-20" transform="translate(29.492188 0)"/>
      <use xlink:href="#DejaVuSans-77" transform="translate(61.279297 0)"/>
      <use xlink:href="#DejaVuSans-61" transform="translate(143.066406 0)"/>
      <use xlink:href="#DejaVuSans-6e" transform="translate(204.345703 0)"/>
      <use xlink:href="#DejaVuSans-74" transform="translate(267.724609 0)"/>
      <use xlink:href="#DejaVuSans-20" transform="translate(306.933594 0)"/>
      <use xlink:href="#DejaVuSans-74" transform="translate(338.720703 0)"/>
      <use xlink:href="#DejaVuSans-6f" transform="translate(377.929688 0)"/>
      <use xlink:href="#DejaVuSans-20" transform="translate(439.111328 0)"/>
      <use xlink:href="#DejaVuSans-72" transform="translate(470.898438 0)"/>
      <use xlink:href="#DejaVuSans-65" transform="translate(509.761719 0)"/>
      <use xlink:href="#DejaVuSans-64" transform="translate(571.285156 0)"/>
      <use xlink:href="#DejaVuSans-75" transform="translate(634.761719 0)"/>
      <use xlink:href="#DejaVuSans-63" transform="translate(698.140625 0)"/>
      <use xlink:href="#DejaVuSans-65" transform="translate(753.121094 0)"/>
     </g>
    </g>
    <g clip-path="url(#pd0684e59ac)">
     <!-- environmental -->
     <g transform="translate(306.696002 372.244218) scale(0.11 -0.11)">
      <use xlink:href="#DejaVuSans-65"/>
      <use xlink:href="#DejaVuSans-6e" transform="translate(61.523438 0)"/>
      <use xlink:href="#DejaVuSans-76" transform="translate(124.902344 0)"/>
      <use xlink:href="#DejaVuSans-69" transform="translate(184.082031 0)"/>
      <use xlink:href="#DejaVuSans-72" transform="translate(211.865234 0)"/>
      <use xlink:href="#DejaVuSans-6f" transform="translate(250.728516 0)"/>
      <use xlink:href="#DejaVuSans-6e" transform="translate(311.910156 0)"/>
      <use xlink:href="#DejaVuSans-6d" transform="translate(375.289062 0)"/>
      <use xlink:href="#DejaVuSans-65" transform="translate(472.701172 0)"/>
      <use xlink:href="#DejaVuSans-6e" transform="translate(534.224609 0)"/>
      <use xlink:href="#DejaVuSans-74" transform="translate(597.603516 0)"/>
      <use xlink:href="#DejaVuSans-61" transform="translate(636.8125 0)"/>
      <use xlink:href="#DejaVuSans-6c" transform="translate(698.091797 0)"/>
     </g>
    </g>
    <g clip-path="url(#pd0684e59ac)">
     <!-- blueprint -->
     <g transform="translate(321.807252 384.561812) scale(0.11 -0.11)">
      <defs>
       <path id="DejaVuSans-62" d="M 3116 1747 
Q 3116 2381 2855 2742 
Q 2594 3103 2138 3103 
Q 1681 3103 1420 2742 
Q 1159 2381 1159 1747 
Q 1159 1113 1420 752 
Q 1681 391 2138 391 
Q 2594 391 2855 752 
Q 3116 1113 3116 1747 
z
M 1159 2969 
Q 1341 3281 1617 3432 
Q 1894 3584 2278 3584 
Q 2916 3584 3314 3078 
Q 3713 2572 3713 1747 
Q 3713 922 3314 415 
Q 2916 -91 2278 -91 
Q 1894 -91 1617 61 
Q 1341 213 1159 525 
L 1159 0 
L 581 0 
L 581 4863 
L 1159 4863 
L 1159 2969 
z
" transform="scale(0.015625)"/>
      </defs>
      <use xlink:href="#DejaVuSans-62"/>
      <use xlink:href="#DejaVuSans-6c" transform="translate(63.476562 0)"/>
      <use xlink:href="#DejaVuSans-75" transform="translate(91.259766 0)"/>
      <use xlink:href="#DejaVuSans-65" transform="translate(154.638672 0)"/>
      <use xlink:href="#DejaVuSans-70" transform="translate(216.162109 0)"/>
      <use xlink:href="#DejaVuSans-72" transform="translate(279.638672 0)"/>
      <use xlink:href="#DejaVuSans-69" transform="translate(320.751953 0)"/>
      <use xlink:href="#DejaVuSans-6e" transform="translate(348.535156 0)"/>
      <use xlink:href="#DejaVuSans-74" transform="translate(411.914062 0)"/>
     </g>
    </g>
   </g>
   <g id="text_9">
    <g clip-path="url(#pd0684e59ac)">
     <!-- Quality of meat -->
     <g transform="translate(171.576674 330.301897) scale(0.11 -0.11)">
      <defs>
       <path id="DejaVuSans-51" d="M 2522 4238 
Q 1834 4238 1429 3725 
Q 1025 3213 1025 2328 
Q 1025 1447 1429 934 
Q 1834 422 2522 422 
Q 3209 422 3611 934 
Q 4013 1447 4013 2328 
Q 4013 3213 3611 3725 
Q 3209 4238 2522 4238 
z
M 3406 84 
L 4238 -825 
L 3475 -825 
L 2784 -78 
Q 2681 -84 2626 -87 
Q 2572 -91 2522 -91 
Q 1538 -91 948 567 
Q 359 1225 359 2328 
Q 359 3434 948 4092 
Q 1538 4750 2522 4750 
Q 3503 4750 4090 4092 
Q 4678 3434 4678 2328 
Q 4678 1516 4351 937 
Q 4025 359 3406 84 
z
" transform="scale(0.015625)"/>
      </defs>
      <use xlink:href="#DejaVuSans-51"/>
      <use xlink:href="#DejaVuSans-75" transform="translate(78.710938 0)"/>
      <use xlink:href="#DejaVuSans-61" transform="translate(142.089844 0)"/>
      <use xlink:href="#DejaVuSans-6c" transform="translate(203.369141 0)"/>
      <use xlink:href="#DejaVuSans-69" transform="translate(231.152344 0)"/>
      <use xlink:href="#DejaVuSans-74" transform="translate(258.935547 0)"/>
      <use xlink:href="#DejaVuSans-79" transform="translate(298.144531 0)"/>
      <use xlink:href="#DejaVuSans-20" transform="translate(357.324219 0)"/>
      <use xlink:href="#DejaVuSans-6f" transform="translate(389.111328 0)"/>
      <use xlink:href="#DejaVuSans-66" transform="translate(450.292969 0)"/>
      <use xlink:href="#DejaVuSans-20" transform="translate(485.498047 0)"/>
      <use xlink:href="#DejaVuSans-6d" transform="translate(517.285156 0)"/>
      <use xlink:href="#DejaVuSans-65" transform="translate(614.697266 0)"/>
      <use xlink:href="#DejaVuSans-61" transform="translate(676.220703 0)"/>
      <use xlink:href="#DejaVuSans-74" transform="translate(737.5 0)"/>
     </g>
    </g>
    <g clip-path="url(#pd0684e59ac)">
     <!-- alternatives -->
     <g transform="translate(181.64683 342.619491) scale(0.11 -0.11)">
      <use xlink:href="#DejaVuSans-61"/>
      <use xlink:href="#DejaVuSans-6c" transform="translate(61.279297 0)"/>
      <use xlink:href="#DejaVuSans-74" transform="translate(89.0625 0)"/>
      <use xlink:href="#DejaVuSans-65" transform="translate(128.271484 0)"/>
      <use xlink:href="#DejaVuSans-72" transform="translate(189.794922 0)"/>
      <use xlink:href="#DejaVuSans-6e" transform="translate(229.158203 0)"/>
      <use xlink:href="#DejaVuSans-61" transform="translate(292.537109 0)"/>
      <use xlink:href="#DejaVuSans-74" transform="translate(353.816406 0)"/>
      <use xlink:href="#DejaVuSans-69" transform="translate(393.025391 0)"/>
      <use xlink:href="#DejaVuSans-76" transform="translate(420.808594 0)"/>
      <use xlink:href="#DejaVuSans-65" transform="translate(479.988281 0)"/>
      <use xlink:href="#DejaVuSans-73" transform="translate(541.511719 0)"/>
     </g>
    </g>
    <g clip-path="url(#pd0684e59ac)">
     <!-- matters to me -->
     <g transform="translate(174.985814 354.937085) scale(0.11 -0.11)">
      <use xlink:href="#DejaVuSans-6d"/>
      <use xlink:href="#DejaVuSans-61" transform="translate(97.412109 0)"/>
      <use xlink:href="#DejaVuSans-74" transform="translate(158.691406 0)"/>
      <use xlink:href="#DejaVuSans-74" transform="translate(197.900391 0)"/>
      <use xlink:href="#DejaVuSans-65" transform="translate(237.109375 0)"/>
      <use xlink:href="#DejaVuSans-72" transform="translate(298.632812 0)"/>
      <use xlink:href="#DejaVuSans-73" transform="translate(339.746094 0)"/>
      <use xlink:href="#DejaVuSans-20" transform="translate(391.845703 0)"/>
      <use xlink:href="#DejaVuSans-74" transform="translate(423.632812 0)"/>
      <use xlink:href="#DejaVuSans-6f" transform="translate(462.841797 0)"/>
      <use xlink:href="#DejaVuSans-20" transform="translate(524.023438 0)"/>
      <use xlink:href="#DejaVuSans-6d" transform="translate(555.810547 0)"/>
      <use xlink:href="#DejaVuSans-65" transform="translate(653.222656 0)"/>
     </g>
    </g>
   </g>
   <g id="text_10">
    <g clip-path="url(#pd0684e59ac)">
     <!-- I seek alternative -->
     <g transform="translate(177.766675 180.012655) scale(0.11 -0.11)">
      <use xlink:href="#DejaVuSans-49"/>
      <use xlink:href="#DejaVuSans-20" transform="translate(29.492188 0)"/>
      <use xlink:href="#DejaVuSans-73" transform="translate(61.279297 0)"/>
      <use xlink:href="#DejaVuSans-65" transform="translate(113.378906 0)"/>
      <use xlink:href="#DejaVuSans-65" transform="translate(174.902344 0)"/>
      <use xlink:href="#DejaVuSans-6b" transform="translate(236.425781 0)"/>
      <use xlink:href="#DejaVuSans-20" transform="translate(294.335938 0)"/>
      <use xlink:href="#DejaVuSans-61" transform="translate(326.123047 0)"/>
      <use xlink:href="#DejaVuSans-6c" transform="translate(387.402344 0)"/>
      <use xlink:href="#DejaVuSans-74" transform="translate(415.185547 0)"/>
      <use xlink:href="#DejaVuSans-65" transform="translate(454.394531 0)"/>
      <use xlink:href="#DejaVuSans-72" transform="translate(515.917969 0)"/>
      <use xlink:href="#DejaVuSans-6e" transform="translate(555.28125 0)"/>
      <use xlink:href="#DejaVuSans-61" transform="translate(618.660156 0)"/>
      <use xlink:href="#DejaVuSans-74" transform="translate(679.939453 0)"/>
      <use xlink:href="#DejaVuSans-69" transform="translate(719.148438 0)"/>
      <use xlink:href="#DejaVuSans-76" transform="translate(746.931641 0)"/>
      <use xlink:href="#DejaVuSans-65" transform="translate(806.111328 0)"/>
     </g>
    </g>
    <g clip-path="url(#pd0684e59ac)">
     <!-- protein sources -->
     <g transform="translate(183.063862 192.330248) scale(0.11 -0.11)">
      <use xlink:href="#DejaVuSans-70"/>
      <use xlink:href="#DejaVuSans-72" transform="translate(63.476562 0)"/>
      <use xlink:href="#DejaVuSans-6f" transform="translate(102.339844 0)"/>
      <use xlink:href="#DejaVuSans-74" transform="translate(163.521484 0)"/>
      <use xlink:href="#DejaVuSans-65" transform="translate(202.730469 0)"/>
      <use xlink:href="#DejaVuSans-69" transform="translate(264.253906 0)"/>
      <use xlink:href="#DejaVuSans-6e" transform="translate(292.037109 0)"/>
      <use xlink:href="#DejaVuSans-20" transform="translate(355.416016 0)"/>
      <use xlink:href="#DejaVuSans-73" transform="translate(387.203125 0)"/>
      <use xlink:href="#DejaVuSans-6f" transform="translate(439.302734 0)"/>
      <use xlink:href="#DejaVuSans-75" transform="translate(500.484375 0)"/>
      <use xlink:href="#DejaVuSans-72" transform="translate(563.863281 0)"/>
      <use xlink:href="#DejaVuSans-63" transform="translate(602.726562 0)"/>
      <use xlink:href="#DejaVuSans-65" transform="translate(657.707031 0)"/>
      <use xlink:href="#DejaVuSans-73" transform="translate(719.230469 0)"/>
     </g>
    </g>
   </g>
   <g id="text_11">
    <!-- Wave 1 -->
    <g transform="translate(214.829375 41.789716) scale(0.2 -0.2)">
     <defs>
      <path id="DejaVuSans-57" d="M 213 4666 
L 850 4666 
L 1831 722 
L 2809 4666 
L 3519 4666 
L 4500 722 
L 5478 4666 
L 6119 4666 
L 4947 0 
L 4153 0 
L 3169 4050 
L 2175 0 
L 1381 0 
L 213 4666 
z
" transform="scale(0.015625)"/>
      <path id="DejaVuSans-31" d="M 794 531 
L 1825 531 
L 1825 4091 
L 703 3866 
L 703 4441 
L 1819 4666 
L 2450 4666 
L 2450 531 
L 3481 531 
L 3481 0 
L 794 0 
L 794 531 
z
" transform="scale(0.015625)"/>
     </defs>
     <use xlink:href="#DejaVuSans-57"/>
     <use xlink:href="#DejaVuSans-61" transform="translate(92.501953 0)"/>
     <use xlink:href="#DejaVuSans-76" transform="translate(153.78125 0)"/>
     <use xlink:href="#DejaVuSans-65" transform="translate(212.960938 0)"/>
     <use xlink:href="#DejaVuSans-20" transform="translate(274.484375 0)"/>
     <use xlink:href="#DejaVuSans-31" transform="translate(306.271484 0)"/>
    </g>
   </g>
  </g>
  <g id="axes_2">
   <g id="patch_3">
    <path d="M 557.859273 477.153455 
L 942.980727 477.153455 
L 942.980727 59.115636 
L 557.859273 59.115636 
L 557.859273 477.153455 
z
" clip-path="url(#pad04ede4cf)" style="fill: none; stroke: #000000; stroke-width: 2.5; stroke-linejoin: miter"/>
   </g>
   <g id="LineCollection_2">
    <path d="M 686.562255 362.491359 
L 794.527927 386.191141 
" clip-path="url(#pad04ede4cf)" style="fill: none; stroke: #998ec3; stroke-width: 5.5"/>
    <path d="M 686.562255 362.491359 
L 721.4536 220.950995 
" clip-path="url(#pad04ede4cf)" style="fill: none; stroke: #f1a340; stroke-width: 5.5"/>
    <path d="M 686.562255 362.491359 
L 604.929673 276.908814 
" clip-path="url(#pad04ede4cf)" style="fill: none; stroke: #f1a340; stroke-width: 5.5"/>
    <path d="M 606.246327 160.384886 
L 853.777382 312.458486 
" clip-path="url(#pad04ede4cf)" style="fill: none; stroke: #998ec3; stroke-width: 5.5"/>
    <path d="M 606.246327 160.384886 
L 721.4536 220.950995 
" clip-path="url(#pad04ede4cf)" style="fill: none; stroke: #f1a340; stroke-width: 5.5"/>
    <path d="M 606.246327 160.384886 
L 799.794545 136.685105 
" clip-path="url(#pad04ede4cf)" style="fill: none; stroke: #f1a340; stroke-width: 5.5"/>
    <path d="M 721.4536 220.950995 
L 751.078327 284.808741 
" clip-path="url(#pad04ede4cf)" style="fill: none; stroke: #998ec3; stroke-width: 5.5"/>
    <path d="M 721.4536 220.950995 
L 604.929673 276.908814 
" clip-path="url(#pad04ede4cf)" style="fill: none; stroke: #998ec3; stroke-width: 5.5"/>
    <path d="M 721.4536 220.950995 
L 853.777382 312.458486 
" clip-path="url(#pad04ede4cf)" style="fill: none; stroke: #f1a340; stroke-width: 5.5"/>
    <path d="M 799.794545 136.685105 
L 868.260582 249.917395 
" clip-path="url(#pad04ede4cf)" style="fill: none; stroke: #998ec3; stroke-width: 5.5"/>
    <path d="M 604.929673 276.908814 
L 875.502182 156.434923 
" clip-path="url(#pad04ede4cf)" style="fill: none; stroke: #f1a340; stroke-width: 5.5"/>
   </g>
   <g id="PathCollection_2">
    <g clip-path="url(#pad04ede4cf)">
     <use xlink:href="#ma836165e74" x="686.562255" y="362.491359" style="fill: #8cc7ca; stroke: #111111; stroke-width: 1.5"/>
     <use xlink:href="#ma836165e74" x="606.246327" y="160.384886" style="fill: #8cc7ca; stroke: #111111; stroke-width: 1.5"/>
     <use xlink:href="#ma836165e74" x="721.4536" y="220.950995" style="fill: #8cc7ca; stroke: #111111; stroke-width: 1.5"/>
     <use xlink:href="#ma836165e74" x="799.794545" y="136.685105" style="fill: #8cc7ca; stroke: #111111; stroke-width: 1.5"/>
     <use xlink:href="#ma836165e74" x="868.260582" y="249.917395" style="fill: #8cc7ca; stroke: #111111; stroke-width: 1.5"/>
     <use xlink:href="#ma836165e74" x="604.929673" y="276.908814" style="fill: #8cc7ca; stroke: #111111; stroke-width: 1.5"/>
     <use xlink:href="#ma836165e74" x="751.078327" y="284.808741" style="fill: #8cc7ca; stroke: #111111; stroke-width: 1.5"/>
     <use xlink:href="#ma836165e74" x="875.502182" y="156.434923" style="fill: #8cc7ca; stroke: #111111; stroke-width: 1.5"/>
     <use xlink:href="#ma836165e74" x="853.777382" y="312.458486" style="fill: #8cc7ca; stroke: #111111; stroke-width: 1.5"/>
     <use xlink:href="#ma836165e74" x="794.527927" y="386.191141" style="fill: #8cc7ca; stroke: #111111; stroke-width: 1.5"/>
    </g>
   </g>
   <g id="text_12">
    <g clip-path="url(#pad04ede4cf)">
     <!-- I do not eat pork -->
     <g transform="translate(640.870145 344.403848) scale(0.11 -0.11)">
      <use xlink:href="#DejaVuSans-49"/>
      <use xlink:href="#DejaVuSans-20" transform="translate(29.492188 0)"/>
      <use xlink:href="#DejaVuSans-64" transform="translate(61.279297 0)"/>
      <use xlink:href="#DejaVuSans-6f" transform="translate(124.755859 0)"/>
      <use xlink:href="#DejaVuSans-20" transform="translate(185.9375 0)"/>
      <use xlink:href="#DejaVuSans-6e" transform="translate(217.724609 0)"/>
      <use xlink:href="#DejaVuSans-6f" transform="translate(281.103516 0)"/>
      <use xlink:href="#DejaVuSans-74" transform="translate(342.285156 0)"/>
      <use xlink:href="#DejaVuSans-20" transform="translate(381.494141 0)"/>
      <use xlink:href="#DejaVuSans-65" transform="translate(413.28125 0)"/>
      <use xlink:href="#DejaVuSans-61" transform="translate(474.804688 0)"/>
      <use xlink:href="#DejaVuSans-74" transform="translate(536.083984 0)"/>
      <use xlink:href="#DejaVuSans-20" transform="translate(575.292969 0)"/>
      <use xlink:href="#DejaVuSans-70" transform="translate(607.080078 0)"/>
      <use xlink:href="#DejaVuSans-6f" transform="translate(670.556641 0)"/>
      <use xlink:href="#DejaVuSans-72" transform="translate(731.738281 0)"/>
      <use xlink:href="#DejaVuSans-6b" transform="translate(772.851562 0)"/>
     </g>
    </g>
   </g>
   <g id="text_13">
    <g clip-path="url(#pad04ede4cf)">
     <!-- Meat alternatives -->
     <g transform="translate(558.193515 117.662188) scale(0.11 -0.11)">
      <defs>
       <path id="DejaVuSans-4d" d="M 628 4666 
L 1569 4666 
L 2759 1491 
L 3956 4666 
L 4897 4666 
L 4897 0 
L 4281 0 
L 4281 4097 
L 3078 897 
L 2444 897 
L 1241 4097 
L 1241 0 
L 628 0 
L 628 4666 
z
" transform="scale(0.015625)"/>
      </defs>
      <use xlink:href="#DejaVuSans-4d"/>
      <use xlink:href="#DejaVuSans-65" transform="translate(86.279297 0)"/>
      <use xlink:href="#DejaVuSans-61" transform="translate(147.802734 0)"/>
      <use xlink:href="#DejaVuSans-74" transform="translate(209.082031 0)"/>
      <use xlink:href="#DejaVuSans-20" transform="translate(248.291016 0)"/>
      <use xlink:href="#DejaVuSans-61" transform="translate(280.078125 0)"/>
      <use xlink:href="#DejaVuSans-6c" transform="translate(341.357422 0)"/>
      <use xlink:href="#DejaVuSans-74" transform="translate(369.140625 0)"/>
      <use xlink:href="#DejaVuSans-65" transform="translate(408.349609 0)"/>
      <use xlink:href="#DejaVuSans-72" transform="translate(469.873047 0)"/>
      <use xlink:href="#DejaVuSans-6e" transform="translate(509.236328 0)"/>
      <use xlink:href="#DejaVuSans-61" transform="translate(572.615234 0)"/>
      <use xlink:href="#DejaVuSans-74" transform="translate(633.894531 0)"/>
      <use xlink:href="#DejaVuSans-69" transform="translate(673.103516 0)"/>
      <use xlink:href="#DejaVuSans-76" transform="translate(700.886719 0)"/>
      <use xlink:href="#DejaVuSans-65" transform="translate(760.066406 0)"/>
      <use xlink:href="#DejaVuSans-73" transform="translate(821.589844 0)"/>
     </g>
    </g>
    <g clip-path="url(#pad04ede4cf)">
     <!-- are too high in -->
     <g transform="translate(566.219218 129.979782) scale(0.11 -0.11)">
      <use xlink:href="#DejaVuSans-61"/>
      <use xlink:href="#DejaVuSans-72" transform="translate(61.279297 0)"/>
      <use xlink:href="#DejaVuSans-65" transform="translate(100.142578 0)"/>
      <use xlink:href="#DejaVuSans-20" transform="translate(161.666016 0)"/>
      <use xlink:href="#DejaVuSans-74" transform="translate(193.453125 0)"/>
      <use xlink:href="#DejaVuSans-6f" transform="translate(232.662109 0)"/>
      <use xlink:href="#DejaVuSans-6f" transform="translate(293.84375 0)"/>
      <use xlink:href="#DejaVuSans-20" transform="translate(355.025391 0)"/>
      <use xlink:href="#DejaVuSans-68" transform="translate(386.8125 0)"/>
      <use xlink:href="#DejaVuSans-69" transform="translate(450.191406 0)"/>
      <use xlink:href="#DejaVuSans-67" transform="translate(477.974609 0)"/>
      <use xlink:href="#DejaVuSans-68" transform="translate(541.451172 0)"/>
      <use xlink:href="#DejaVuSans-20" transform="translate(604.830078 0)"/>
      <use xlink:href="#DejaVuSans-69" transform="translate(636.617188 0)"/>
      <use xlink:href="#DejaVuSans-6e" transform="translate(664.400391 0)"/>
     </g>
    </g>
    <g clip-path="url(#pad04ede4cf)">
     <!-- carbs or fat -->
     <g transform="translate(574.648827 142.297376) scale(0.11 -0.11)">
      <use xlink:href="#DejaVuSans-63"/>
      <use xlink:href="#DejaVuSans-61" transform="translate(54.980469 0)"/>
      <use xlink:href="#DejaVuSans-72" transform="translate(116.259766 0)"/>
      <use xlink:href="#DejaVuSans-62" transform="translate(157.373047 0)"/>
      <use xlink:href="#DejaVuSans-73" transform="translate(220.849609 0)"/>
      <use xlink:href="#DejaVuSans-20" transform="translate(272.949219 0)"/>
      <use xlink:href="#DejaVuSans-6f" transform="translate(304.736328 0)"/>
      <use xlink:href="#DejaVuSans-72" transform="translate(365.917969 0)"/>
      <use xlink:href="#DejaVuSans-20" transform="translate(407.03125 0)"/>
      <use xlink:href="#DejaVuSans-66" transform="translate(438.818359 0)"/>
      <use xlink:href="#DejaVuSans-61" transform="translate(474.023438 0)"/>
      <use xlink:href="#DejaVuSans-74" transform="translate(535.302734 0)"/>
     </g>
    </g>
   </g>
   <g id="text_14">
    <g clip-path="url(#pad04ede4cf)">
     <!-- I want to get -->
     <g transform="translate(686.523444 190.545891) scale(0.11 -0.11)">
      <use xlink:href="#DejaVuSans-49"/>
      <use xlink:href="#DejaVuSans-20" transform="translate(29.492188 0)"/>
      <use xlink:href="#DejaVuSans-77" transform="translate(61.279297 0)"/>
      <use xlink:href="#DejaVuSans-61" transform="translate(143.066406 0)"/>
      <use xlink:href="#DejaVuSans-6e" transform="translate(204.345703 0)"/>
      <use xlink:href="#DejaVuSans-74" transform="translate(267.724609 0)"/>
      <use xlink:href="#DejaVuSans-20" transform="translate(306.933594 0)"/>
      <use xlink:href="#DejaVuSans-74" transform="translate(338.720703 0)"/>
      <use xlink:href="#DejaVuSans-6f" transform="translate(377.929688 0)"/>
      <use xlink:href="#DejaVuSans-20" transform="translate(439.111328 0)"/>
      <use xlink:href="#DejaVuSans-67" transform="translate(470.898438 0)"/>
      <use xlink:href="#DejaVuSans-65" transform="translate(534.375 0)"/>
      <use xlink:href="#DejaVuSans-74" transform="translate(595.898438 0)"/>
     </g>
    </g>
    <g clip-path="url(#pad04ede4cf)">
     <!-- enough protein -->
     <g transform="translate(679.459381 202.863485) scale(0.11 -0.11)">
      <use xlink:href="#DejaVuSans-65"/>
      <use xlink:href="#DejaVuSans-6e" transform="translate(61.523438 0)"/>
      <use xlink:href="#DejaVuSans-6f" transform="translate(124.902344 0)"/>
      <use xlink:href="#DejaVuSans-75" transform="translate(186.083984 0)"/>
      <use xlink:href="#DejaVuSans-67" transform="translate(249.462891 0)"/>
      <use xlink:href="#DejaVuSans-68" transform="translate(312.939453 0)"/>
      <use xlink:href="#DejaVuSans-20" transform="translate(376.318359 0)"/>
      <use xlink:href="#DejaVuSans-70" transform="translate(408.105469 0)"/>
      <use xlink:href="#DejaVuSans-72" transform="translate(471.582031 0)"/>
      <use xlink:href="#DejaVuSans-6f" transform="translate(510.445312 0)"/>
      <use xlink:href="#DejaVuSans-74" transform="translate(571.626953 0)"/>
      <use xlink:href="#DejaVuSans-65" transform="translate(610.835938 0)"/>
      <use xlink:href="#DejaVuSans-69" transform="translate(672.359375 0)"/>
      <use xlink:href="#DejaVuSans-6e" transform="translate(700.142578 0)"/>
     </g>
    </g>
   </g>
   <g id="text_15">
    <g clip-path="url(#pad04ede4cf)">
     <!-- My family is -->
     <g transform="translate(766.929467 93.962406) scale(0.11 -0.11)">
      <use xlink:href="#DejaVuSans-4d"/>
      <use xlink:href="#DejaVuSans-79" transform="translate(86.279297 0)"/>
      <use xlink:href="#DejaVuSans-20" transform="translate(145.458984 0)"/>
      <use xlink:href="#DejaVuSans-66" transform="translate(177.246094 0)"/>
      <use xlink:href="#DejaVuSans-61" transform="translate(212.451172 0)"/>
      <use xlink:href="#DejaVuSans-6d" transform="translate(273.730469 0)"/>
      <use xlink:href="#DejaVuSans-69" transform="translate(371.142578 0)"/>
      <use xlink:href="#DejaVuSans-6c" transform="translate(398.925781 0)"/>
      <use xlink:href="#DejaVuSans-79" transform="translate(426.708984 0)"/>
      <use xlink:href="#DejaVuSans-20" transform="translate(485.888672 0)"/>
      <use xlink:href="#DejaVuSans-69" transform="translate(517.675781 0)"/>
      <use xlink:href="#DejaVuSans-73" transform="translate(545.458984 0)"/>
     </g>
    </g>
    <g clip-path="url(#pad04ede4cf)">
     <!-- reducing meat for -->
     <g transform="translate(750.43978 106.28) scale(0.11 -0.11)">
      <use xlink:href="#DejaVuSans-72"/>
      <use xlink:href="#DejaVuSans-65" transform="translate(38.863281 0)"/>
      <use xlink:href="#DejaVuSans-64" transform="translate(100.386719 0)"/>
      <use xlink:href="#DejaVuSans-75" transform="translate(163.863281 0)"/>
      <use xlink:href="#DejaVuSans-63" transform="translate(227.242188 0)"/>
      <use xlink:href="#DejaVuSans-69" transform="translate(282.222656 0)"/>
      <use xlink:href="#DejaVuSans-6e" transform="translate(310.005859 0)"/>
      <use xlink:href="#DejaVuSans-67" transform="translate(373.384766 0)"/>
      <use xlink:href="#DejaVuSans-20" transform="translate(436.861328 0)"/>
      <use xlink:href="#DejaVuSans-6d" transform="translate(468.648438 0)"/>
      <use xlink:href="#DejaVuSans-65" transform="translate(566.060547 0)"/>
      <use xlink:href="#DejaVuSans-61" transform="translate(627.583984 0)"/>
      <use xlink:href="#DejaVuSans-74" transform="translate(688.863281 0)"/>
      <use xlink:href="#DejaVuSans-20" transform="translate(728.072266 0)"/>
      <use xlink:href="#DejaVuSans-66" transform="translate(759.859375 0)"/>
      <use xlink:href="#DejaVuSans-6f" transform="translate(795.064453 0)"/>
      <use xlink:href="#DejaVuSans-72" transform="translate(856.246094 0)"/>
     </g>
    </g>
    <g clip-path="url(#pad04ede4cf)">
     <!-- health -->
     <g transform="translate(782.384467 118.597594) scale(0.11 -0.11)">
      <use xlink:href="#DejaVuSans-68"/>
      <use xlink:href="#DejaVuSans-65" transform="translate(63.378906 0)"/>
      <use xlink:href="#DejaVuSans-61" transform="translate(124.902344 0)"/>
      <use xlink:href="#DejaVuSans-6c" transform="translate(186.181641 0)"/>
      <use xlink:href="#DejaVuSans-74" transform="translate(213.964844 0)"/>
      <use xlink:href="#DejaVuSans-68" transform="translate(253.173828 0)"/>
     </g>
    </g>
   </g>
   <g id="text_16">
    <g clip-path="url(#pad04ede4cf)">
     <!-- Family finds meat -->
     <g transform="translate(819.489332 207.194697) scale(0.11 -0.11)">
      <defs>
       <path id="DejaVuSans-46" d="M 628 4666 
L 3309 4666 
L 3309 4134 
L 1259 4134 
L 1259 2759 
L 3109 2759 
L 3109 2228 
L 1259 2228 
L 1259 0 
L 628 0 
L 628 4666 
z
" transform="scale(0.015625)"/>
      </defs>
      <use xlink:href="#DejaVuSans-46"/>
      <use xlink:href="#DejaVuSans-61" transform="translate(48.394531 0)"/>
      <use xlink:href="#DejaVuSans-6d" transform="translate(109.673828 0)"/>
      <use xlink:href="#DejaVuSans-69" transform="translate(207.085938 0)"/>
      <use xlink:href="#DejaVuSans-6c" transform="translate(234.869141 0)"/>
      <use xlink:href="#DejaVuSans-79" transform="translate(262.652344 0)"/>
      <use xlink:href="#DejaVuSans-20" transform="translate(321.832031 0)"/>
      <use xlink:href="#DejaVuSans-66" transform="translate(353.619141 0)"/>
      <use xlink:href="#DejaVuSans-69" transform="translate(388.824219 0)"/>
      <use xlink:href="#DejaVuSans-6e" transform="translate(416.607422 0)"/>
      <use xlink:href="#DejaVuSans-64" transform="translate(479.986328 0)"/>
      <use xlink:href="#DejaVuSans-73" transform="translate(543.462891 0)"/>
      <use xlink:href="#DejaVuSans-20" transform="translate(595.5625 0)"/>
      <use xlink:href="#DejaVuSans-6d" transform="translate(627.349609 0)"/>
      <use xlink:href="#DejaVuSans-65" transform="translate(724.761719 0)"/>
      <use xlink:href="#DejaVuSans-61" transform="translate(786.285156 0)"/>
      <use xlink:href="#DejaVuSans-74" transform="translate(847.564453 0)"/>
     </g>
    </g>
    <g clip-path="url(#pad04ede4cf)">
     <!-- heavy or hard to -->
     <g transform="translate(822.605426 219.512291) scale(0.11 -0.11)">
      <use xlink:href="#DejaVuSans-68"/>
      <use xlink:href="#DejaVuSans-65" transform="translate(63.378906 0)"/>
      <use xlink:href="#DejaVuSans-61" transform="translate(124.902344 0)"/>
      <use xlink:href="#DejaVuSans-76" transform="translate(186.181641 0)"/>
      <use xlink:href="#DejaVuSans-79" transform="translate(245.361328 0)"/>
      <use xlink:href="#DejaVuSans-20" transform="translate(304.541016 0)"/>
      <use xlink:href="#DejaVuSans-6f" transform="translate(336.328125 0)"/>
      <use xlink:href="#DejaVuSans-72" transform="translate(397.509766 0)"/>
      <use xlink:href="#DejaVuSans-20" transform="translate(438.623047 0)"/>
      <use xlink:href="#DejaVuSans-68" transform="translate(470.410156 0)"/>
      <use xlink:href="#DejaVuSans-61" transform="translate(533.789062 0)"/>
      <use xlink:href="#DejaVuSans-72" transform="translate(595.068359 0)"/>
      <use xlink:href="#DejaVuSans-64" transform="translate(634.431641 0)"/>
      <use xlink:href="#DejaVuSans-20" transform="translate(697.908203 0)"/>
      <use xlink:href="#DejaVuSans-74" transform="translate(729.695312 0)"/>
      <use xlink:href="#DejaVuSans-6f" transform="translate(768.904297 0)"/>
     </g>
    </g>
    <g clip-path="url(#pad04ede4cf)">
     <!-- digest -->
     <g transform="translate(851.343785 231.829885) scale(0.11 -0.11)">
      <use xlink:href="#DejaVuSans-64"/>
      <use xlink:href="#DejaVuSans-69" transform="translate(63.476562 0)"/>
      <use xlink:href="#DejaVuSans-67" transform="translate(91.259766 0)"/>
      <use xlink:href="#DejaVuSans-65" transform="translate(154.736328 0)"/>
      <use xlink:href="#DejaVuSans-73" transform="translate(216.259766 0)"/>
      <use xlink:href="#DejaVuSans-74" transform="translate(268.359375 0)"/>
     </g>
    </g>
   </g>
   <g id="text_17">
    <g clip-path="url(#pad04ede4cf)">
     <!-- I eat a lot of -->
     <g transform="translate(571.683032 246.503709) scale(0.11 -0.11)">
      <use xlink:href="#DejaVuSans-49"/>
      <use xlink:href="#DejaVuSans-20" transform="translate(29.492188 0)"/>
      <use xlink:href="#DejaVuSans-65" transform="translate(61.279297 0)"/>
      <use xlink:href="#DejaVuSans-61" transform="translate(122.802734 0)"/>
      <use xlink:href="#DejaVuSans-74" transform="translate(184.082031 0)"/>
      <use xlink:href="#DejaVuSans-20" transform="translate(223.291016 0)"/>
      <use xlink:href="#DejaVuSans-61" transform="translate(255.078125 0)"/>
      <use xlink:href="#DejaVuSans-20" transform="translate(316.357422 0)"/>
      <use xlink:href="#DejaVuSans-6c" transform="translate(348.144531 0)"/>
      <use xlink:href="#DejaVuSans-6f" transform="translate(375.927734 0)"/>
      <use xlink:href="#DejaVuSans-74" transform="translate(437.109375 0)"/>
      <use xlink:href="#DejaVuSans-20" transform="translate(476.318359 0)"/>
      <use xlink:href="#DejaVuSans-6f" transform="translate(508.105469 0)"/>
      <use xlink:href="#DejaVuSans-66" transform="translate(569.287109 0)"/>
     </g>
    </g>
    <g clip-path="url(#pad04ede4cf)">
     <!-- meat daily -->
     <g transform="translate(575.740141 258.821303) scale(0.11 -0.11)">
      <use xlink:href="#DejaVuSans-6d"/>
      <use xlink:href="#DejaVuSans-65" transform="translate(97.412109 0)"/>
      <use xlink:href="#DejaVuSans-61" transform="translate(158.935547 0)"/>
      <use xlink:href="#DejaVuSans-74" transform="translate(220.214844 0)"/>
      <use xlink:href="#DejaVuSans-20" transform="translate(259.423828 0)"/>
      <use xlink:href="#DejaVuSans-64" transform="translate(291.210938 0)"/>
      <use xlink:href="#DejaVuSans-61" transform="translate(354.6875 0)"/>
      <use xlink:href="#DejaVuSans-69" transform="translate(415.966797 0)"/>
      <use xlink:href="#DejaVuSans-6c" transform="translate(443.75 0)"/>
      <use xlink:href="#DejaVuSans-79" transform="translate(471.533203 0)"/>
     </g>
    </g>
   </g>
   <g id="text_18">
    <g clip-path="url(#pad04ede4cf)">
     <!-- I work out -->
     <g transform="translate(723.64364 254.403636) scale(0.11 -0.11)">
      <use xlink:href="#DejaVuSans-49"/>
      <use xlink:href="#DejaVuSans-20" transform="translate(29.492188 0)"/>
      <use xlink:href="#DejaVuSans-77" transform="translate(61.279297 0)"/>
      <use xlink:href="#DejaVuSans-6f" transform="translate(143.066406 0)"/>
      <use xlink:href="#DejaVuSans-72" transform="translate(204.248047 0)"/>
      <use xlink:href="#DejaVuSans-6b" transform="translate(245.361328 0)"/>
      <use xlink:href="#DejaVuSans-20" transform="translate(303.271484 0)"/>
      <use xlink:href="#DejaVuSans-6f" transform="translate(335.058594 0)"/>
      <use xlink:href="#DejaVuSans-75" transform="translate(396.240234 0)"/>
      <use xlink:href="#DejaVuSans-74" transform="translate(459.619141 0)"/>
     </g>
    </g>
    <g clip-path="url(#pad04ede4cf)">
     <!-- frequently -->
     <g transform="translate(722.834109 266.72123) scale(0.11 -0.11)">
      <defs>
       <path id="DejaVuSans-71" d="M 947 1747 
Q 947 1113 1208 752 
Q 1469 391 1925 391 
Q 2381 391 2643 752 
Q 2906 1113 2906 1747 
Q 2906 2381 2643 2742 
Q 2381 3103 1925 3103 
Q 1469 3103 1208 2742 
Q 947 2381 947 1747 
z
M 2906 525 
Q 2725 213 2448 61 
Q 2172 -91 1784 -91 
Q 1150 -91 751 415 
Q 353 922 353 1747 
Q 353 2572 751 3078 
Q 1150 3584 1784 3584 
Q 2172 3584 2448 3432 
Q 2725 3281 2906 2969 
L 2906 3500 
L 3481 3500 
L 3481 -1331 
L 2906 -1331 
L 2906 525 
z
" transform="scale(0.015625)"/>
      </defs>
      <use xlink:href="#DejaVuSans-66"/>
      <use xlink:href="#DejaVuSans-72" transform="translate(35.205078 0)"/>
      <use xlink:href="#DejaVuSans-65" transform="translate(74.068359 0)"/>
      <use xlink:href="#DejaVuSans-71" transform="translate(135.591797 0)"/>
      <use xlink:href="#DejaVuSans-75" transform="translate(199.068359 0)"/>
      <use xlink:href="#DejaVuSans-65" transform="translate(262.447266 0)"/>
      <use xlink:href="#DejaVuSans-6e" transform="translate(323.970703 0)"/>
      <use xlink:href="#DejaVuSans-74" transform="translate(387.349609 0)"/>
      <use xlink:href="#DejaVuSans-6c" transform="translate(426.558594 0)"/>
      <use xlink:href="#DejaVuSans-79" transform="translate(454.341797 0)"/>
     </g>
    </g>
   </g>
   <g id="text_19">
    <g clip-path="url(#pad04ede4cf)">
     <!-- I am searching for -->
     <g transform="translate(825.573354 126.029818) scale(0.11 -0.11)">
      <use xlink:href="#DejaVuSans-49"/>
      <use xlink:href="#DejaVuSans-20" transform="translate(29.492188 0)"/>
      <use xlink:href="#DejaVuSans-61" transform="translate(61.279297 0)"/>
      <use xlink:href="#DejaVuSans-6d" transform="translate(122.558594 0)"/>
      <use xlink:href="#DejaVuSans-20" transform="translate(219.970703 0)"/>
      <use xlink:href="#DejaVuSans-73" transform="translate(251.757812 0)"/>
      <use xlink:href="#DejaVuSans-65" transform="translate(303.857422 0)"/>
      <use xlink:href="#DejaVuSans-61" transform="translate(365.380859 0)"/>
      <use xlink:href="#DejaVuSans-72" transform="translate(426.660156 0)"/>
      <use xlink:href="#DejaVuSans-63" transform="translate(465.523438 0)"/>
      <use xlink:href="#DejaVuSans-68" transform="translate(520.503906 0)"/>
      <use xlink:href="#DejaVuSans-69" transform="translate(583.882812 0)"/>
      <use xlink:href="#DejaVuSans-6e" transform="translate(611.666016 0)"/>
      <use xlink:href="#DejaVuSans-67" transform="translate(675.044922 0)"/>
      <use xlink:href="#DejaVuSans-20" transform="translate(738.521484 0)"/>
      <use xlink:href="#DejaVuSans-66" transform="translate(770.308594 0)"/>
      <use xlink:href="#DejaVuSans-6f" transform="translate(805.513672 0)"/>
      <use xlink:href="#DejaVuSans-72" transform="translate(866.695312 0)"/>
     </g>
    </g>
    <g clip-path="url(#pad04ede4cf)">
     <!-- meat alternatives -->
     <g transform="translate(826.837494 138.347412) scale(0.11 -0.11)">
      <use xlink:href="#DejaVuSans-6d"/>
      <use xlink:href="#DejaVuSans-65" transform="translate(97.412109 0)"/>
      <use xlink:href="#DejaVuSans-61" transform="translate(158.935547 0)"/>
      <use xlink:href="#DejaVuSans-74" transform="translate(220.214844 0)"/>
      <use xlink:href="#DejaVuSans-20" transform="translate(259.423828 0)"/>
      <use xlink:href="#DejaVuSans-61" transform="translate(291.210938 0)"/>
      <use xlink:href="#DejaVuSans-6c" transform="translate(352.490234 0)"/>
      <use xlink:href="#DejaVuSans-74" transform="translate(380.273438 0)"/>
      <use xlink:href="#DejaVuSans-65" transform="translate(419.482422 0)"/>
      <use xlink:href="#DejaVuSans-72" transform="translate(481.005859 0)"/>
      <use xlink:href="#DejaVuSans-6e" transform="translate(520.369141 0)"/>
      <use xlink:href="#DejaVuSans-61" transform="translate(583.748047 0)"/>
      <use xlink:href="#DejaVuSans-74" transform="translate(645.027344 0)"/>
      <use xlink:href="#DejaVuSans-69" transform="translate(684.236328 0)"/>
      <use xlink:href="#DejaVuSans-76" transform="translate(712.019531 0)"/>
      <use xlink:href="#DejaVuSans-65" transform="translate(771.199219 0)"/>
      <use xlink:href="#DejaVuSans-73" transform="translate(832.722656 0)"/>
     </g>
    </g>
   </g>
   <g id="text_20">
    <g clip-path="url(#pad04ede4cf)">
     <!-- I have not found -->
     <g transform="translate(808.643866 269.735788) scale(0.11 -0.11)">
      <use xlink:href="#DejaVuSans-49"/>
      <use xlink:href="#DejaVuSans-20" transform="translate(29.492188 0)"/>
      <use xlink:href="#DejaVuSans-68" transform="translate(61.279297 0)"/>
      <use xlink:href="#DejaVuSans-61" transform="translate(124.658203 0)"/>
      <use xlink:href="#DejaVuSans-76" transform="translate(185.9375 0)"/>
      <use xlink:href="#DejaVuSans-65" transform="translate(245.117188 0)"/>
      <use xlink:href="#DejaVuSans-20" transform="translate(306.640625 0)"/>
      <use xlink:href="#DejaVuSans-6e" transform="translate(338.427734 0)"/>
      <use xlink:href="#DejaVuSans-6f" transform="translate(401.806641 0)"/>
      <use xlink:href="#DejaVuSans-74" transform="translate(462.988281 0)"/>
      <use xlink:href="#DejaVuSans-20" transform="translate(502.197266 0)"/>
      <use xlink:href="#DejaVuSans-66" transform="translate(533.984375 0)"/>
      <use xlink:href="#DejaVuSans-6f" transform="translate(569.189453 0)"/>
      <use xlink:href="#DejaVuSans-75" transform="translate(630.371094 0)"/>
      <use xlink:href="#DejaVuSans-6e" transform="translate(693.75 0)"/>
      <use xlink:href="#DejaVuSans-64" transform="translate(757.128906 0)"/>
     </g>
    </g>
    <g clip-path="url(#pad04ede4cf)">
     <!-- suitable non-meat -->
     <g transform="translate(803.631132 282.053382) scale(0.11 -0.11)">
      <defs>
       <path id="DejaVuSans-2d" d="M 313 2009 
L 1997 2009 
L 1997 1497 
L 313 1497 
L 313 2009 
z
" transform="scale(0.015625)"/>
      </defs>
      <use xlink:href="#DejaVuSans-73"/>
      <use xlink:href="#DejaVuSans-75" transform="translate(52.099609 0)"/>
      <use xlink:href="#DejaVuSans-69" transform="translate(115.478516 0)"/>
      <use xlink:href="#DejaVuSans-74" transform="translate(143.261719 0)"/>
      <use xlink:href="#DejaVuSans-61" transform="translate(182.470703 0)"/>
      <use xlink:href="#DejaVuSans-62" transform="translate(243.75 0)"/>
      <use xlink:href="#DejaVuSans-6c" transform="translate(307.226562 0)"/>
      <use xlink:href="#DejaVuSans-65" transform="translate(335.009766 0)"/>
      <use xlink:href="#DejaVuSans-20" transform="translate(396.533203 0)"/>
      <use xlink:href="#DejaVuSans-6e" transform="translate(428.320312 0)"/>
      <use xlink:href="#DejaVuSans-6f" transform="translate(491.699219 0)"/>
      <use xlink:href="#DejaVuSans-6e" transform="translate(552.880859 0)"/>
      <use xlink:href="#DejaVuSans-2d" transform="translate(616.259766 0)"/>
      <use xlink:href="#DejaVuSans-6d" transform="translate(652.34375 0)"/>
      <use xlink:href="#DejaVuSans-65" transform="translate(749.755859 0)"/>
      <use xlink:href="#DejaVuSans-61" transform="translate(811.279297 0)"/>
      <use xlink:href="#DejaVuSans-74" transform="translate(872.558594 0)"/>
     </g>
    </g>
    <g clip-path="url(#pad04ede4cf)">
     <!-- protein -->
     <g transform="translate(834.229179 294.370976) scale(0.11 -0.11)">
      <use xlink:href="#DejaVuSans-70"/>
      <use xlink:href="#DejaVuSans-72" transform="translate(63.476562 0)"/>
      <use xlink:href="#DejaVuSans-6f" transform="translate(102.339844 0)"/>
      <use xlink:href="#DejaVuSans-74" transform="translate(163.521484 0)"/>
      <use xlink:href="#DejaVuSans-65" transform="translate(202.730469 0)"/>
      <use xlink:href="#DejaVuSans-69" transform="translate(264.253906 0)"/>
      <use xlink:href="#DejaVuSans-6e" transform="translate(292.037109 0)"/>
     </g>
    </g>
   </g>
   <g id="text_21">
    <g clip-path="url(#pad04ede4cf)">
     <!-- Religious reasons -->
     <g transform="translate(746.556755 343.468443) scale(0.11 -0.11)">
      <defs>
       <path id="DejaVuSans-52" d="M 2841 2188 
Q 3044 2119 3236 1894 
Q 3428 1669 3622 1275 
L 4263 0 
L 3584 0 
L 2988 1197 
Q 2756 1666 2539 1819 
Q 2322 1972 1947 1972 
L 1259 1972 
L 1259 0 
L 628 0 
L 628 4666 
L 2053 4666 
Q 2853 4666 3247 4331 
Q 3641 3997 3641 3322 
Q 3641 2881 3436 2590 
Q 3231 2300 2841 2188 
z
M 1259 4147 
L 1259 2491 
L 2053 2491 
Q 2509 2491 2742 2702 
Q 2975 2913 2975 3322 
Q 2975 3731 2742 3939 
Q 2509 4147 2053 4147 
L 1259 4147 
z
" transform="scale(0.015625)"/>
      </defs>
      <use xlink:href="#DejaVuSans-52"/>
      <use xlink:href="#DejaVuSans-65" transform="translate(64.982422 0)"/>
      <use xlink:href="#DejaVuSans-6c" transform="translate(126.505859 0)"/>
      <use xlink:href="#DejaVuSans-69" transform="translate(154.289062 0)"/>
      <use xlink:href="#DejaVuSans-67" transform="translate(182.072266 0)"/>
      <use xlink:href="#DejaVuSans-69" transform="translate(245.548828 0)"/>
      <use xlink:href="#DejaVuSans-6f" transform="translate(273.332031 0)"/>
      <use xlink:href="#DejaVuSans-75" transform="translate(334.513672 0)"/>
      <use xlink:href="#DejaVuSans-73" transform="translate(397.892578 0)"/>
      <use xlink:href="#DejaVuSans-20" transform="translate(449.992188 0)"/>
      <use xlink:href="#DejaVuSans-72" transform="translate(481.779297 0)"/>
      <use xlink:href="#DejaVuSans-65" transform="translate(520.642578 0)"/>
      <use xlink:href="#DejaVuSans-61" transform="translate(582.166016 0)"/>
      <use xlink:href="#DejaVuSans-73" transform="translate(643.445312 0)"/>
      <use xlink:href="#DejaVuSans-6f" transform="translate(695.544922 0)"/>
      <use xlink:href="#DejaVuSans-6e" transform="translate(756.726562 0)"/>
      <use xlink:href="#DejaVuSans-73" transform="translate(820.105469 0)"/>
     </g>
    </g>
    <g clip-path="url(#pad04ede4cf)">
     <!-- influence my meat -->
     <g transform="translate(742.909568 355.786036) scale(0.11 -0.11)">
      <use xlink:href="#DejaVuSans-69"/>
      <use xlink:href="#DejaVuSans-6e" transform="translate(27.783203 0)"/>
      <use xlink:href="#DejaVuSans-66" transform="translate(91.162109 0)"/>
      <use xlink:href="#DejaVuSans-6c" transform="translate(126.367188 0)"/>
      <use xlink:href="#DejaVuSans-75" transform="translate(154.150391 0)"/>
      <use xlink:href="#DejaVuSans-65" transform="translate(217.529297 0)"/>
      <use xlink:href="#DejaVuSans-6e" transform="translate(279.052734 0)"/>
      <use xlink:href="#DejaVuSans-63" transform="translate(342.431641 0)"/>
      <use xlink:href="#DejaVuSans-65" transform="translate(397.412109 0)"/>
      <use xlink:href="#DejaVuSans-20" transform="translate(458.935547 0)"/>
      <use xlink:href="#DejaVuSans-6d" transform="translate(490.722656 0)"/>
      <use xlink:href="#DejaVuSans-79" transform="translate(588.134766 0)"/>
      <use xlink:href="#DejaVuSans-20" transform="translate(647.314453 0)"/>
      <use xlink:href="#DejaVuSans-6d" transform="translate(679.101562 0)"/>
      <use xlink:href="#DejaVuSans-65" transform="translate(776.513672 0)"/>
      <use xlink:href="#DejaVuSans-61" transform="translate(838.037109 0)"/>
      <use xlink:href="#DejaVuSans-74" transform="translate(899.316406 0)"/>
     </g>
    </g>
    <g clip-path="url(#pad04ede4cf)">
     <!-- choices -->
     <g transform="translate(773.851365 368.10363) scale(0.11 -0.11)">
      <use xlink:href="#DejaVuSans-63"/>
      <use xlink:href="#DejaVuSans-68" transform="translate(54.980469 0)"/>
      <use xlink:href="#DejaVuSans-6f" transform="translate(118.359375 0)"/>
      <use xlink:href="#DejaVuSans-69" transform="translate(179.541016 0)"/>
      <use xlink:href="#DejaVuSans-63" transform="translate(207.324219 0)"/>
      <use xlink:href="#DejaVuSans-65" transform="translate(262.304688 0)"/>
      <use xlink:href="#DejaVuSans-73" transform="translate(323.828125 0)"/>
     </g>
    </g>
   </g>
   <g id="text_22">
    <!-- Wave 2 -->
    <g transform="translate(713.429375 41.789716) scale(0.2 -0.2)">
     <defs>
      <path id="DejaVuSans-32" d="M 1228 531 
L 3431 531 
L 3431 0 
L 469 0 
L 469 531 
Q 828 903 1448 1529 
Q 2069 2156 2228 2338 
Q 2531 2678 2651 2914 
Q 2772 3150 2772 3378 
Q 2772 3750 2511 3984 
Q 2250 4219 1831 4219 
Q 1534 4219 1204 4116 
Q 875 4013 500 3803 
L 500 4441 
Q 881 4594 1212 4672 
Q 1544 4750 1819 4750 
Q 2544 4750 2975 4387 
Q 3406 4025 3406 3419 
Q 3406 3131 3298 2873 
Q 3191 2616 2906 2266 
Q 2828 2175 2409 1742 
Q 1991 1309 1228 531 
z
" transform="scale(0.015625)"/>
     </defs>
     <use xlink:href="#DejaVuSans-57"/>
     <use xlink:href="#DejaVuSans-61" transform="translate(92.501953 0)"/>
     <use xlink:href="#DejaVuSans-76" transform="translate(153.78125 0)"/>
     <use xlink:href="#DejaVuSans-65" transform="translate(212.960938 0)"/>
     <use xlink:href="#DejaVuSans-20" transform="translate(274.484375 0)"/>
     <use xlink:href="#DejaVuSans-32" transform="translate(306.271484 0)"/>
    </g>
   </g>
  </g>
  <g id="text_23">
   <!-- [81/210]  6e8cf4836e13dd9d -->
   <g transform="translate(7.2 14.038594) scale(0.09 -0.09)">
    <defs>
     <path id="DejaVuSans-5b" d="M 550 4863 
L 1875 4863 
L 1875 4416 
L 1125 4416 
L 1125 -397 
L 1875 -397 
L 1875 -844 
L 550 -844 
L 550 4863 
z
" transform="scale(0.015625)"/>
     <path id="DejaVuSans-38" d="M 2034 2216 
Q 1584 2216 1326 1975 
Q 1069 1734 1069 1313 
Q 1069 891 1326 650 
Q 1584 409 2034 409 
Q 2484 409 2743 651 
Q 3003 894 3003 1313 
Q 3003 1734 2745 1975 
Q 2488 2216 2034 2216 
z
M 1403 2484 
Q 997 2584 770 2862 
Q 544 3141 544 3541 
Q 544 4100 942 4425 
Q 1341 4750 2034 4750 
Q 2731 4750 3128 4425 
Q 3525 4100 3525 3541 
Q 3525 3141 3298 2862 
Q 3072 2584 2669 2484 
Q 3125 2378 3379 2068 
Q 3634 1759 3634 1313 
Q 3634 634 3220 271 
Q 2806 -91 2034 -91 
Q 1263 -91 848 271 
Q 434 634 434 1313 
Q 434 1759 690 2068 
Q 947 2378 1403 2484 
z
M 1172 3481 
Q 1172 3119 1398 2916 
Q 1625 2713 2034 2713 
Q 2441 2713 2670 2916 
Q 2900 3119 2900 3481 
Q 2900 3844 2670 4047 
Q 2441 4250 2034 4250 
Q 1625 4250 1398 4047 
Q 1172 3844 1172 3481 
z
" transform="scale(0.015625)"/>
     <path id="DejaVuSans-2f" d="M 1625 4666 
L 2156 4666 
L 531 -594 
L 0 -594 
L 1625 4666 
z
" transform="scale(0.015625)"/>
     <path id="DejaVuSans-30" d="M 2034 4250 
Q 1547 4250 1301 3770 
Q 1056 3291 1056 2328 
Q 1056 1369 1301 889 
Q 1547 409 2034 409 
Q 2525 409 2770 889 
Q 3016 1369 3016 2328 
Q 3016 3291 2770 3770 
Q 2525 4250 2034 4250 
z
M 2034 4750 
Q 2819 4750 3233 4129 
Q 3647 3509 3647 2328 
Q 3647 1150 3233 529 
Q 2819 -91 2034 -91 
Q 1250 -91 836 529 
Q 422 1150 422 2328 
Q 422 3509 836 4129 
Q 1250 4750 2034 4750 
z
" transform="scale(0.015625)"/>
     <path id="DejaVuSans-5d" d="M 1947 4863 
L 1947 -844 
L 622 -844 
L 622 -397 
L 1369 -397 
L 1369 4416 
L 622 4416 
L 622 4863 
L 1947 4863 
z
" transform="scale(0.015625)"/>
     <path id="DejaVuSans-36" d="M 2113 2584 
Q 1688 2584 1439 2293 
Q 1191 2003 1191 1497 
Q 1191 994 1439 701 
Q 1688 409 2113 409 
Q 2538 409 2786 701 
Q 3034 994 3034 1497 
Q 3034 2003 2786 2293 
Q 2538 2584 2113 2584 
z
M 3366 4563 
L 3366 3988 
Q 3128 4100 2886 4159 
Q 2644 4219 2406 4219 
Q 1781 4219 1451 3797 
Q 1122 3375 1075 2522 
Q 1259 2794 1537 2939 
Q 1816 3084 2150 3084 
Q 2853 3084 3261 2657 
Q 3669 2231 3669 1497 
Q 3669 778 3244 343 
Q 2819 -91 2113 -91 
Q 1303 -91 875 529 
Q 447 1150 447 2328 
Q 447 3434 972 4092 
Q 1497 4750 2381 4750 
Q 2619 4750 2861 4703 
Q 3103 4656 3366 4563 
z
" transform="scale(0.015625)"/>
     <path id="DejaVuSans-34" d="M 2419 4116 
L 825 1625 
L 2419 1625 
L 2419 4116 
z
M 2253 4666 
L 3047 4666 
L 3047 1625 
L 3713 1625 
L 3713 1100 
L 3047 1100 
L 3047 0 
L 2419 0 
L 2419 1100 
L 313 1100 
L 313 1709 
L 2253 4666 
z
" transform="scale(0.015625)"/>
     <path id="DejaVuSans-33" d="M 2597 2516 
Q 3050 2419 3304 2112 
Q 3559 1806 3559 1356 
Q 3559 666 3084 287 
Q 2609 -91 1734 -91 
Q 1441 -91 1130 -33 
Q 819 25 488 141 
L 488 750 
Q 750 597 1062 519 
Q 1375 441 1716 441 
Q 2309 441 2620 675 
Q 2931 909 2931 1356 
Q 2931 1769 2642 2001 
Q 2353 2234 1838 2234 
L 1294 2234 
L 1294 2753 
L 1863 2753 
Q 2328 2753 2575 2939 
Q 2822 3125 2822 3475 
Q 2822 3834 2567 4026 
Q 2313 4219 1838 4219 
Q 1578 4219 1281 4162 
Q 984 4106 628 3988 
L 628 4550 
Q 988 4650 1302 4700 
Q 1616 4750 1894 4750 
Q 2613 4750 3031 4423 
Q 3450 4097 3450 3541 
Q 3450 3153 3228 2886 
Q 3006 2619 2597 2516 
z
" transform="scale(0.015625)"/>
     <path id="DejaVuSans-39" d="M 703 97 
L 703 672 
Q 941 559 1184 500 
Q 1428 441 1663 441 
Q 2288 441 2617 861 
Q 2947 1281 2994 2138 
Q 2813 1869 2534 1725 
Q 2256 1581 1919 1581 
Q 1219 1581 811 2004 
Q 403 2428 403 3163 
Q 403 3881 828 4315 
Q 1253 4750 1959 4750 
Q 2769 4750 3195 4129 
Q 3622 3509 3622 2328 
Q 3622 1225 3098 567 
Q 2575 -91 1691 -91 
Q 1453 -91 1209 -44 
Q 966 3 703 97 
z
M 1959 2075 
Q 2384 2075 2632 2365 
Q 2881 2656 2881 3163 
Q 2881 3666 2632 3958 
Q 2384 4250 1959 4250 
Q 1534 4250 1286 3958 
Q 1038 3666 1038 3163 
Q 1038 2656 1286 2365 
Q 1534 2075 1959 2075 
z
" transform="scale(0.015625)"/>
    </defs>
    <use xlink:href="#DejaVuSans-5b"/>
    <use xlink:href="#DejaVuSans-38" transform="translate(39.013672 0)"/>
    <use xlink:href="#DejaVuSans-31" transform="translate(102.636719 0)"/>
    <use xlink:href="#DejaVuSans-2f" transform="translate(166.259766 0)"/>
    <use xlink:href="#DejaVuSans-32" transform="translate(199.951172 0)"/>
    <use xlink:href="#DejaVuSans-31" transform="translate(263.574219 0)"/>
    <use xlink:href="#DejaVuSans-30" transform="translate(327.197266 0)"/>
    <use xlink:href="#DejaVuSans-5d" transform="translate(390.820312 0)"/>
    <use xlink:href="#DejaVuSans-20" transform="translate(429.833984 0)"/>
    <use xlink:href="#DejaVuSans-20" transform="translate(461.621094 0)"/>
    <use xlink:href="#DejaVuSans-36" transform="translate(493.408203 0)"/>
    <use xlink:href="#DejaVuSans-65" transform="translate(557.03125 0)"/>
    <use xlink:href="#DejaVuSans-38" transform="translate(618.554688 0)"/>
    <use xlink:href="#DejaVuSans-63" transform="translate(682.177734 0)"/>
    <use xlink:href="#DejaVuSans-66" transform="translate(737.158203 0)"/>
    <use xlink:href="#DejaVuSans-34" transform="translate(772.363281 0)"/>
    <use xlink:href="#DejaVuSans-38" transform="translate(835.986328 0)"/>
    <use xlink:href="#DejaVuSans-33" transform="translate(899.609375 0)"/>
    <use xlink:href="#DejaVuSans-36" transform="translate(963.232422 0)"/>
    <use xlink:href="#DejaVuSans-65" transform="translate(1026.855469 0)"/>
    <use xlink:href="#DejaVuSans-31" transform="translate(1088.378906 0)"/>
    <use xlink:href="#DejaVuSans-33" transform="translate(1152.001953 0)"/>
    <use xlink:href="#DejaVuSans-64" transform="translate(1215.625 0)"/>
    <use xlink:href="#DejaVuSans-64" transform="translate(1279.101562 0)"/>
    <use xlink:href="#DejaVuSans-39" transform="translate(1342.578125 0)"/>
    <use xlink:href="#DejaVuSans-64" transform="translate(1406.201172 0)"/>
   </g>
  </g>
 </g>
 <defs>
  <clipPath id="pd0684e59ac">
   <rect x="46.092727" y="45.949091" width="411.454545" height="444.370909"/>
  </clipPath>
  <clipPath id="pad04ede4cf">
   <rect x="544.692727" y="45.949091" width="411.454545" height="444.370909"/>
  </clipPath>
 </defs>
</svg>
