<?xml version="1.0" encoding="utf-8" standalone="no"?>
<!DOCTYPE svg PUBLIC "-//W3C//DTD SVG 1.1//EN"
  "http://www.w3.org/Graphics/SVG/1.1/DTD/svg11.dtd">
<svg xmlns:xlink="http://www.w3.org/1999/xlink" width="720pt" height="720pt" viewBox="0 0 720 720" xmlns="http://www.w3.org/2000/svg" version="1.1">
 <metadata>
  <rdf:RDF xmlns:dc="http://purl.org/dc/elements/1.1/" xmlns:cc="http://creativecommons.org/ns#" xmlns:rdf="http://www.w3.org/1999/02/22-rdf-syntax-ns#">
   <cc:Work>
    <dc:type rdf:resource="http://purl.org/dc/dcmitype/StillImage"/>
    <dc:date>2026-07-28T20:02:02.568991</dc:date>
    <dc:format>image/svg+xml</dc:format>
    <dc:creator>
     <cc:Agent>
      <dc:title>Matplotlib v3.10.5, https://matplotlib.org/</dc:title>
     </cc:Agent>
    </dc:creator>
   </cc:Work>
  </rdf:RDF>
 </metadata>
 <defs>
  <style type="text/css">*{stroke-linejoin: round; stroke-linecap: butt}</style>
 </defs>
 <g id="figure_1">
  <g id="patch_1">
   <path d="M 0 720 
L 720 720 
L 720 0 
L 0 0 
z
" style="fill: #ffffff"/>
  </g>
  <g id="axes_1">
   <g id="patch_2">
    <path d="M 31.709248 341.659843 
L 334.508933 341.659843 
L 334.508933 38.860157 
L 31.709248 38.860157 
L 31.709248 341.659843 
z
" clip-path="url(#p75b4855fe2)" style="fill: none; stroke: #000000; stroke-linejoin: miter"/>
   </g>
   <g id="LineCollection_1">
    <path d="M 92.062146 109.358134 
L 236.99191 127.474354 
" clip-path="url(#p75b4855fe2)" style="fill: none; stroke: #1b9e77; stroke-width: 3"/>
    <path d="M 92.062146 109.358134 
L 59.452949 142.484937 
" clip-path="url(#p75b4855fe2)" style="fill: none; stroke: #998ec3; stroke-width: 3"/>
    <path d="M 92.062146 109.358134 
L 156.245327 178.199772 
" clip-path="url(#p75b4855fe2)" style="fill: none; stroke: #998ec3; stroke-width: 3"/>
    <path d="M 92.062146 109.358134 
L 261.837012 153.354669 
" clip-path="url(#p75b4855fe2)" style="fill: none; stroke: #f1a340; stroke-width: 3"/>
    <path d="M 213.699626 102.629252 
L 236.99191 127.474354 
" clip-path="url(#p75b4855fe2)" style="fill: none; stroke: #998ec3; stroke-width: 3"/>
    <path d="M 213.699626 102.629252 
L 162.456603 212.361787 
" clip-path="url(#p75b4855fe2)" style="fill: none; stroke: #f1a340; stroke-width: 3"/>
    <path d="M 236.99191 127.474354 
L 261.837012 153.354669 
" clip-path="url(#p75b4855fe2)" style="fill: none; stroke: #998ec3; stroke-width: 3"/>
    <path d="M 59.452949 142.484937 
L 156.245327 178.199772 
" clip-path="url(#p75b4855fe2)" style="fill: none; stroke: #f1a340; stroke-width: 3"/>
    <path d="M 156.245327 178.199772 
L 162.456603 212.361787 
" clip-path="url(#p75b4855fe2)" style="fill: none; stroke: #998ec3; stroke-width: 3"/>
    <path d="M 162.456603 212.361787 
L 152.104477 244.970984 
" clip-path="url(#p75b4855fe2)" style="fill: none; stroke: #998ec3; stroke-width: 3"/>
   </g>
   <g id="PathCollection_1">
    <path d="M 92.062146 115.682689 
C 93.739438 115.682689 95.348258 115.016294 96.534282 113.83027 
C 97.720306 112.644245 98.386701 111.035426 98.386701 109.358134 
C 98.386701 107.680842 97.720306 106.072022 96.534282 104.885998 
C 95.348258 103.699974 93.739438 103.033579 92.062146 103.033579 
C 90.384854 103.033579 88.776034 103.699974 87.59001 104.885998 
C 86.403986 106.072022 85.737591 107.680842 85.737591 109.358134 
C 85.737591 111.035426 86.403986 112.644245 87.59001 113.83027 
C 88.776034 115.016294 90.384854 115.682689 92.062146 115.682689 
z
" clip-path="url(#p75b4855fe2)" style="fill: #ff7f0e; stroke: #000000; stroke-width: 0.6"/>
    <path d="M 213.699626 108.953807 
C 215.376918 108.953807 216.985738 108.287412 218.171762 107.101388 
C 219.357787 105.915364 220.024182 104.306544 220.024182 102.629252 
C 220.024182 100.95196 219.357787 99.34314 218.171762 98.157116 
C 216.985738 96.971092 215.376918 96.304697 213.699626 96.304697 
C 212.022335 96.304697 210.413515 96.971092 209.22749 98.157116 
C 208.041466 99.34314 207.375071 100.95196 207.375071 102.629252 
C 207.375071 104.306544 208.041466 105.915364 209.22749 107.101388 
C 210.413515 108.287412 212.022335 108.953807 213.699626 108.953807 
z
" clip-path="url(#p75b4855fe2)" style="fill: #ff9896; stroke: #000000; stroke-width: 0.6"/>
    <path d="M 236.99191 133.79891 
C 238.669201 133.79891 240.278021 133.132515 241.464046 131.94649 
C 242.65007 130.760466 243.316465 129.151646 243.316465 127.474354 
C 243.316465 125.797063 242.65007 124.188243 241.464046 123.002218 
C 240.278021 121.816194 238.669201 121.149799 236.99191 121.149799 
C 235.314618 121.149799 233.705798 121.816194 232.519774 123.002218 
C 231.33375 124.188243 230.667354 125.797063 230.667354 127.474354 
C 230.667354 129.151646 231.33375 130.760466 232.519774 131.94649 
C 233.705798 133.132515 235.314618 133.79891 236.99191 133.79891 
z
" clip-path="url(#p75b4855fe2)" style="fill: #9467bd; stroke: #000000; stroke-width: 0.6"/>
    <path d="M 59.452949 148.809492 
C 61.130241 148.809492 62.739061 148.143097 63.925085 146.957073 
C 65.111109 145.771049 65.777505 144.162229 65.777505 142.484937 
C 65.777505 140.807645 65.111109 139.198825 63.925085 138.012801 
C 62.739061 136.826777 61.130241 136.160382 59.452949 136.160382 
C 57.775658 136.160382 56.166838 136.826777 54.980813 138.012801 
C 53.794789 139.198825 53.128394 140.807645 53.128394 142.484937 
C 53.128394 144.162229 53.794789 145.771049 54.980813 146.957073 
C 56.166838 148.143097 57.775658 148.809492 59.452949 148.809492 
z
" clip-path="url(#p75b4855fe2)" style="fill: #1f77b4; stroke: #000000; stroke-width: 0.6"/>
    <path d="M 156.245327 184.524327 
C 157.922619 184.524327 159.531439 183.857932 160.717463 182.671908 
C 161.903487 181.485883 162.569882 179.877063 162.569882 178.199772 
C 162.569882 176.52248 161.903487 174.91366 160.717463 173.727636 
C 159.531439 172.541611 157.922619 171.875216 156.245327 171.875216 
C 154.568035 171.875216 152.959216 172.541611 151.773191 173.727636 
C 150.587167 174.91366 149.920772 176.52248 149.920772 178.199772 
C 149.920772 179.877063 150.587167 181.485883 151.773191 182.671908 
C 152.959216 183.857932 154.568035 184.524327 156.245327 184.524327 
z
" clip-path="url(#p75b4855fe2)" style="fill: #98df8a; stroke: #000000; stroke-width: 0.6"/>
    <path d="M 162.456603 218.686343 
C 164.133894 218.686343 165.742714 218.019948 166.928739 216.833923 
C 168.114763 215.647899 168.781158 214.039079 168.781158 212.361787 
C 168.781158 210.684496 168.114763 209.075676 166.928739 207.889651 
C 165.742714 206.703627 164.133894 206.037232 162.456603 206.037232 
C 160.779311 206.037232 159.170491 206.703627 157.984467 207.889651 
C 156.798442 209.075676 156.132047 210.684496 156.132047 212.361787 
C 156.132047 214.039079 156.798442 215.647899 157.984467 216.833923 
C 159.170491 218.019948 160.779311 218.686343 162.456603 218.686343 
z
" clip-path="url(#p75b4855fe2)" style="fill: #2ca02c; stroke: #000000; stroke-width: 0.6"/>
    <path d="M 261.837012 159.679225 
C 263.514304 159.679225 265.123124 159.01283 266.309148 157.826805 
C 267.495172 156.640781 268.161567 155.031961 268.161567 153.354669 
C 268.161567 151.677378 267.495172 150.068558 266.309148 148.882533 
C 265.123124 147.696509 263.514304 147.030114 261.837012 147.030114 
C 260.159721 147.030114 258.550901 147.696509 257.364876 148.882533 
C 256.178852 150.068558 255.512457 151.677378 255.512457 153.354669 
C 255.512457 155.031961 256.178852 156.640781 257.364876 157.826805 
C 258.550901 159.01283 260.159721 159.679225 261.837012 159.679225 
z
" clip-path="url(#p75b4855fe2)" style="fill: #aec7e8; stroke: #000000; stroke-width: 0.6"/>
    <path d="M 152.104477 251.29554 
C 153.781768 251.29554 155.390588 250.629145 156.576613 249.44312 
C 157.762637 248.257096 158.429032 246.648276 158.429032 244.970984 
C 158.429032 243.293693 157.762637 241.684873 156.576613 240.498848 
C 155.390588 239.312824 153.781768 238.646429 152.104477 238.646429 
C 150.427185 238.646429 148.818365 239.312824 147.632341 240.498848 
C 146.446316 241.684873 145.779921 243.293693 145.779921 244.970984 
C 145.779921 246.648276 146.446316 248.257096 147.632341 249.44312 
C 148.818365 250.629145 150.427185 251.29554 152.104477 251.29554 
z
" clip-path="url(#p75b4855fe2)" style="fill: #aec7e8; stroke: #000000; stroke-width: 0.6"/>
   </g>
   <g id="text_1">
    <g clip-path="url(#p75b4855fe2)">
     <!-- My family likes to -->
     <g transform="translate(57.129646 107.086509) scale(0.08 -0.08)">
      <defs>
       <path id="DejaVuSans-4d" d="M 628 4666 
L 1569 4666 
L 2759 1491 
L 3956 4666 
L 4897 4666 
L 4897 0 
L 4281 0 
L 4281 4097 
L 3078 897 
L 2444 897 
L 1241 4097 
L 1241 0 
L 628 0 
L 628 4666 
z
" transform="scale(0.015625)"/>
       <path id="DejaVuSans-79" d="M 2059 -325 
Q 1816 -950 1584 -1140 
Q 1353 -1331 966 -1331 
L 506 -1331 
L 506 -850 
L 844 -850 
Q 1081 -850 1212 -737 
Q 1344 -625 1503 -206 
L 1606 56 
L 191 3500 
L 800 3500 
L 1894 763 
L 2988 3500 
L 3597 3500 
L 2059 -325 
z
" transform="scale(0.015625)"/>
       <path id="DejaVuSans-20" transform="scale(0.015625)"/>
       <path id="DejaVuSans-66" d="M 2375 4863 
L 2375 4384 
L 1825 4384 
Q 1516 4384 1395 4259 
Q 1275 4134 1275 3809 
L 1275 3500 
L 2222 3500 
L 2222 3053 
L 1275 3053 
L 1275 0 
L 697 0 
L 697 3053 
L 147 3053 
L 147 3500 
L 697 3500 
L 697 3744 
Q 697 4328 969 4595 
Q 1241 4863 1831 4863 
L 2375 4863 
z
" transform="scale(0.015625)"/>
       <path id="DejaVuSans-61" d="M 2194 1759 
Q 1497 1759 1228 1600 
Q 959 1441 959 1056 
Q 959 750 1161 570 
Q 1363 391 1709 391 
Q 2188 391 2477 730 
Q 2766 1069 2766 1631 
L 2766 1759 
L 2194 1759 
z
M 3341 1997 
L 3341 0 
L 2766 0 
L 2766 531 
Q 2569 213 2275 61 
Q 1981 -91 1556 -91 
Q 1019 -91 701 211 
Q 384 513 384 1019 
Q 384 1609 779 1909 
Q 1175 2209 1959 2209 
L 2766 2209 
L 2766 2266 
Q 2766 2663 2505 2880 
Q 2244 3097 1772 3097 
Q 1472 3097 1187 3025 
Q 903 2953 641 2809 
L 641 3341 
Q 956 3463 1253 3523 
Q 1550 3584 1831 3584 
Q 2591 3584 2966 3190 
Q 3341 2797 3341 1997 
z
" transform="scale(0.015625)"/>
       <path id="DejaVuSans-6d" d="M 3328 2828 
Q 3544 3216 3844 3400 
Q 4144 3584 4550 3584 
Q 5097 3584 5394 3201 
Q 5691 2819 5691 2113 
L 5691 0 
L 5113 0 
L 5113 2094 
Q 5113 2597 4934 2840 
Q 4756 3084 4391 3084 
Q 3944 3084 3684 2787 
Q 3425 2491 3425 1978 
L 3425 0 
L 2847 0 
L 2847 2094 
Q 2847 2600 2669 2842 
Q 2491 3084 2119 3084 
Q 1678 3084 1418 2786 
Q 1159 2488 1159 1978 
L 1159 0 
L 581 0 
L 581 3500 
L 1159 3500 
L 1159 2956 
Q 1356 3278 1631 3431 
Q 1906 3584 2284 3584 
Q 2666 3584 2933 3390 
Q 3200 3197 3328 2828 
z
" transform="scale(0.015625)"/>
       <path id="DejaVuSans-69" d="M 603 3500 
L 1178 3500 
L 1178 0 
L 603 0 
L 603 3500 
z
M 603 4863 
L 1178 4863 
L 1178 4134 
L 603 4134 
L 603 4863 
z
" transform="scale(0.015625)"/>
       <path id="DejaVuSans-6c" d="M 603 4863 
L 1178 4863 
L 1178 0 
L 603 0 
L 603 4863 
z
" transform="scale(0.015625)"/>
       <path id="DejaVuSans-6b" d="M 581 4863 
L 1159 4863 
L 1159 1991 
L 2875 3500 
L 3609 3500 
L 1753 1863 
L 3688 0 
L 2938 0 
L 1159 1709 
L 1159 0 
L 581 0 
L 581 4863 
z
" transform="scale(0.015625)"/>
       <path id="DejaVuSans-65" d="M 3597 1894 
L 3597 1613 
L 953 1613 
Q 991 1019 1311 708 
Q 1631 397 2203 397 
Q 2534 397 2845 478 
Q 3156 559 3463 722 
L 3463 178 
Q 3153 47 2828 -22 
Q 2503 -91 2169 -91 
Q 1331 -91 842 396 
Q 353 884 353 1716 
Q 353 2575 817 3079 
Q 1281 3584 2069 3584 
Q 2775 3584 3186 3129 
Q 3597 2675 3597 1894 
z
M 3022 2063 
Q 3016 2534 2758 2815 
Q 2500 3097 2075 3097 
Q 1594 3097 1305 2825 
Q 1016 2553 972 2059 
L 3022 2063 
z
" transform="scale(0.015625)"/>
       <path id="DejaVuSans-73" d="M 2834 3397 
L 2834 2853 
Q 2591 2978 2328 3040 
Q 2066 3103 1784 3103 
Q 1356 3103 1142 2972 
Q 928 2841 928 2578 
Q 928 2378 1081 2264 
Q 1234 2150 1697 2047 
L 1894 2003 
Q 2506 1872 2764 1633 
Q 3022 1394 3022 966 
Q 3022 478 2636 193 
Q 2250 -91 1575 -91 
Q 1294 -91 989 -36 
Q 684 19 347 128 
L 347 722 
Q 666 556 975 473 
Q 1284 391 1588 391 
Q 1994 391 2212 530 
Q 2431 669 2431 922 
Q 2431 1156 2273 1281 
Q 2116 1406 1581 1522 
L 1381 1569 
Q 847 1681 609 1914 
Q 372 2147 372 2553 
Q 372 3047 722 3315 
Q 1072 3584 1716 3584 
Q 2034 3584 2315 3537 
Q 2597 3491 2834 3397 
z
" transform="scale(0.015625)"/>
       <path id="DejaVuSans-74" d="M 1172 4494 
L 1172 3500 
L 2356 3500 
L 2356 3053 
L 1172 3053 
L 1172 1153 
Q 1172 725 1289 603 
Q 1406 481 1766 481 
L 2356 481 
L 2356 0 
L 1766 0 
Q 1100 0 847 248 
Q 594 497 594 1153 
L 594 3053 
L 172 3053 
L 172 3500 
L 594 3500 
L 594 4494 
L 1172 4494 
z
" transform="scale(0.015625)"/>
       <path id="DejaVuSans-6f" d="M 1959 3097 
Q 1497 3097 1228 2736 
Q 959 2375 959 1747 
Q 959 1119 1226 758 
Q 1494 397 1959 397 
Q 2419 397 2687 759 
Q 2956 1122 2956 1747 
Q 2956 2369 2687 2733 
Q 2419 3097 1959 3097 
z
M 1959 3584 
Q 2709 3584 3137 3096 
Q 3566 2609 3566 1747 
Q 3566 888 3137 398 
Q 2709 -91 1959 -91 
Q 1206 -91 779 398 
Q 353 888 353 1747 
Q 353 2609 779 3096 
Q 1206 3584 1959 3584 
z
" transform="scale(0.015625)"/>
      </defs>
      <use xlink:href="#DejaVuSans-4d"/>
      <use xlink:href="#DejaVuSans-79" transform="translate(86.279297 0)"/>
      <use xlink:href="#DejaVuSans-20" transform="translate(145.458984 0)"/>
      <use xlink:href="#DejaVuSans-66" transform="translate(177.246094 0)"/>
      <use xlink:href="#DejaVuSans-61" transform="translate(212.451172 0)"/>
      <use xlink:href="#DejaVuSans-6d" transform="translate(273.730469 0)"/>
      <use xlink:href="#DejaVuSans-69" transform="translate(371.142578 0)"/>
      <use xlink:href="#DejaVuSans-6c" transform="translate(398.925781 0)"/>
      <use xlink:href="#DejaVuSans-79" transform="translate(426.708984 0)"/>
      <use xlink:href="#DejaVuSans-20" transform="translate(485.888672 0)"/>
      <use xlink:href="#DejaVuSans-6c" transform="translate(517.675781 0)"/>
      <use xlink:href="#DejaVuSans-69" transform="translate(545.458984 0)"/>
      <use xlink:href="#DejaVuSans-6b" transform="translate(573.242188 0)"/>
      <use xlink:href="#DejaVuSans-65" transform="translate(627.527344 0)"/>
      <use xlink:href="#DejaVuSans-73" transform="translate(689.050781 0)"/>
      <use xlink:href="#DejaVuSans-20" transform="translate(741.150391 0)"/>
      <use xlink:href="#DejaVuSans-74" transform="translate(772.9375 0)"/>
      <use xlink:href="#DejaVuSans-6f" transform="translate(812.146484 0)"/>
     </g>
    </g>
    <g clip-path="url(#p75b4855fe2)">
     <!-- eat meat (T1) -->
     <g transform="translate(64.552771 116.044759) scale(0.08 -0.08)">
      <defs>
       <path id="DejaVuSans-28" d="M 1984 4856 
Q 1566 4138 1362 3434 
Q 1159 2731 1159 2009 
Q 1159 1288 1364 580 
Q 1569 -128 1984 -844 
L 1484 -844 
Q 1016 -109 783 600 
Q 550 1309 550 2009 
Q 550 2706 781 3412 
Q 1013 4119 1484 4856 
L 1984 4856 
z
" transform="scale(0.015625)"/>
       <path id="DejaVuSans-54" d="M -19 4666 
L 3928 4666 
L 3928 4134 
L 2272 4134 
L 2272 0 
L 1638 0 
L 1638 4134 
L -19 4134 
L -19 4666 
z
" transform="scale(0.015625)"/>
       <path id="DejaVuSans-31" d="M 794 531 
L 1825 531 
L 1825 4091 
L 703 3866 
L 703 4441 
L 1819 4666 
L 2450 4666 
L 2450 531 
L 3481 531 
L 3481 0 
L 794 0 
L 794 531 
z
" transform="scale(0.015625)"/>
       <path id="DejaVuSans-29" d="M 513 4856 
L 1013 4856 
Q 1481 4119 1714 3412 
Q 1947 2706 1947 2009 
Q 1947 1309 1714 600 
Q 1481 -109 1013 -844 
L 513 -844 
Q 928 -128 1133 580 
Q 1338 1288 1338 2009 
Q 1338 2731 1133 3434 
Q 928 4138 513 4856 
z
" transform="scale(0.015625)"/>
      </defs>
      <use xlink:href="#DejaVuSans-65"/>
      <use xlink:href="#DejaVuSans-61" transform="translate(61.523438 0)"/>
      <use xlink:href="#DejaVuSans-74" transform="translate(122.802734 0)"/>
      <use xlink:href="#DejaVuSans-20" transform="translate(162.011719 0)"/>
      <use xlink:href="#DejaVuSans-6d" transform="translate(193.798828 0)"/>
      <use xlink:href="#DejaVuSans-65" transform="translate(291.210938 0)"/>
      <use xlink:href="#DejaVuSans-61" transform="translate(352.734375 0)"/>
      <use xlink:href="#DejaVuSans-74" transform="translate(414.013672 0)"/>
      <use xlink:href="#DejaVuSans-20" transform="translate(453.222656 0)"/>
      <use xlink:href="#DejaVuSans-28" transform="translate(485.009766 0)"/>
      <use xlink:href="#DejaVuSans-54" transform="translate(524.023438 0)"/>
      <use xlink:href="#DejaVuSans-31" transform="translate(585.107422 0)"/>
      <use xlink:href="#DejaVuSans-29" transform="translate(648.730469 0)"/>
     </g>
    </g>
   </g>
   <g id="text_2">
    <g clip-path="url(#p75b4855fe2)">
     <!-- I am sensitive to -->
     <g transform="translate(180.559626 100.357627) scale(0.08 -0.08)">
      <defs>
       <path id="DejaVuSans-49" d="M 628 4666 
L 1259 4666 
L 1259 0 
L 628 0 
L 628 4666 
z
" transform="scale(0.015625)"/>
       <path id="DejaVuSans-6e" d="M 3513 2113 
L 3513 0 
L 2938 0 
L 2938 2094 
Q 2938 2591 2744 2837 
Q 2550 3084 2163 3084 
Q 1697 3084 1428 2787 
Q 1159 2491 1159 1978 
L 1159 0 
L 581 0 
L 581 3500 
L 1159 3500 
L 1159 2956 
Q 1366 3272 1645 3428 
Q 1925 3584 2291 3584 
Q 2894 3584 3203 3211 
Q 3513 2838 3513 2113 
z
" transform="scale(0.015625)"/>
       <path id="DejaVuSans-76" d="M 191 3500 
L 800 3500 
L 1894 563 
L 2988 3500 
L 3597 3500 
L 2284 0 
L 1503 0 
L 191 3500 
z
" transform="scale(0.015625)"/>
      </defs>
      <use xlink:href="#DejaVuSans-49"/>
      <use xlink:href="#DejaVuSans-20" transform="translate(29.492188 0)"/>
      <use xlink:href="#DejaVuSans-61" transform="translate(61.279297 0)"/>
      <use xlink:href="#DejaVuSans-6d" transform="translate(122.558594 0)"/>
      <use xlink:href="#DejaVuSans-20" transform="translate(219.970703 0)"/>
      <use xlink:href="#DejaVuSans-73" transform="translate(251.757812 0)"/>
      <use xlink:href="#DejaVuSans-65" transform="translate(303.857422 0)"/>
      <use xlink:href="#DejaVuSans-6e" transform="translate(365.380859 0)"/>
      <use xlink:href="#DejaVuSans-73" transform="translate(428.759766 0)"/>
      <use xlink:href="#DejaVuSans-69" transform="translate(480.859375 0)"/>
      <use xlink:href="#DejaVuSans-74" transform="translate(508.642578 0)"/>
      <use xlink:href="#DejaVuSans-69" transform="translate(547.851562 0)"/>
      <use xlink:href="#DejaVuSans-76" transform="translate(575.634766 0)"/>
      <use xlink:href="#DejaVuSans-65" transform="translate(634.814453 0)"/>
      <use xlink:href="#DejaVuSans-20" transform="translate(696.337891 0)"/>
      <use xlink:href="#DejaVuSans-74" transform="translate(728.125 0)"/>
      <use xlink:href="#DejaVuSans-6f" transform="translate(767.333984 0)"/>
     </g>
    </g>
    <g clip-path="url(#p75b4855fe2)">
     <!-- meat texture (T11) -->
     <g transform="translate(175.680251 109.315877) scale(0.08 -0.08)">
      <defs>
       <path id="DejaVuSans-78" d="M 3513 3500 
L 2247 1797 
L 3578 0 
L 2900 0 
L 1881 1375 
L 863 0 
L 184 0 
L 1544 1831 
L 300 3500 
L 978 3500 
L 1906 2253 
L 2834 3500 
L 3513 3500 
z
" transform="scale(0.015625)"/>
       <path id="DejaVuSans-75" d="M 544 1381 
L 544 3500 
L 1119 3500 
L 1119 1403 
Q 1119 906 1312 657 
Q 1506 409 1894 409 
Q 2359 409 2629 706 
Q 2900 1003 2900 1516 
L 2900 3500 
L 3475 3500 
L 3475 0 
L 2900 0 
L 2900 538 
Q 2691 219 2414 64 
Q 2138 -91 1772 -91 
Q 1169 -91 856 284 
Q 544 659 544 1381 
z
M 1991 3584 
L 1991 3584 
z
" transform="scale(0.015625)"/>
       <path id="DejaVuSans-72" d="M 2631 2963 
Q 2534 3019 2420 3045 
Q 2306 3072 2169 3072 
Q 1681 3072 1420 2755 
Q 1159 2438 1159 1844 
L 1159 0 
L 581 0 
L 581 3500 
L 1159 3500 
L 1159 2956 
Q 1341 3275 1631 3429 
Q 1922 3584 2338 3584 
Q 2397 3584 2469 3576 
Q 2541 3569 2628 3553 
L 2631 2963 
z
" transform="scale(0.015625)"/>
      </defs>
      <use xlink:href="#DejaVuSans-6d"/>
      <use xlink:href="#DejaVuSans-65" transform="translate(97.412109 0)"/>
      <use xlink:href="#DejaVuSans-61" transform="translate(158.935547 0)"/>
      <use xlink:href="#DejaVuSans-74" transform="translate(220.214844 0)"/>
      <use xlink:href="#DejaVuSans-20" transform="translate(259.423828 0)"/>
      <use xlink:href="#DejaVuSans-74" transform="translate(291.210938 0)"/>
      <use xlink:href="#DejaVuSans-65" transform="translate(330.419922 0)"/>
      <use xlink:href="#DejaVuSans-78" transform="translate(390.193359 0)"/>
      <use xlink:href="#DejaVuSans-74" transform="translate(449.373047 0)"/>
      <use xlink:href="#DejaVuSans-75" transform="translate(488.582031 0)"/>
      <use xlink:href="#DejaVuSans-72" transform="translate(551.960938 0)"/>
      <use xlink:href="#DejaVuSans-65" transform="translate(590.824219 0)"/>
      <use xlink:href="#DejaVuSans-20" transform="translate(652.347656 0)"/>
      <use xlink:href="#DejaVuSans-28" transform="translate(684.134766 0)"/>
      <use xlink:href="#DejaVuSans-54" transform="translate(723.148438 0)"/>
      <use xlink:href="#DejaVuSans-31" transform="translate(784.232422 0)"/>
      <use xlink:href="#DejaVuSans-31" transform="translate(847.855469 0)"/>
      <use xlink:href="#DejaVuSans-29" transform="translate(911.478516 0)"/>
     </g>
    </g>
   </g>
   <g id="text_3">
    <g clip-path="url(#p75b4855fe2)">
     <!-- I am picky about -->
     <g transform="translate(203.72066 125.202729) scale(0.08 -0.08)">
      <defs>
       <path id="DejaVuSans-70" d="M 1159 525 
L 1159 -1331 
L 581 -1331 
L 581 3500 
L 1159 3500 
L 1159 2969 
Q 1341 3281 1617 3432 
Q 1894 3584 2278 3584 
Q 2916 3584 3314 3078 
Q 3713 2572 3713 1747 
Q 3713 922 3314 415 
Q 2916 -91 2278 -91 
Q 1894 -91 1617 61 
Q 1341 213 1159 525 
z
M 3116 1747 
Q 3116 2381 2855 2742 
Q 2594 3103 2138 3103 
Q 1681 3103 1420 2742 
Q 1159 2381 1159 1747 
Q 1159 1113 1420 752 
Q 1681 391 2138 391 
Q 2594 391 2855 752 
Q 3116 1113 3116 1747 
z
" transform="scale(0.015625)"/>
       <path id="DejaVuSans-63" d="M 3122 3366 
L 3122 2828 
Q 2878 2963 2633 3030 
Q 2388 3097 2138 3097 
Q 1578 3097 1268 2742 
Q 959 2388 959 1747 
Q 959 1106 1268 751 
Q 1578 397 2138 397 
Q 2388 397 2633 464 
Q 2878 531 3122 666 
L 3122 134 
Q 2881 22 2623 -34 
Q 2366 -91 2075 -91 
Q 1284 -91 818 406 
Q 353 903 353 1747 
Q 353 2603 823 3093 
Q 1294 3584 2113 3584 
Q 2378 3584 2631 3529 
Q 2884 3475 3122 3366 
z
" transform="scale(0.015625)"/>
       <path id="DejaVuSans-62" d="M 3116 1747 
Q 3116 2381 2855 2742 
Q 2594 3103 2138 3103 
Q 1681 3103 1420 2742 
Q 1159 2381 1159 1747 
Q 1159 1113 1420 752 
Q 1681 391 2138 391 
Q 2594 391 2855 752 
Q 3116 1113 3116 1747 
z
M 1159 2969 
Q 1341 3281 1617 3432 
Q 1894 3584 2278 3584 
Q 2916 3584 3314 3078 
Q 3713 2572 3713 1747 
Q 3713 922 3314 415 
Q 2916 -91 2278 -91 
Q 1894 -91 1617 61 
Q 1341 213 1159 525 
L 1159 0 
L 581 0 
L 581 4863 
L 1159 4863 
L 1159 2969 
z
" transform="scale(0.015625)"/>
      </defs>
      <use xlink:href="#DejaVuSans-49"/>
      <use xlink:href="#DejaVuSans-20" transform="translate(29.492188 0)"/>
      <use xlink:href="#DejaVuSans-61" transform="translate(61.279297 0)"/>
      <use xlink:href="#DejaVuSans-6d" transform="translate(122.558594 0)"/>
      <use xlink:href="#DejaVuSans-20" transform="translate(219.970703 0)"/>
      <use xlink:href="#DejaVuSans-70" transform="translate(251.757812 0)"/>
      <use xlink:href="#DejaVuSans-69" transform="translate(315.234375 0)"/>
      <use xlink:href="#DejaVuSans-63" transform="translate(343.017578 0)"/>
      <use xlink:href="#DejaVuSans-6b" transform="translate(397.998047 0)"/>
      <use xlink:href="#DejaVuSans-79" transform="translate(452.283203 0)"/>
      <use xlink:href="#DejaVuSans-20" transform="translate(511.462891 0)"/>
      <use xlink:href="#DejaVuSans-61" transform="translate(543.25 0)"/>
      <use xlink:href="#DejaVuSans-62" transform="translate(604.529297 0)"/>
      <use xlink:href="#DejaVuSans-6f" transform="translate(668.005859 0)"/>
      <use xlink:href="#DejaVuSans-75" transform="translate(729.1875 0)"/>
      <use xlink:href="#DejaVuSans-74" transform="translate(792.566406 0)"/>
     </g>
    </g>
    <g clip-path="url(#p75b4855fe2)">
     <!-- eating meat (T13) -->
     <g transform="translate(200.75191 134.160979) scale(0.08 -0.08)">
      <defs>
       <path id="DejaVuSans-67" d="M 2906 1791 
Q 2906 2416 2648 2759 
Q 2391 3103 1925 3103 
Q 1463 3103 1205 2759 
Q 947 2416 947 1791 
Q 947 1169 1205 825 
Q 1463 481 1925 481 
Q 2391 481 2648 825 
Q 2906 1169 2906 1791 
z
M 3481 434 
Q 3481 -459 3084 -895 
Q 2688 -1331 1869 -1331 
Q 1566 -1331 1297 -1286 
Q 1028 -1241 775 -1147 
L 775 -588 
Q 1028 -725 1275 -790 
Q 1522 -856 1778 -856 
Q 2344 -856 2625 -561 
Q 2906 -266 2906 331 
L 2906 616 
Q 2728 306 2450 153 
Q 2172 0 1784 0 
Q 1141 0 747 490 
Q 353 981 353 1791 
Q 353 2603 747 3093 
Q 1141 3584 1784 3584 
Q 2172 3584 2450 3431 
Q 2728 3278 2906 2969 
L 2906 3500 
L 3481 3500 
L 3481 434 
z
" transform="scale(0.015625)"/>
       <path id="DejaVuSans-33" d="M 2597 2516 
Q 3050 2419 3304 2112 
Q 3559 1806 3559 1356 
Q 3559 666 3084 287 
Q 2609 -91 1734 -91 
Q 1441 -91 1130 -33 
Q 819 25 488 141 
L 488 750 
Q 750 597 1062 519 
Q 1375 441 1716 441 
Q 2309 441 2620 675 
Q 2931 909 2931 1356 
Q 2931 1769 2642 2001 
Q 2353 2234 1838 2234 
L 1294 2234 
L 1294 2753 
L 1863 2753 
Q 2328 2753 2575 2939 
Q 2822 3125 2822 3475 
Q 2822 3834 2567 4026 
Q 2313 4219 1838 4219 
Q 1578 4219 1281 4162 
Q 984 4106 628 3988 
L 628 4550 
Q 988 4650 1302 4700 
Q 1616 4750 1894 4750 
Q 2613 4750 3031 4423 
Q 3450 4097 3450 3541 
Q 3450 3153 3228 2886 
Q 3006 2619 2597 2516 
z
" transform="scale(0.015625)"/>
      </defs>
      <use xlink:href="#DejaVuSans-65"/>
      <use xlink:href="#DejaVuSans-61" transform="translate(61.523438 0)"/>
      <use xlink:href="#DejaVuSans-74" transform="translate(122.802734 0)"/>
      <use xlink:href="#DejaVuSans-69" transform="translate(162.011719 0)"/>
      <use xlink:href="#DejaVuSans-6e" transform="translate(189.794922 0)"/>
      <use xlink:href="#DejaVuSans-67" transform="translate(253.173828 0)"/>
      <use xlink:href="#DejaVuSans-20" transform="translate(316.650391 0)"/>
      <use xlink:href="#DejaVuSans-6d" transform="translate(348.4375 0)"/>
      <use xlink:href="#DejaVuSans-65" transform="translate(445.849609 0)"/>
      <use xlink:href="#DejaVuSans-61" transform="translate(507.373047 0)"/>
      <use xlink:href="#DejaVuSans-74" transform="translate(568.652344 0)"/>
      <use xlink:href="#DejaVuSans-20" transform="translate(607.861328 0)"/>
      <use xlink:href="#DejaVuSans-28" transform="translate(639.648438 0)"/>
      <use xlink:href="#DejaVuSans-54" transform="translate(678.662109 0)"/>
      <use xlink:href="#DejaVuSans-31" transform="translate(739.746094 0)"/>
      <use xlink:href="#DejaVuSans-33" transform="translate(803.369141 0)"/>
      <use xlink:href="#DejaVuSans-29" transform="translate(866.992188 0)"/>
     </g>
    </g>
   </g>
   <g id="text_4">
    <g clip-path="url(#p75b4855fe2)">
     <!-- I prepare meat for -->
     <g transform="translate(23.021074 135.734187) scale(0.08 -0.08)">
      <use xlink:href="#DejaVuSans-49"/>
      <use xlink:href="#DejaVuSans-20" transform="translate(29.492188 0)"/>
      <use xlink:href="#DejaVuSans-70" transform="translate(61.279297 0)"/>
      <use xlink:href="#DejaVuSans-72" transform="translate(124.755859 0)"/>
      <use xlink:href="#DejaVuSans-65" transform="translate(163.619141 0)"/>
      <use xlink:href="#DejaVuSans-70" transform="translate(225.142578 0)"/>
      <use xlink:href="#DejaVuSans-61" transform="translate(288.619141 0)"/>
      <use xlink:href="#DejaVuSans-72" transform="translate(349.898438 0)"/>
      <use xlink:href="#DejaVuSans-65" transform="translate(388.761719 0)"/>
      <use xlink:href="#DejaVuSans-20" transform="translate(450.285156 0)"/>
      <use xlink:href="#DejaVuSans-6d" transform="translate(482.072266 0)"/>
      <use xlink:href="#DejaVuSans-65" transform="translate(579.484375 0)"/>
      <use xlink:href="#DejaVuSans-61" transform="translate(641.007812 0)"/>
      <use xlink:href="#DejaVuSans-74" transform="translate(702.287109 0)"/>
      <use xlink:href="#DejaVuSans-20" transform="translate(741.496094 0)"/>
      <use xlink:href="#DejaVuSans-66" transform="translate(773.283203 0)"/>
      <use xlink:href="#DejaVuSans-6f" transform="translate(808.488281 0)"/>
      <use xlink:href="#DejaVuSans-72" transform="translate(869.669922 0)"/>
     </g>
    </g>
    <g clip-path="url(#p75b4855fe2)">
     <!-- my husband and son -->
     <g transform="translate(17.564824 144.692437) scale(0.08 -0.08)">
      <defs>
       <path id="DejaVuSans-68" d="M 3513 2113 
L 3513 0 
L 2938 0 
L 2938 2094 
Q 2938 2591 2744 2837 
Q 2550 3084 2163 3084 
Q 1697 3084 1428 2787 
Q 1159 2491 1159 1978 
L 1159 0 
L 581 0 
L 581 4863 
L 1159 4863 
L 1159 2956 
Q 1366 3272 1645 3428 
Q 1925 3584 2291 3584 
Q 2894 3584 3203 3211 
Q 3513 2838 3513 2113 
z
" transform="scale(0.015625)"/>
       <path id="DejaVuSans-64" d="M 2906 2969 
L 2906 4863 
L 3481 4863 
L 3481 0 
L 2906 0 
L 2906 525 
Q 2725 213 2448 61 
Q 2172 -91 1784 -91 
Q 1150 -91 751 415 
Q 353 922 353 1747 
Q 353 2572 751 3078 
Q 1150 3584 1784 3584 
Q 2172 3584 2448 3432 
Q 2725 3281 2906 2969 
z
M 947 1747 
Q 947 1113 1208 752 
Q 1469 391 1925 391 
Q 2381 391 2643 752 
Q 2906 1113 2906 1747 
Q 2906 2381 2643 2742 
Q 2381 3103 1925 3103 
Q 1469 3103 1208 2742 
Q 947 2381 947 1747 
z
" transform="scale(0.015625)"/>
      </defs>
      <use xlink:href="#DejaVuSans-6d"/>
      <use xlink:href="#DejaVuSans-79" transform="translate(97.412109 0)"/>
      <use xlink:href="#DejaVuSans-20" transform="translate(156.591797 0)"/>
      <use xlink:href="#DejaVuSans-68" transform="translate(188.378906 0)"/>
      <use xlink:href="#DejaVuSans-75" transform="translate(251.757812 0)"/>
      <use xlink:href="#DejaVuSans-73" transform="translate(315.136719 0)"/>
      <use xlink:href="#DejaVuSans-62" transform="translate(367.236328 0)"/>
      <use xlink:href="#DejaVuSans-61" transform="translate(430.712891 0)"/>
      <use xlink:href="#DejaVuSans-6e" transform="translate(491.992188 0)"/>
      <use xlink:href="#DejaVuSans-64" transform="translate(555.371094 0)"/>
      <use xlink:href="#DejaVuSans-20" transform="translate(618.847656 0)"/>
      <use xlink:href="#DejaVuSans-61" transform="translate(650.634766 0)"/>
      <use xlink:href="#DejaVuSans-6e" transform="translate(711.914062 0)"/>
      <use xlink:href="#DejaVuSans-64" transform="translate(775.292969 0)"/>
      <use xlink:href="#DejaVuSans-20" transform="translate(838.769531 0)"/>
      <use xlink:href="#DejaVuSans-73" transform="translate(870.556641 0)"/>
      <use xlink:href="#DejaVuSans-6f" transform="translate(922.65625 0)"/>
      <use xlink:href="#DejaVuSans-6e" transform="translate(983.837891 0)"/>
     </g>
    </g>
    <g clip-path="url(#p75b4855fe2)">
     <!-- (T-1) -->
     <g transform="translate(50.265449 153.650687) scale(0.08 -0.08)">
      <defs>
       <path id="DejaVuSans-2d" d="M 313 2009 
L 1997 2009 
L 1997 1497 
L 313 1497 
L 313 2009 
z
" transform="scale(0.015625)"/>
      </defs>
      <use xlink:href="#DejaVuSans-28"/>
      <use xlink:href="#DejaVuSans-54" transform="translate(39.013672 0)"/>
      <use xlink:href="#DejaVuSans-2d" transform="translate(90.972656 0)"/>
      <use xlink:href="#DejaVuSans-31" transform="translate(127.056641 0)"/>
      <use xlink:href="#DejaVuSans-29" transform="translate(190.679688 0)"/>
     </g>
    </g>
   </g>
   <g id="text_5">
    <g clip-path="url(#p75b4855fe2)">
     <!-- I want a balanced, -->
     <g transform="translate(119.415327 175.928147) scale(0.08 -0.08)">
      <defs>
       <path id="DejaVuSans-77" d="M 269 3500 
L 844 3500 
L 1563 769 
L 2278 3500 
L 2956 3500 
L 3675 769 
L 4391 3500 
L 4966 3500 
L 4050 0 
L 3372 0 
L 2619 2869 
L 1863 0 
L 1184 0 
L 269 3500 
z
" transform="scale(0.015625)"/>
       <path id="DejaVuSans-2c" d="M 750 794 
L 1409 794 
L 1409 256 
L 897 -744 
L 494 -744 
L 750 256 
L 750 794 
z
" transform="scale(0.015625)"/>
      </defs>
      <use xlink:href="#DejaVuSans-49"/>
      <use xlink:href="#DejaVuSans-20" transform="translate(29.492188 0)"/>
      <use xlink:href="#DejaVuSans-77" transform="translate(61.279297 0)"/>
      <use xlink:href="#DejaVuSans-61" transform="translate(143.066406 0)"/>
      <use xlink:href="#DejaVuSans-6e" transform="translate(204.345703 0)"/>
      <use xlink:href="#DejaVuSans-74" transform="translate(267.724609 0)"/>
      <use xlink:href="#DejaVuSans-20" transform="translate(306.933594 0)"/>
      <use xlink:href="#DejaVuSans-61" transform="translate(338.720703 0)"/>
      <use xlink:href="#DejaVuSans-20" transform="translate(400 0)"/>
      <use xlink:href="#DejaVuSans-62" transform="translate(431.787109 0)"/>
      <use xlink:href="#DejaVuSans-61" transform="translate(495.263672 0)"/>
      <use xlink:href="#DejaVuSans-6c" transform="translate(556.542969 0)"/>
      <use xlink:href="#DejaVuSans-61" transform="translate(584.326172 0)"/>
      <use xlink:href="#DejaVuSans-6e" transform="translate(645.605469 0)"/>
      <use xlink:href="#DejaVuSans-63" transform="translate(708.984375 0)"/>
      <use xlink:href="#DejaVuSans-65" transform="translate(763.964844 0)"/>
      <use xlink:href="#DejaVuSans-64" transform="translate(825.488281 0)"/>
      <use xlink:href="#DejaVuSans-2c" transform="translate(888.964844 0)"/>
     </g>
    </g>
    <g clip-path="url(#p75b4855fe2)">
     <!-- healthy diet (T6) -->
     <g transform="translate(122.884077 184.886397) scale(0.08 -0.08)">
      <defs>
       <path id="DejaVuSans-36" d="M 2113 2584 
Q 1688 2584 1439 2293 
Q 1191 2003 1191 1497 
Q 1191 994 1439 701 
Q 1688 409 2113 409 
Q 2538 409 2786 701 
Q 3034 994 3034 1497 
Q 3034 2003 2786 2293 
Q 2538 2584 2113 2584 
z
M 3366 4563 
L 3366 3988 
Q 3128 4100 2886 4159 
Q 2644 4219 2406 4219 
Q 1781 4219 1451 3797 
Q 1122 3375 1075 2522 
Q 1259 2794 1537 2939 
Q 1816 3084 2150 3084 
Q 2853 3084 3261 2657 
Q 3669 2231 3669 1497 
Q 3669 778 3244 343 
Q 2819 -91 2113 -91 
Q 1303 -91 875 529 
Q 447 1150 447 2328 
Q 447 3434 972 4092 
Q 1497 4750 2381 4750 
Q 2619 4750 2861 4703 
Q 3103 4656 3366 4563 
z
" transform="scale(0.015625)"/>
      </defs>
      <use xlink:href="#DejaVuSans-68"/>
      <use xlink:href="#DejaVuSans-65" transform="translate(63.378906 0)"/>
      <use xlink:href="#DejaVuSans-61" transform="translate(124.902344 0)"/>
      <use xlink:href="#DejaVuSans-6c" transform="translate(186.181641 0)"/>
      <use xlink:href="#DejaVuSans-74" transform="translate(213.964844 0)"/>
      <use xlink:href="#DejaVuSans-68" transform="translate(253.173828 0)"/>
      <use xlink:href="#DejaVuSans-79" transform="translate(316.552734 0)"/>
      <use xlink:href="#DejaVuSans-20" transform="translate(375.732422 0)"/>
      <use xlink:href="#DejaVuSans-64" transform="translate(407.519531 0)"/>
      <use xlink:href="#DejaVuSans-69" transform="translate(470.996094 0)"/>
      <use xlink:href="#DejaVuSans-65" transform="translate(498.779297 0)"/>
      <use xlink:href="#DejaVuSans-74" transform="translate(560.302734 0)"/>
      <use xlink:href="#DejaVuSans-20" transform="translate(599.511719 0)"/>
      <use xlink:href="#DejaVuSans-28" transform="translate(631.298828 0)"/>
      <use xlink:href="#DejaVuSans-54" transform="translate(670.3125 0)"/>
      <use xlink:href="#DejaVuSans-36" transform="translate(731.396484 0)"/>
      <use xlink:href="#DejaVuSans-29" transform="translate(795.019531 0)"/>
     </g>
    </g>
   </g>
   <g id="text_6">
    <g clip-path="url(#p75b4855fe2)">
     <!-- I believe meat -->
     <g transform="translate(133.844103 205.611037) scale(0.08 -0.08)">
      <use xlink:href="#DejaVuSans-49"/>
      <use xlink:href="#DejaVuSans-20" transform="translate(29.492188 0)"/>
      <use xlink:href="#DejaVuSans-62" transform="translate(61.279297 0)"/>
      <use xlink:href="#DejaVuSans-65" transform="translate(124.755859 0)"/>
      <use xlink:href="#DejaVuSans-6c" transform="translate(186.279297 0)"/>
      <use xlink:href="#DejaVuSans-69" transform="translate(214.0625 0)"/>
      <use xlink:href="#DejaVuSans-65" transform="translate(241.845703 0)"/>
      <use xlink:href="#DejaVuSans-76" transform="translate(303.369141 0)"/>
      <use xlink:href="#DejaVuSans-65" transform="translate(362.548828 0)"/>
      <use xlink:href="#DejaVuSans-20" transform="translate(424.072266 0)"/>
      <use xlink:href="#DejaVuSans-6d" transform="translate(455.859375 0)"/>
      <use xlink:href="#DejaVuSans-65" transform="translate(553.271484 0)"/>
      <use xlink:href="#DejaVuSans-61" transform="translate(614.794922 0)"/>
      <use xlink:href="#DejaVuSans-74" transform="translate(676.074219 0)"/>
     </g>
    </g>
    <g clip-path="url(#p75b4855fe2)">
     <!-- provides necessary -->
     <g transform="translate(123.793478 214.569287) scale(0.08 -0.08)">
      <use xlink:href="#DejaVuSans-70"/>
      <use xlink:href="#DejaVuSans-72" transform="translate(63.476562 0)"/>
      <use xlink:href="#DejaVuSans-6f" transform="translate(102.339844 0)"/>
      <use xlink:href="#DejaVuSans-76" transform="translate(163.521484 0)"/>
      <use xlink:href="#DejaVuSans-69" transform="translate(222.701172 0)"/>
      <use xlink:href="#DejaVuSans-64" transform="translate(250.484375 0)"/>
      <use xlink:href="#DejaVuSans-65" transform="translate(313.960938 0)"/>
      <use xlink:href="#DejaVuSans-73" transform="translate(375.484375 0)"/>
      <use xlink:href="#DejaVuSans-20" transform="translate(427.583984 0)"/>
      <use xlink:href="#DejaVuSans-6e" transform="translate(459.371094 0)"/>
      <use xlink:href="#DejaVuSans-65" transform="translate(522.75 0)"/>
      <use xlink:href="#DejaVuSans-63" transform="translate(584.273438 0)"/>
      <use xlink:href="#DejaVuSans-65" transform="translate(639.253906 0)"/>
      <use xlink:href="#DejaVuSans-73" transform="translate(700.777344 0)"/>
      <use xlink:href="#DejaVuSans-73" transform="translate(752.876953 0)"/>
      <use xlink:href="#DejaVuSans-61" transform="translate(804.976562 0)"/>
      <use xlink:href="#DejaVuSans-72" transform="translate(866.255859 0)"/>
      <use xlink:href="#DejaVuSans-79" transform="translate(907.369141 0)"/>
     </g>
    </g>
    <g clip-path="url(#p75b4855fe2)">
     <!-- protein (T3) -->
     <g transform="translate(138.859103 223.527537) scale(0.08 -0.08)">
      <use xlink:href="#DejaVuSans-70"/>
      <use xlink:href="#DejaVuSans-72" transform="translate(63.476562 0)"/>
      <use xlink:href="#DejaVuSans-6f" transform="translate(102.339844 0)"/>
      <use xlink:href="#DejaVuSans-74" transform="translate(163.521484 0)"/>
      <use xlink:href="#DejaVuSans-65" transform="translate(202.730469 0)"/>
      <use xlink:href="#DejaVuSans-69" transform="translate(264.253906 0)"/>
      <use xlink:href="#DejaVuSans-6e" transform="translate(292.037109 0)"/>
      <use xlink:href="#DejaVuSans-20" transform="translate(355.416016 0)"/>
      <use xlink:href="#DejaVuSans-28" transform="translate(387.203125 0)"/>
      <use xlink:href="#DejaVuSans-54" transform="translate(426.216797 0)"/>
      <use xlink:href="#DejaVuSans-33" transform="translate(487.300781 0)"/>
      <use xlink:href="#DejaVuSans-29" transform="translate(550.923828 0)"/>
     </g>
    </g>
   </g>
   <g id="text_7">
    <g clip-path="url(#p75b4855fe2)">
     <!-- My mood affects my -->
     <g transform="translate(221.030137 151.083044) scale(0.08 -0.08)">
      <use xlink:href="#DejaVuSans-4d"/>
      <use xlink:href="#DejaVuSans-79" transform="translate(86.279297 0)"/>
      <use xlink:href="#DejaVuSans-20" transform="translate(145.458984 0)"/>
      <use xlink:href="#DejaVuSans-6d" transform="translate(177.246094 0)"/>
      <use xlink:href="#DejaVuSans-6f" transform="translate(274.658203 0)"/>
      <use xlink:href="#DejaVuSans-6f" transform="translate(335.839844 0)"/>
      <use xlink:href="#DejaVuSans-64" transform="translate(397.021484 0)"/>
      <use xlink:href="#DejaVuSans-20" transform="translate(460.498047 0)"/>
      <use xlink:href="#DejaVuSans-61" transform="translate(492.285156 0)"/>
      <use xlink:href="#DejaVuSans-66" transform="translate(553.564453 0)"/>
      <use xlink:href="#DejaVuSans-66" transform="translate(588.769531 0)"/>
      <use xlink:href="#DejaVuSans-65" transform="translate(623.974609 0)"/>
      <use xlink:href="#DejaVuSans-63" transform="translate(685.498047 0)"/>
      <use xlink:href="#DejaVuSans-74" transform="translate(740.478516 0)"/>
      <use xlink:href="#DejaVuSans-73" transform="translate(779.6875 0)"/>
      <use xlink:href="#DejaVuSans-20" transform="translate(831.787109 0)"/>
      <use xlink:href="#DejaVuSans-6d" transform="translate(863.574219 0)"/>
      <use xlink:href="#DejaVuSans-79" transform="translate(960.986328 0)"/>
     </g>
    </g>
    <g clip-path="url(#p75b4855fe2)">
     <!-- meat eating (T0) -->
     <g transform="translate(228.142012 160.041294) scale(0.08 -0.08)">
      <defs>
       <path id="DejaVuSans-30" d="M 2034 4250 
Q 1547 4250 1301 3770 
Q 1056 3291 1056 2328 
Q 1056 1369 1301 889 
Q 1547 409 2034 409 
Q 2525 409 2770 889 
Q 3016 1369 3016 2328 
Q 3016 3291 2770 3770 
Q 2525 4250 2034 4250 
z
M 2034 4750 
Q 2819 4750 3233 4129 
Q 3647 3509 3647 2328 
Q 3647 1150 3233 529 
Q 2819 -91 2034 -91 
Q 1250 -91 836 529 
Q 422 1150 422 2328 
Q 422 3509 836 4129 
Q 1250 4750 2034 4750 
z
" transform="scale(0.015625)"/>
      </defs>
      <use xlink:href="#DejaVuSans-6d"/>
      <use xlink:href="#DejaVuSans-65" transform="translate(97.412109 0)"/>
      <use xlink:href="#DejaVuSans-61" transform="translate(158.935547 0)"/>
      <use xlink:href="#DejaVuSans-74" transform="translate(220.214844 0)"/>
      <use xlink:href="#DejaVuSans-20" transform="translate(259.423828 0)"/>
      <use xlink:href="#DejaVuSans-65" transform="translate(291.210938 0)"/>
      <use xlink:href="#DejaVuSans-61" transform="translate(352.734375 0)"/>
      <use xlink:href="#DejaVuSans-74" transform="translate(414.013672 0)"/>
      <use xlink:href="#DejaVuSans-69" transform="translate(453.222656 0)"/>
      <use xlink:href="#DejaVuSans-6e" transform="translate(481.005859 0)"/>
      <use xlink:href="#DejaVuSans-67" transform="translate(544.384766 0)"/>
      <use xlink:href="#DejaVuSans-20" transform="translate(607.861328 0)"/>
      <use xlink:href="#DejaVuSans-28" transform="translate(639.648438 0)"/>
      <use xlink:href="#DejaVuSans-54" transform="translate(678.662109 0)"/>
      <use xlink:href="#DejaVuSans-30" transform="translate(739.746094 0)"/>
      <use xlink:href="#DejaVuSans-29" transform="translate(803.369141 0)"/>
     </g>
    </g>
   </g>
   <g id="text_8">
    <g clip-path="url(#p75b4855fe2)">
     <!-- I eat more lean -->
     <g transform="translate(121.711977 238.220234) scale(0.08 -0.08)">
      <use xlink:href="#DejaVuSans-49"/>
      <use xlink:href="#DejaVuSans-20" transform="translate(29.492188 0)"/>
      <use xlink:href="#DejaVuSans-65" transform="translate(61.279297 0)"/>
      <use xlink:href="#DejaVuSans-61" transform="translate(122.802734 0)"/>
      <use xlink:href="#DejaVuSans-74" transform="translate(184.082031 0)"/>
      <use xlink:href="#DejaVuSans-20" transform="translate(223.291016 0)"/>
      <use xlink:href="#DejaVuSans-6d" transform="translate(255.078125 0)"/>
      <use xlink:href="#DejaVuSans-6f" transform="translate(352.490234 0)"/>
      <use xlink:href="#DejaVuSans-72" transform="translate(413.671875 0)"/>
      <use xlink:href="#DejaVuSans-65" transform="translate(452.535156 0)"/>
      <use xlink:href="#DejaVuSans-20" transform="translate(514.058594 0)"/>
      <use xlink:href="#DejaVuSans-6c" transform="translate(545.845703 0)"/>
      <use xlink:href="#DejaVuSans-65" transform="translate(573.628906 0)"/>
      <use xlink:href="#DejaVuSans-61" transform="translate(635.152344 0)"/>
      <use xlink:href="#DejaVuSans-6e" transform="translate(696.431641 0)"/>
     </g>
    </g>
    <g clip-path="url(#p75b4855fe2)">
     <!-- meats to be -->
     <g transform="translate(128.085102 247.178484) scale(0.08 -0.08)">
      <use xlink:href="#DejaVuSans-6d"/>
      <use xlink:href="#DejaVuSans-65" transform="translate(97.412109 0)"/>
      <use xlink:href="#DejaVuSans-61" transform="translate(158.935547 0)"/>
      <use xlink:href="#DejaVuSans-74" transform="translate(220.214844 0)"/>
      <use xlink:href="#DejaVuSans-73" transform="translate(259.423828 0)"/>
      <use xlink:href="#DejaVuSans-20" transform="translate(311.523438 0)"/>
      <use xlink:href="#DejaVuSans-74" transform="translate(343.310547 0)"/>
      <use xlink:href="#DejaVuSans-6f" transform="translate(382.519531 0)"/>
      <use xlink:href="#DejaVuSans-20" transform="translate(443.701172 0)"/>
      <use xlink:href="#DejaVuSans-62" transform="translate(475.488281 0)"/>
      <use xlink:href="#DejaVuSans-65" transform="translate(538.964844 0)"/>
     </g>
    </g>
    <g clip-path="url(#p75b4855fe2)">
     <!-- healthy (T0) -->
     <g transform="translate(127.694477 256.136734) scale(0.08 -0.08)">
      <use xlink:href="#DejaVuSans-68"/>
      <use xlink:href="#DejaVuSans-65" transform="translate(63.378906 0)"/>
      <use xlink:href="#DejaVuSans-61" transform="translate(124.902344 0)"/>
      <use xlink:href="#DejaVuSans-6c" transform="translate(186.181641 0)"/>
      <use xlink:href="#DejaVuSans-74" transform="translate(213.964844 0)"/>
      <use xlink:href="#DejaVuSans-68" transform="translate(253.173828 0)"/>
      <use xlink:href="#DejaVuSans-79" transform="translate(316.552734 0)"/>
      <use xlink:href="#DejaVuSans-20" transform="translate(375.732422 0)"/>
      <use xlink:href="#DejaVuSans-28" transform="translate(407.519531 0)"/>
      <use xlink:href="#DejaVuSans-54" transform="translate(446.533203 0)"/>
      <use xlink:href="#DejaVuSans-30" transform="translate(507.617188 0)"/>
      <use xlink:href="#DejaVuSans-29" transform="translate(571.240234 0)"/>
     </g>
    </g>
   </g>
   <g id="text_9">
    <!-- Wave 1 (stances) -->
    <g transform="translate(131.252216 19.92) scale(0.12 -0.12)">
     <defs>
      <path id="DejaVuSans-57" d="M 213 4666 
L 850 4666 
L 1831 722 
L 2809 4666 
L 3519 4666 
L 4500 722 
L 5478 4666 
L 6119 4666 
L 4947 0 
L 4153 0 
L 3169 4050 
L 2175 0 
L 1381 0 
L 213 4666 
z
" transform="scale(0.015625)"/>
     </defs>
     <use xlink:href="#DejaVuSans-57"/>
     <use xlink:href="#DejaVuSans-61" transform="translate(92.501953 0)"/>
     <use xlink:href="#DejaVuSans-76" transform="translate(153.78125 0)"/>
     <use xlink:href="#DejaVuSans-65" transform="translate(212.960938 0)"/>
     <use xlink:href="#DejaVuSans-20" transform="translate(274.484375 0)"/>
     <use xlink:href="#DejaVuSans-31" transform="translate(306.271484 0)"/>
     <use xlink:href="#DejaVuSans-20" transform="translate(369.894531 0)"/>
     <use xlink:href="#DejaVuSans-28" transform="translate(401.681641 0)"/>
     <use xlink:href="#DejaVuSans-73" transform="translate(440.695312 0)"/>
     <use xlink:href="#DejaVuSans-74" transform="translate(492.794922 0)"/>
     <use xlink:href="#DejaVuSans-61" transform="translate(532.003906 0)"/>
     <use xlink:href="#DejaVuSans-6e" transform="translate(593.283203 0)"/>
     <use xlink:href="#DejaVuSans-63" transform="translate(656.662109 0)"/>
     <use xlink:href="#DejaVuSans-65" transform="translate(711.642578 0)"/>
     <use xlink:href="#DejaVuSans-73" transform="translate(773.166016 0)"/>
     <use xlink:href="#DejaVuSans-29" transform="translate(825.265625 0)"/>
    </g>
   </g>
  </g>
  <g id="axes_2">
   <g id="patch_3">
    <path d="M 385.491067 341.659843 
L 688.290752 341.659843 
L 688.290752 38.860157 
L 385.491067 38.860157 
L 385.491067 341.659843 
z
" clip-path="url(#pf270c9cf74)" style="fill: none; stroke: #000000; stroke-linejoin: miter"/>
   </g>
   <g id="LineCollection_2">
    <path d="M 413.234767 142.484937 
L 445.843964 109.358134 
" clip-path="url(#pf270c9cf74)" style="fill: none; stroke: #998ec3; stroke-width: 2.5"/>
    <path d="M 413.234767 142.484937 
L 510.027145 178.199772 
" clip-path="url(#pf270c9cf74)" style="fill: none; stroke: #f1a340; stroke-width: 2.5"/>
    <path d="M 560.752563 199.162827 
L 590.773728 127.474354 
" clip-path="url(#pf270c9cf74)" style="fill: none; stroke: #998ec3; stroke-width: 2.5"/>
    <path d="M 560.752563 199.162827 
L 516.238421 212.361787 
" clip-path="url(#pf270c9cf74)" style="fill: none; stroke: #998ec3; stroke-width: 2.5"/>
    <path d="M 560.752563 199.162827 
L 445.843964 109.358134 
" clip-path="url(#pf270c9cf74)" style="fill: none; stroke: #f1a340; stroke-width: 2.5"/>
    <path d="M 445.843964 109.358134 
L 590.773728 127.474354 
" clip-path="url(#pf270c9cf74)" style="fill: none; stroke: #1b9e77; stroke-width: 7"/>
    <path d="M 445.843964 109.358134 
L 510.027145 178.199772 
" clip-path="url(#pf270c9cf74)" style="fill: none; stroke: #998ec3; stroke-width: 2.5"/>
    <path d="M 516.238421 212.361787 
L 510.027145 178.199772 
" clip-path="url(#pf270c9cf74)" style="fill: none; stroke: #998ec3; stroke-width: 2.5"/>
    <path d="M 516.238421 212.361787 
L 567.481445 102.629252 
" clip-path="url(#pf270c9cf74)" style="fill: none; stroke: #f1a340; stroke-width: 2.5"/>
    <path d="M 567.481445 102.629252 
L 590.773728 127.474354 
" clip-path="url(#pf270c9cf74)" style="fill: none; stroke: #998ec3; stroke-width: 2.5"/>
   </g>
   <g id="PathCollection_2">
    <path d="M 413.234767 149.901135 
C 415.201566 149.901135 417.088075 149.119718 418.478812 147.728981 
C 419.869548 146.338244 420.650966 144.451736 420.650966 142.484937 
C 420.650966 140.518138 419.869548 138.63163 418.478812 137.240893 
C 417.088075 135.850156 415.201566 135.068739 413.234767 135.068739 
C 411.267969 135.068739 409.38146 135.850156 407.990723 137.240893 
C 406.599986 138.63163 405.818569 140.518138 405.818569 142.484937 
C 405.818569 144.451736 406.599986 146.338244 407.990723 147.728981 
C 409.38146 149.119718 411.267969 149.901135 413.234767 149.901135 
z
" clip-path="url(#pf270c9cf74)" style="fill: #1f77b4; stroke: #000000; stroke-width: 0.6"/>
    <path d="M 560.752563 207.982223 
C 563.091494 207.982223 565.334943 207.052956 566.988817 205.399081 
C 568.642691 203.745207 569.571959 201.501758 569.571959 199.162827 
C 569.571959 196.823896 568.642691 194.580446 566.988817 192.926572 
C 565.334943 191.272698 563.091494 190.343431 560.752563 190.343431 
C 558.413631 190.343431 556.170182 191.272698 554.516308 192.926572 
C 552.862434 194.580446 551.933167 196.823896 551.933167 199.162827 
C 551.933167 201.501758 552.862434 203.745207 554.516308 205.399081 
C 556.170182 207.052956 558.413631 207.982223 560.752563 207.982223 
z
" clip-path="url(#pf270c9cf74)" style="fill: #aec7e8; stroke: #000000; stroke-width: 0.6"/>
    <path d="M 445.843964 116.774332 
C 447.810763 116.774332 449.697272 115.992915 451.088008 114.602178 
C 452.478745 113.211441 453.260163 111.324933 453.260163 109.358134 
C 453.260163 107.391335 452.478745 105.504826 451.088008 104.11409 
C 449.697272 102.723353 447.810763 101.941935 445.843964 101.941935 
C 443.877165 101.941935 441.990657 102.723353 440.59992 104.11409 
C 439.209183 105.504826 438.427766 107.391335 438.427766 109.358134 
C 438.427766 111.324933 439.209183 113.211441 440.59992 114.602178 
C 441.990657 115.992915 443.877165 116.774332 445.843964 116.774332 
z
" clip-path="url(#pf270c9cf74)" style="fill: #ff7f0e; stroke: #000000; stroke-width: 0.6"/>
    <path d="M 516.238421 219.777986 
C 518.20522 219.777986 520.091728 218.996568 521.482465 217.605832 
C 522.873202 216.215095 523.654619 214.328586 523.654619 212.361787 
C 523.654619 210.394989 522.873202 208.50848 521.482465 207.117743 
C 520.091728 205.727006 518.20522 204.945589 516.238421 204.945589 
C 514.271622 204.945589 512.385113 205.727006 510.994377 207.117743 
C 509.60364 208.50848 508.822222 210.394989 508.822222 212.361787 
C 508.822222 214.328586 509.60364 216.215095 510.994377 217.605832 
C 512.385113 218.996568 514.271622 219.777986 516.238421 219.777986 
z
" clip-path="url(#pf270c9cf74)" style="fill: #2ca02c; stroke: #000000; stroke-width: 0.6"/>
    <path d="M 510.027145 185.61597 
C 511.993944 185.61597 513.880453 184.834553 515.27119 183.443816 
C 516.661926 182.053079 517.443344 180.16657 517.443344 178.199772 
C 517.443344 176.232973 516.661926 174.346464 515.27119 172.955727 
C 513.880453 171.564991 511.993944 170.783573 510.027145 170.783573 
C 508.060346 170.783573 506.173838 171.564991 504.783101 172.955727 
C 503.392364 174.346464 502.610947 176.232973 502.610947 178.199772 
C 502.610947 180.16657 503.392364 182.053079 504.783101 183.443816 
C 506.173838 184.834553 508.060346 185.61597 510.027145 185.61597 
z
" clip-path="url(#pf270c9cf74)" style="fill: #98df8a; stroke: #000000; stroke-width: 0.6"/>
    <path d="M 567.481445 110.04545 
C 569.448243 110.04545 571.334752 109.264033 572.725489 107.873296 
C 574.116226 106.482559 574.897643 104.596051 574.897643 102.629252 
C 574.897643 100.662453 574.116226 98.775945 572.725489 97.385208 
C 571.334752 95.994471 569.448243 95.213053 567.481445 95.213053 
C 565.514646 95.213053 563.628137 95.994471 562.2374 97.385208 
C 560.846664 98.775945 560.065246 100.662453 560.065246 102.629252 
C 560.065246 104.596051 560.846664 106.482559 562.2374 107.873296 
C 563.628137 109.264033 565.514646 110.04545 567.481445 110.04545 
z
" clip-path="url(#pf270c9cf74)" style="fill: #ff9896; stroke: #000000; stroke-width: 0.6"/>
    <path d="M 590.773728 134.890553 
C 592.740527 134.890553 594.627035 134.109135 596.017772 132.718399 
C 597.408509 131.327662 598.189926 129.441153 598.189926 127.474354 
C 598.189926 125.507555 597.408509 123.621047 596.017772 122.23031 
C 594.627035 120.839573 592.740527 120.058156 590.773728 120.058156 
C 588.806929 120.058156 586.920421 120.839573 585.529684 122.23031 
C 584.138947 123.621047 583.35753 125.507555 583.35753 127.474354 
C 583.35753 129.441153 584.138947 131.327662 585.529684 132.718399 
C 586.920421 134.109135 588.806929 134.890553 590.773728 134.890553 
z
" clip-path="url(#pf270c9cf74)" style="fill: #9467bd; stroke: #000000; stroke-width: 0.6"/>
   </g>
   <g id="text_10">
    <g clip-path="url(#pf270c9cf74)">
     <!-- T-1 -->
     <g transform="translate(407.168517 144.692437) scale(0.08 -0.08)">
      <use xlink:href="#DejaVuSans-54"/>
      <use xlink:href="#DejaVuSans-2d" transform="translate(51.958984 0)"/>
      <use xlink:href="#DejaVuSans-31" transform="translate(88.042969 0)"/>
     </g>
    </g>
   </g>
   <g id="text_11">
    <g clip-path="url(#pf270c9cf74)">
     <!-- T0 -->
     <g transform="translate(555.764438 201.370327) scale(0.08 -0.08)">
      <use xlink:href="#DejaVuSans-54"/>
      <use xlink:href="#DejaVuSans-30" transform="translate(61.083984 0)"/>
     </g>
    </g>
   </g>
   <g id="text_12">
    <g clip-path="url(#pf270c9cf74)">
     <!-- T1 -->
     <g transform="translate(440.855839 111.565634) scale(0.08 -0.08)">
      <use xlink:href="#DejaVuSans-54"/>
      <use xlink:href="#DejaVuSans-31" transform="translate(61.083984 0)"/>
     </g>
    </g>
   </g>
   <g id="text_13">
    <g clip-path="url(#pf270c9cf74)">
     <!-- T3 -->
     <g transform="translate(511.250296 214.569287) scale(0.08 -0.08)">
      <use xlink:href="#DejaVuSans-54"/>
      <use xlink:href="#DejaVuSans-33" transform="translate(61.083984 0)"/>
     </g>
    </g>
   </g>
   <g id="text_14">
    <g clip-path="url(#pf270c9cf74)">
     <!-- T6 -->
     <g transform="translate(505.03902 180.407272) scale(0.08 -0.08)">
      <use xlink:href="#DejaVuSans-54"/>
      <use xlink:href="#DejaVuSans-36" transform="translate(61.083984 0)"/>
     </g>
    </g>
   </g>
   <g id="text_15">
    <g clip-path="url(#pf270c9cf74)">
     <!-- T11 -->
     <g transform="translate(559.94832 104.836752) scale(0.08 -0.08)">
      <use xlink:href="#DejaVuSans-54"/>
      <use xlink:href="#DejaVuSans-31" transform="translate(61.083984 0)"/>
      <use xlink:href="#DejaVuSans-31" transform="translate(124.707031 0)"/>
     </g>
    </g>
   </g>
   <g id="text_16">
    <g clip-path="url(#pf270c9cf74)">
     <!-- T13 -->
     <g transform="translate(583.240603 129.681854) scale(0.08 -0.08)">
      <use xlink:href="#DejaVuSans-54"/>
      <use xlink:href="#DejaVuSans-31" transform="translate(61.083984 0)"/>
      <use xlink:href="#DejaVuSans-33" transform="translate(124.707031 0)"/>
     </g>
    </g>
   </g>
   <g id="text_17">
    <!-- Wave 1 (topics) -->
    <g transform="translate(490.183722 19.92) scale(0.12 -0.12)">
     <use xlink:href="#DejaVuSans-57"/>
     <use xlink:href="#DejaVuSans-61" transform="translate(92.501953 0)"/>
     <use xlink:href="#DejaVuSans-76" transform="translate(153.78125 0)"/>
     <use xlink:href="#DejaVuSans-65" transform="translate(212.960938 0)"/>
     <use xlink:href="#DejaVuSans-20" transform="translate(274.484375 0)"/>
     <use xlink:href="#DejaVuSans-31" transform="translate(306.271484 0)"/>
     <use xlink:href="#DejaVuSans-20" transform="translate(369.894531 0)"/>
     <use xlink:href="#DejaVuSans-28" transform="translate(401.681641 0)"/>
     <use xlink:href="#DejaVuSans-74" transform="translate(440.695312 0)"/>
     <use xlink:href="#DejaVuSans-6f" transform="translate(479.904297 0)"/>
     <use xlink:href="#DejaVuSans-70" transform="translate(541.085938 0)"/>
     <use xlink:href="#DejaVuSans-69" transform="translate(604.5625 0)"/>
     <use xlink:href="#DejaVuSans-63" transform="translate(632.345703 0)"/>
     <use xlink:href="#DejaVuSans-73" transform="translate(687.326172 0)"/>
     <use xlink:href="#DejaVuSans-29" transform="translate(739.425781 0)"/>
    </g>
   </g>
  </g>
  <g id="axes_3">
   <g id="patch_4">
    <path d="M 31.709248 696.259843 
L 334.508933 696.259843 
L 334.508933 393.460157 
L 31.709248 393.460157 
L 31.709248 696.259843 
z
" clip-path="url(#p04591ecf9e)" style="fill: none; stroke: #000000; stroke-linejoin: miter"/>
   </g>
   <g id="LineCollection_3">
    <path d="M 170.738304 440.66585 
L 242.685579 448.429945 
" clip-path="url(#p04591ecf9e)" style="fill: none; stroke: #1b9e77; stroke-width: 3"/>
    <path d="M 170.738304 440.66585 
L 80.674807 491.391268 
" clip-path="url(#p04591ecf9e)" style="fill: none; stroke: #998ec3; stroke-width: 3"/>
    <path d="M 170.738304 440.66585 
L 227.674996 512.09552 
" clip-path="url(#p04591ecf9e)" style="fill: none; stroke: #998ec3; stroke-width: 3"/>
    <path d="M 170.738304 440.66585 
L 225.604571 529.694134 
" clip-path="url(#p04591ecf9e)" style="fill: none; stroke: #f1a340; stroke-width: 3"/>
   </g>
   <g id="PathCollection_3">
    <path d="M 170.738304 446.990406 
C 172.415595 446.990406 174.024415 446.324011 175.210439 445.137986 
C 176.396464 443.951962 177.062859 442.343142 177.062859 440.66585 
C 177.062859 438.988559 176.396464 437.379739 175.210439 436.193714 
C 174.024415 435.00769 172.415595 434.341295 170.738304 434.341295 
C 169.061012 434.341295 167.452192 435.00769 166.266168 436.193714 
C 165.080143 437.379739 164.413748 438.988559 164.413748 440.66585 
C 164.413748 442.343142 165.080143 443.951962 166.266168 445.137986 
C 167.452192 446.324011 169.061012 446.990406 170.738304 446.990406 
z
" clip-path="url(#p04591ecf9e)" style="fill: #ff7f0e; stroke: #000000; stroke-width: 0.6"/>
    <path d="M 227.674996 518.420075 
C 229.352288 518.420075 230.961108 517.75368 232.147132 516.567656 
C 233.333157 515.381631 233.999552 513.772811 233.999552 512.09552 
C 233.999552 510.418228 233.333157 508.809408 232.147132 507.623384 
C 230.961108 506.437359 229.352288 505.770964 227.674996 505.770964 
C 225.997705 505.770964 224.388885 506.437359 223.20286 507.623384 
C 222.016836 508.809408 221.350441 510.418228 221.350441 512.09552 
C 221.350441 513.772811 222.016836 515.381631 223.20286 516.567656 
C 224.388885 517.75368 225.997705 518.420075 227.674996 518.420075 
z
" clip-path="url(#p04591ecf9e)" style="fill: #ffbb78; stroke: #000000; stroke-width: 0.6"/>
    <path d="M 225.604571 536.018689 
C 227.281863 536.018689 228.890683 535.352294 230.076707 534.16627 
C 231.262732 532.980245 231.929127 531.371426 231.929127 529.694134 
C 231.929127 528.016842 231.262732 526.408022 230.076707 525.221998 
C 228.890683 524.035974 227.281863 523.369579 225.604571 523.369579 
C 223.92728 523.369579 222.31846 524.035974 221.132435 525.221998 
C 219.946411 526.408022 219.280016 528.016842 219.280016 529.694134 
C 219.280016 531.371426 219.946411 532.980245 221.132435 534.16627 
C 222.31846 535.352294 223.92728 536.018689 225.604571 536.018689 
z
" clip-path="url(#p04591ecf9e)" style="fill: #ff7f0e; stroke: #000000; stroke-width: 0.6"/>
    <path d="M 80.674807 497.715823 
C 82.352099 497.715823 83.960919 497.049428 85.146943 495.863404 
C 86.332968 494.677379 86.999363 493.068559 86.999363 491.391268 
C 86.999363 489.713976 86.332968 488.105156 85.146943 486.919132 
C 83.960919 485.733107 82.352099 485.066712 80.674807 485.066712 
C 78.997516 485.066712 77.388696 485.733107 76.202671 486.919132 
C 75.016647 488.105156 74.350252 489.713976 74.350252 491.391268 
C 74.350252 493.068559 75.016647 494.677379 76.202671 495.863404 
C 77.388696 497.049428 78.997516 497.715823 80.674807 497.715823 
z
" clip-path="url(#p04591ecf9e)" style="fill: #ff9896; stroke: #000000; stroke-width: 0.6"/>
    <path d="M 84.815658 518.937681 
C 86.49295 518.937681 88.101769 518.271286 89.287794 517.085262 
C 90.473818 515.899238 91.140213 514.290418 91.140213 512.613126 
C 91.140213 510.935834 90.473818 509.327014 89.287794 508.14099 
C 88.101769 506.954966 86.49295 506.288571 84.815658 506.288571 
C 83.138366 506.288571 81.529546 506.954966 80.343522 508.14099 
C 79.157498 509.327014 78.491103 510.935834 78.491103 512.613126 
C 78.491103 514.290418 79.157498 515.899238 80.343522 517.085262 
C 81.529546 518.271286 83.138366 518.937681 84.815658 518.937681 
z
" clip-path="url(#p04591ecf9e)" style="fill: #1f77b4; stroke: #000000; stroke-width: 0.6"/>
    <path d="M 242.685579 454.7545 
C 244.362871 454.7545 245.971691 454.088105 247.157715 452.902081 
C 248.343739 451.716057 249.010134 450.107237 249.010134 448.429945 
C 249.010134 446.752653 248.343739 445.143833 247.157715 443.957809 
C 245.971691 442.771785 244.362871 442.10539 242.685579 442.10539 
C 241.008287 442.10539 239.399467 442.771785 238.213443 443.957809 
C 237.027419 445.143833 236.361024 446.752653 236.361024 448.429945 
C 236.361024 450.107237 237.027419 451.716057 238.213443 452.902081 
C 239.399467 454.088105 241.008287 454.7545 242.685579 454.7545 
z
" clip-path="url(#p04591ecf9e)" style="fill: #d62728; stroke: #000000; stroke-width: 0.6"/>
   </g>
   <g id="text_18">
    <g clip-path="url(#p04591ecf9e)">
     <!-- I cook meat for -->
     <g transform="translate(140.457054 433.9151) scale(0.08 -0.08)">
      <use xlink:href="#DejaVuSans-49"/>
      <use xlink:href="#DejaVuSans-20" transform="translate(29.492188 0)"/>
      <use xlink:href="#DejaVuSans-63" transform="translate(61.279297 0)"/>
      <use xlink:href="#DejaVuSans-6f" transform="translate(116.259766 0)"/>
      <use xlink:href="#DejaVuSans-6f" transform="translate(177.441406 0)"/>
      <use xlink:href="#DejaVuSans-6b" transform="translate(238.623047 0)"/>
      <use xlink:href="#DejaVuSans-20" transform="translate(296.533203 0)"/>
      <use xlink:href="#DejaVuSans-6d" transform="translate(328.320312 0)"/>
      <use xlink:href="#DejaVuSans-65" transform="translate(425.732422 0)"/>
      <use xlink:href="#DejaVuSans-61" transform="translate(487.255859 0)"/>
      <use xlink:href="#DejaVuSans-74" transform="translate(548.535156 0)"/>
      <use xlink:href="#DejaVuSans-20" transform="translate(587.744141 0)"/>
      <use xlink:href="#DejaVuSans-66" transform="translate(619.53125 0)"/>
      <use xlink:href="#DejaVuSans-6f" transform="translate(654.736328 0)"/>
      <use xlink:href="#DejaVuSans-72" transform="translate(715.917969 0)"/>
     </g>
    </g>
    <g clip-path="url(#p04591ecf9e)">
     <!-- family preferences -->
     <g transform="translate(133.402054 442.87335) scale(0.08 -0.08)">
      <use xlink:href="#DejaVuSans-66"/>
      <use xlink:href="#DejaVuSans-61" transform="translate(35.205078 0)"/>
      <use xlink:href="#DejaVuSans-6d" transform="translate(96.484375 0)"/>
      <use xlink:href="#DejaVuSans-69" transform="translate(193.896484 0)"/>
      <use xlink:href="#DejaVuSans-6c" transform="translate(221.679688 0)"/>
      <use xlink:href="#DejaVuSans-79" transform="translate(249.462891 0)"/>
      <use xlink:href="#DejaVuSans-20" transform="translate(308.642578 0)"/>
      <use xlink:href="#DejaVuSans-70" transform="translate(340.429688 0)"/>
      <use xlink:href="#DejaVuSans-72" transform="translate(403.90625 0)"/>
      <use xlink:href="#DejaVuSans-65" transform="translate(442.769531 0)"/>
      <use xlink:href="#DejaVuSans-66" transform="translate(504.292969 0)"/>
      <use xlink:href="#DejaVuSans-65" transform="translate(539.498047 0)"/>
      <use xlink:href="#DejaVuSans-72" transform="translate(601.021484 0)"/>
      <use xlink:href="#DejaVuSans-65" transform="translate(639.884766 0)"/>
      <use xlink:href="#DejaVuSans-6e" transform="translate(701.408203 0)"/>
      <use xlink:href="#DejaVuSans-63" transform="translate(764.787109 0)"/>
      <use xlink:href="#DejaVuSans-65" transform="translate(819.767578 0)"/>
      <use xlink:href="#DejaVuSans-73" transform="translate(881.291016 0)"/>
     </g>
    </g>
    <g clip-path="url(#p04591ecf9e)">
     <!-- (T1) -->
     <g transform="translate(162.628929 451.8316) scale(0.08 -0.08)">
      <use xlink:href="#DejaVuSans-28"/>
      <use xlink:href="#DejaVuSans-54" transform="translate(39.013672 0)"/>
      <use xlink:href="#DejaVuSans-31" transform="translate(100.097656 0)"/>
      <use xlink:href="#DejaVuSans-29" transform="translate(163.720703 0)"/>
     </g>
    </g>
   </g>
   <g id="text_19">
    <g clip-path="url(#p04591ecf9e)">
     <!-- I choose leaner -->
     <g transform="translate(197.113746 509.823895) scale(0.08 -0.08)">
      <use xlink:href="#DejaVuSans-49"/>
      <use xlink:href="#DejaVuSans-20" transform="translate(29.492188 0)"/>
      <use xlink:href="#DejaVuSans-63" transform="translate(61.279297 0)"/>
      <use xlink:href="#DejaVuSans-68" transform="translate(116.259766 0)"/>
      <use xlink:href="#DejaVuSans-6f" transform="translate(179.638672 0)"/>
      <use xlink:href="#DejaVuSans-6f" transform="translate(240.820312 0)"/>
      <use xlink:href="#DejaVuSans-73" transform="translate(302.001953 0)"/>
      <use xlink:href="#DejaVuSans-65" transform="translate(354.101562 0)"/>
      <use xlink:href="#DejaVuSans-20" transform="translate(415.625 0)"/>
      <use xlink:href="#DejaVuSans-6c" transform="translate(447.412109 0)"/>
      <use xlink:href="#DejaVuSans-65" transform="translate(475.195312 0)"/>
      <use xlink:href="#DejaVuSans-61" transform="translate(536.71875 0)"/>
      <use xlink:href="#DejaVuSans-6e" transform="translate(597.998047 0)"/>
      <use xlink:href="#DejaVuSans-65" transform="translate(661.376953 0)"/>
      <use xlink:href="#DejaVuSans-72" transform="translate(722.900391 0)"/>
     </g>
    </g>
    <g clip-path="url(#p04591ecf9e)">
     <!-- meat options (T2) -->
     <g transform="translate(191.913746 518.782145) scale(0.08 -0.08)">
      <defs>
       <path id="DejaVuSans-32" d="M 1228 531 
L 3431 531 
L 3431 0 
L 469 0 
L 469 531 
Q 828 903 1448 1529 
Q 2069 2156 2228 2338 
Q 2531 2678 2651 2914 
Q 2772 3150 2772 3378 
Q 2772 3750 2511 3984 
Q 2250 4219 1831 4219 
Q 1534 4219 1204 4116 
Q 875 4013 500 3803 
L 500 4441 
Q 881 4594 1212 4672 
Q 1544 4750 1819 4750 
Q 2544 4750 2975 4387 
Q 3406 4025 3406 3419 
Q 3406 3131 3298 2873 
Q 3191 2616 2906 2266 
Q 2828 2175 2409 1742 
Q 1991 1309 1228 531 
z
" transform="scale(0.015625)"/>
      </defs>
      <use xlink:href="#DejaVuSans-6d"/>
      <use xlink:href="#DejaVuSans-65" transform="translate(97.412109 0)"/>
      <use xlink:href="#DejaVuSans-61" transform="translate(158.935547 0)"/>
      <use xlink:href="#DejaVuSans-74" transform="translate(220.214844 0)"/>
      <use xlink:href="#DejaVuSans-20" transform="translate(259.423828 0)"/>
      <use xlink:href="#DejaVuSans-6f" transform="translate(291.210938 0)"/>
      <use xlink:href="#DejaVuSans-70" transform="translate(352.392578 0)"/>
      <use xlink:href="#DejaVuSans-74" transform="translate(415.869141 0)"/>
      <use xlink:href="#DejaVuSans-69" transform="translate(455.078125 0)"/>
      <use xlink:href="#DejaVuSans-6f" transform="translate(482.861328 0)"/>
      <use xlink:href="#DejaVuSans-6e" transform="translate(544.042969 0)"/>
      <use xlink:href="#DejaVuSans-73" transform="translate(607.421875 0)"/>
      <use xlink:href="#DejaVuSans-20" transform="translate(659.521484 0)"/>
      <use xlink:href="#DejaVuSans-28" transform="translate(691.308594 0)"/>
      <use xlink:href="#DejaVuSans-54" transform="translate(730.322266 0)"/>
      <use xlink:href="#DejaVuSans-32" transform="translate(791.40625 0)"/>
      <use xlink:href="#DejaVuSans-29" transform="translate(855.029297 0)"/>
     </g>
    </g>
   </g>
   <g id="text_20">
    <g clip-path="url(#p04591ecf9e)">
     <!-- My family eats -->
     <g transform="translate(196.333321 522.943384) scale(0.08 -0.08)">
      <use xlink:href="#DejaVuSans-4d"/>
      <use xlink:href="#DejaVuSans-79" transform="translate(86.279297 0)"/>
      <use xlink:href="#DejaVuSans-20" transform="translate(145.458984 0)"/>
      <use xlink:href="#DejaVuSans-66" transform="translate(177.246094 0)"/>
      <use xlink:href="#DejaVuSans-61" transform="translate(212.451172 0)"/>
      <use xlink:href="#DejaVuSans-6d" transform="translate(273.730469 0)"/>
      <use xlink:href="#DejaVuSans-69" transform="translate(371.142578 0)"/>
      <use xlink:href="#DejaVuSans-6c" transform="translate(398.925781 0)"/>
      <use xlink:href="#DejaVuSans-79" transform="translate(426.708984 0)"/>
      <use xlink:href="#DejaVuSans-20" transform="translate(485.888672 0)"/>
      <use xlink:href="#DejaVuSans-65" transform="translate(517.675781 0)"/>
      <use xlink:href="#DejaVuSans-61" transform="translate(579.199219 0)"/>
      <use xlink:href="#DejaVuSans-74" transform="translate(640.478516 0)"/>
      <use xlink:href="#DejaVuSans-73" transform="translate(679.6875 0)"/>
     </g>
    </g>
    <g clip-path="url(#p04591ecf9e)">
     <!-- more meat than I -->
     <g transform="translate(190.785196 531.901634) scale(0.08 -0.08)">
      <use xlink:href="#DejaVuSans-6d"/>
      <use xlink:href="#DejaVuSans-6f" transform="translate(97.412109 0)"/>
      <use xlink:href="#DejaVuSans-72" transform="translate(158.59375 0)"/>
      <use xlink:href="#DejaVuSans-65" transform="translate(197.457031 0)"/>
      <use xlink:href="#DejaVuSans-20" transform="translate(258.980469 0)"/>
      <use xlink:href="#DejaVuSans-6d" transform="translate(290.767578 0)"/>
      <use xlink:href="#DejaVuSans-65" transform="translate(388.179688 0)"/>
      <use xlink:href="#DejaVuSans-61" transform="translate(449.703125 0)"/>
      <use xlink:href="#DejaVuSans-74" transform="translate(510.982422 0)"/>
      <use xlink:href="#DejaVuSans-20" transform="translate(550.191406 0)"/>
      <use xlink:href="#DejaVuSans-74" transform="translate(581.978516 0)"/>
      <use xlink:href="#DejaVuSans-68" transform="translate(621.1875 0)"/>
      <use xlink:href="#DejaVuSans-61" transform="translate(684.566406 0)"/>
      <use xlink:href="#DejaVuSans-6e" transform="translate(745.845703 0)"/>
      <use xlink:href="#DejaVuSans-20" transform="translate(809.224609 0)"/>
      <use xlink:href="#DejaVuSans-49" transform="translate(841.011719 0)"/>
     </g>
    </g>
    <g clip-path="url(#p04591ecf9e)">
     <!-- do (T1) -->
     <g transform="translate(211.237071 540.859884) scale(0.08 -0.08)">
      <use xlink:href="#DejaVuSans-64"/>
      <use xlink:href="#DejaVuSans-6f" transform="translate(63.476562 0)"/>
      <use xlink:href="#DejaVuSans-20" transform="translate(124.658203 0)"/>
      <use xlink:href="#DejaVuSans-28" transform="translate(156.445312 0)"/>
      <use xlink:href="#DejaVuSans-54" transform="translate(195.458984 0)"/>
      <use xlink:href="#DejaVuSans-31" transform="translate(256.542969 0)"/>
      <use xlink:href="#DejaVuSans-29" transform="translate(320.166016 0)"/>
     </g>
    </g>
   </g>
   <g id="text_21">
    <g clip-path="url(#p04591ecf9e)">
     <!-- I avoid fatty -->
     <g transform="translate(56.672307 489.119643) scale(0.08 -0.08)">
      <use xlink:href="#DejaVuSans-49"/>
      <use xlink:href="#DejaVuSans-20" transform="translate(29.492188 0)"/>
      <use xlink:href="#DejaVuSans-61" transform="translate(61.279297 0)"/>
      <use xlink:href="#DejaVuSans-76" transform="translate(122.558594 0)"/>
      <use xlink:href="#DejaVuSans-6f" transform="translate(181.738281 0)"/>
      <use xlink:href="#DejaVuSans-69" transform="translate(242.919922 0)"/>
      <use xlink:href="#DejaVuSans-64" transform="translate(270.703125 0)"/>
      <use xlink:href="#DejaVuSans-20" transform="translate(334.179688 0)"/>
      <use xlink:href="#DejaVuSans-66" transform="translate(365.966797 0)"/>
      <use xlink:href="#DejaVuSans-61" transform="translate(401.171875 0)"/>
      <use xlink:href="#DejaVuSans-74" transform="translate(462.451172 0)"/>
      <use xlink:href="#DejaVuSans-74" transform="translate(501.660156 0)"/>
      <use xlink:href="#DejaVuSans-79" transform="translate(540.869141 0)"/>
     </g>
    </g>
    <g clip-path="url(#p04591ecf9e)">
     <!-- meats (T11) -->
     <g transform="translate(56.288557 498.077893) scale(0.08 -0.08)">
      <use xlink:href="#DejaVuSans-6d"/>
      <use xlink:href="#DejaVuSans-65" transform="translate(97.412109 0)"/>
      <use xlink:href="#DejaVuSans-61" transform="translate(158.935547 0)"/>
      <use xlink:href="#DejaVuSans-74" transform="translate(220.214844 0)"/>
      <use xlink:href="#DejaVuSans-73" transform="translate(259.423828 0)"/>
      <use xlink:href="#DejaVuSans-20" transform="translate(311.523438 0)"/>
      <use xlink:href="#DejaVuSans-28" transform="translate(343.310547 0)"/>
      <use xlink:href="#DejaVuSans-54" transform="translate(382.324219 0)"/>
      <use xlink:href="#DejaVuSans-31" transform="translate(443.408203 0)"/>
      <use xlink:href="#DejaVuSans-31" transform="translate(507.03125 0)"/>
      <use xlink:href="#DejaVuSans-29" transform="translate(570.654297 0)"/>
     </g>
    </g>
   </g>
   <g id="text_22">
    <g clip-path="url(#p04591ecf9e)">
     <!-- I eat whatever I -->
     <g transform="translate(53.401283 510.341501) scale(0.08 -0.08)">
      <use xlink:href="#DejaVuSans-49"/>
      <use xlink:href="#DejaVuSans-20" transform="translate(29.492188 0)"/>
      <use xlink:href="#DejaVuSans-65" transform="translate(61.279297 0)"/>
      <use xlink:href="#DejaVuSans-61" transform="translate(122.802734 0)"/>
      <use xlink:href="#DejaVuSans-74" transform="translate(184.082031 0)"/>
      <use xlink:href="#DejaVuSans-20" transform="translate(223.291016 0)"/>
      <use xlink:href="#DejaVuSans-77" transform="translate(255.078125 0)"/>
      <use xlink:href="#DejaVuSans-68" transform="translate(336.865234 0)"/>
      <use xlink:href="#DejaVuSans-61" transform="translate(400.244141 0)"/>
      <use xlink:href="#DejaVuSans-74" transform="translate(461.523438 0)"/>
      <use xlink:href="#DejaVuSans-65" transform="translate(500.732422 0)"/>
      <use xlink:href="#DejaVuSans-76" transform="translate(562.255859 0)"/>
      <use xlink:href="#DejaVuSans-65" transform="translate(621.435547 0)"/>
      <use xlink:href="#DejaVuSans-72" transform="translate(682.958984 0)"/>
      <use xlink:href="#DejaVuSans-20" transform="translate(724.072266 0)"/>
      <use xlink:href="#DejaVuSans-49" transform="translate(755.859375 0)"/>
     </g>
    </g>
    <g clip-path="url(#p04591ecf9e)">
     <!-- am craving (T-1) -->
     <g transform="translate(51.890033 519.299751) scale(0.08 -0.08)">
      <use xlink:href="#DejaVuSans-61"/>
      <use xlink:href="#DejaVuSans-6d" transform="translate(61.279297 0)"/>
      <use xlink:href="#DejaVuSans-20" transform="translate(158.691406 0)"/>
      <use xlink:href="#DejaVuSans-63" transform="translate(190.478516 0)"/>
      <use xlink:href="#DejaVuSans-72" transform="translate(245.458984 0)"/>
      <use xlink:href="#DejaVuSans-61" transform="translate(286.572266 0)"/>
      <use xlink:href="#DejaVuSans-76" transform="translate(347.851562 0)"/>
      <use xlink:href="#DejaVuSans-69" transform="translate(407.03125 0)"/>
      <use xlink:href="#DejaVuSans-6e" transform="translate(434.814453 0)"/>
      <use xlink:href="#DejaVuSans-67" transform="translate(498.193359 0)"/>
      <use xlink:href="#DejaVuSans-20" transform="translate(561.669922 0)"/>
      <use xlink:href="#DejaVuSans-28" transform="translate(593.457031 0)"/>
      <use xlink:href="#DejaVuSans-54" transform="translate(632.470703 0)"/>
      <use xlink:href="#DejaVuSans-2d" transform="translate(684.429688 0)"/>
      <use xlink:href="#DejaVuSans-31" transform="translate(720.513672 0)"/>
      <use xlink:href="#DejaVuSans-29" transform="translate(784.136719 0)"/>
     </g>
    </g>
   </g>
   <g id="text_23">
    <g clip-path="url(#p04591ecf9e)">
     <!-- Taste motivates me -->
     <g transform="translate(203.483079 446.15832) scale(0.08 -0.08)">
      <use xlink:href="#DejaVuSans-54"/>
      <use xlink:href="#DejaVuSans-61" transform="translate(44.583984 0)"/>
      <use xlink:href="#DejaVuSans-73" transform="translate(105.863281 0)"/>
      <use xlink:href="#DejaVuSans-74" transform="translate(157.962891 0)"/>
      <use xlink:href="#DejaVuSans-65" transform="translate(197.171875 0)"/>
      <use xlink:href="#DejaVuSans-20" transform="translate(258.695312 0)"/>
      <use xlink:href="#DejaVuSans-6d" transform="translate(290.482422 0)"/>
      <use xlink:href="#DejaVuSans-6f" transform="translate(387.894531 0)"/>
      <use xlink:href="#DejaVuSans-74" transform="translate(449.076172 0)"/>
      <use xlink:href="#DejaVuSans-69" transform="translate(488.285156 0)"/>
      <use xlink:href="#DejaVuSans-76" transform="translate(516.068359 0)"/>
      <use xlink:href="#DejaVuSans-61" transform="translate(575.248047 0)"/>
      <use xlink:href="#DejaVuSans-74" transform="translate(636.527344 0)"/>
      <use xlink:href="#DejaVuSans-65" transform="translate(675.736328 0)"/>
      <use xlink:href="#DejaVuSans-73" transform="translate(737.259766 0)"/>
      <use xlink:href="#DejaVuSans-20" transform="translate(789.359375 0)"/>
      <use xlink:href="#DejaVuSans-6d" transform="translate(821.146484 0)"/>
      <use xlink:href="#DejaVuSans-65" transform="translate(918.558594 0)"/>
     </g>
    </g>
    <g clip-path="url(#p04591ecf9e)">
     <!-- to eat meat (T9) -->
     <g transform="translate(209.889329 455.11657) scale(0.08 -0.08)">
      <defs>
       <path id="DejaVuSans-39" d="M 703 97 
L 703 672 
Q 941 559 1184 500 
Q 1428 441 1663 441 
Q 2288 441 2617 861 
Q 2947 1281 2994 2138 
Q 2813 1869 2534 1725 
Q 2256 1581 1919 1581 
Q 1219 1581 811 2004 
Q 403 2428 403 3163 
Q 403 3881 828 4315 
Q 1253 4750 1959 4750 
Q 2769 4750 3195 4129 
Q 3622 3509 3622 2328 
Q 3622 1225 3098 567 
Q 2575 -91 1691 -91 
Q 1453 -91 1209 -44 
Q 966 3 703 97 
z
M 1959 2075 
Q 2384 2075 2632 2365 
Q 2881 2656 2881 3163 
Q 2881 3666 2632 3958 
Q 2384 4250 1959 4250 
Q 1534 4250 1286 3958 
Q 1038 3666 1038 3163 
Q 1038 2656 1286 2365 
Q 1534 2075 1959 2075 
z
" transform="scale(0.015625)"/>
      </defs>
      <use xlink:href="#DejaVuSans-74"/>
      <use xlink:href="#DejaVuSans-6f" transform="translate(39.208984 0)"/>
      <use xlink:href="#DejaVuSans-20" transform="translate(100.390625 0)"/>
      <use xlink:href="#DejaVuSans-65" transform="translate(132.177734 0)"/>
      <use xlink:href="#DejaVuSans-61" transform="translate(193.701172 0)"/>
      <use xlink:href="#DejaVuSans-74" transform="translate(254.980469 0)"/>
      <use xlink:href="#DejaVuSans-20" transform="translate(294.189453 0)"/>
      <use xlink:href="#DejaVuSans-6d" transform="translate(325.976562 0)"/>
      <use xlink:href="#DejaVuSans-65" transform="translate(423.388672 0)"/>
      <use xlink:href="#DejaVuSans-61" transform="translate(484.912109 0)"/>
      <use xlink:href="#DejaVuSans-74" transform="translate(546.191406 0)"/>
      <use xlink:href="#DejaVuSans-20" transform="translate(585.400391 0)"/>
      <use xlink:href="#DejaVuSans-28" transform="translate(617.1875 0)"/>
      <use xlink:href="#DejaVuSans-54" transform="translate(656.201172 0)"/>
      <use xlink:href="#DejaVuSans-39" transform="translate(717.285156 0)"/>
      <use xlink:href="#DejaVuSans-29" transform="translate(780.908203 0)"/>
     </g>
    </g>
   </g>
   <g id="text_24">
    <!-- Wave 2 (stances) -->
    <g transform="translate(131.252216 374.52) scale(0.12 -0.12)">
     <use xlink:href="#DejaVuSans-57"/>
     <use xlink:href="#DejaVuSans-61" transform="translate(92.501953 0)"/>
     <use xlink:href="#DejaVuSans-76" transform="translate(153.78125 0)"/>
     <use xlink:href="#DejaVuSans-65" transform="translate(212.960938 0)"/>
     <use xlink:href="#DejaVuSans-20" transform="translate(274.484375 0)"/>
     <use xlink:href="#DejaVuSans-32" transform="translate(306.271484 0)"/>
     <use xlink:href="#DejaVuSans-20" transform="translate(369.894531 0)"/>
     <use xlink:href="#DejaVuSans-28" transform="translate(401.681641 0)"/>
     <use xlink:href="#DejaVuSans-73" transform="translate(440.695312 0)"/>
     <use xlink:href="#DejaVuSans-74" transform="translate(492.794922 0)"/>
     <use xlink:href="#DejaVuSans-61" transform="translate(532.003906 0)"/>
     <use xlink:href="#DejaVuSans-6e" transform="translate(593.283203 0)"/>
     <use xlink:href="#DejaVuSans-63" transform="translate(656.662109 0)"/>
     <use xlink:href="#DejaVuSans-65" transform="translate(711.642578 0)"/>
     <use xlink:href="#DejaVuSans-73" transform="translate(773.166016 0)"/>
     <use xlink:href="#DejaVuSans-29" transform="translate(825.265625 0)"/>
    </g>
   </g>
  </g>
  <g id="axes_4">
   <g id="patch_5">
    <path d="M 385.491067 696.259843 
L 688.290752 696.259843 
L 688.290752 393.460157 
L 385.491067 393.460157 
L 385.491067 696.259843 
z
" clip-path="url(#pac3a22c6fd)" style="fill: none; stroke: #000000; stroke-linejoin: miter"/>
   </g>
   <g id="LineCollection_4">
    <path d="M 551.953256 485.179992 
L 596.467397 448.429945 
" clip-path="url(#pac3a22c6fd)" style="fill: none; stroke: #1b9e77; stroke-width: 7"/>
    <path d="M 551.953256 485.179992 
L 434.456626 491.391268 
" clip-path="url(#pac3a22c6fd)" style="fill: none; stroke: #998ec3; stroke-width: 2.5"/>
    <path d="M 551.953256 485.179992 
L 581.456815 512.09552 
" clip-path="url(#pac3a22c6fd)" style="fill: none; stroke: #998ec3; stroke-width: 2.5"/>
    <path d="M 551.953256 485.179992 
L 551.953256 485.179992 
" clip-path="url(#pac3a22c6fd)" style="fill: none; stroke: #f1a340; stroke-width: 2.5"/>
   </g>
   <g id="patch_6">
    <path d="M 551.953256 478.813435 
C 555.136534 478.813435 555.136534 485.179992 551.953256 485.179992 
C 548.769977 485.179992 548.769977 478.813435 551.953256 478.813435 
" clip-path="url(#pac3a22c6fd)" style="fill: none; stroke: #f1a340; stroke-width: 2.5; stroke-linecap: round"/>
   </g>
   <g id="PathCollection_4">
    <path d="M 438.597476 520.029324 
C 440.564275 520.029324 442.450783 519.247907 443.84152 517.85717 
C 445.232257 516.466433 446.013675 514.579925 446.013675 512.613126 
C 446.013675 510.646327 445.232257 508.759819 443.84152 507.369082 
C 442.450783 505.978345 440.564275 505.196927 438.597476 505.196927 
C 436.630677 505.196927 434.744169 505.978345 433.353432 507.369082 
C 431.962695 508.759819 431.181278 510.646327 431.181278 512.613126 
C 431.181278 514.579925 431.962695 516.466433 433.353432 517.85717 
C 434.744169 519.247907 436.630677 520.029324 438.597476 520.029324 
z
" clip-path="url(#pac3a22c6fd)" style="fill: #1f77b4; stroke: #000000; stroke-width: 0.6"/>
    <path d="M 551.953256 493.999388 
C 554.292187 493.999388 556.535636 493.070121 558.18951 491.416247 
C 559.843384 489.762373 560.772652 487.518923 560.772652 485.179992 
C 560.772652 482.841061 559.843384 480.597611 558.18951 478.943737 
C 556.535636 477.289863 554.292187 476.360596 551.953256 476.360596 
C 549.614324 476.360596 547.370875 477.289863 545.717001 478.943737 
C 544.063127 480.597611 543.13386 482.841061 543.13386 485.179992 
C 543.13386 487.518923 544.063127 489.762373 545.717001 491.416247 
C 547.370875 493.070121 549.614324 493.999388 551.953256 493.999388 
z
" clip-path="url(#pac3a22c6fd)" style="fill: #ff7f0e; stroke: #000000; stroke-width: 0.6"/>
    <path d="M 581.456815 519.511718 
C 583.423613 519.511718 585.310122 518.730301 586.700859 517.339564 
C 588.091596 515.948827 588.873013 514.062319 588.873013 512.09552 
C 588.873013 510.128721 588.091596 508.242212 586.700859 506.851475 
C 585.310122 505.460739 583.423613 504.679321 581.456815 504.679321 
C 579.490016 504.679321 577.603507 505.460739 576.21277 506.851475 
C 574.822034 508.242212 574.040616 510.128721 574.040616 512.09552 
C 574.040616 514.062319 574.822034 515.948827 576.21277 517.339564 
C 577.603507 518.730301 579.490016 519.511718 581.456815 519.511718 
z
" clip-path="url(#pac3a22c6fd)" style="fill: #ffbb78; stroke: #000000; stroke-width: 0.6"/>
    <path d="M 596.467397 455.846143 
C 598.434196 455.846143 600.320705 455.064726 601.711442 453.673989 
C 603.102178 452.283252 603.883596 450.396744 603.883596 448.429945 
C 603.883596 446.463146 603.102178 444.576637 601.711442 443.185901 
C 600.320705 441.795164 598.434196 441.013746 596.467397 441.013746 
C 594.500598 441.013746 592.61409 441.795164 591.223353 443.185901 
C 589.832616 444.576637 589.051199 446.463146 589.051199 448.429945 
C 589.051199 450.396744 589.832616 452.283252 591.223353 453.673989 
C 592.61409 455.064726 594.500598 455.846143 596.467397 455.846143 
z
" clip-path="url(#pac3a22c6fd)" style="fill: #d62728; stroke: #000000; stroke-width: 0.6"/>
    <path d="M 434.456626 498.807466 
C 436.423424 498.807466 438.309933 498.026049 439.70067 496.635312 
C 441.091407 495.244575 441.872824 493.358067 441.872824 491.391268 
C 441.872824 489.424469 441.091407 487.53796 439.70067 486.147223 
C 438.309933 484.756487 436.423424 483.975069 434.456626 483.975069 
C 432.489827 483.975069 430.603318 484.756487 429.212581 486.147223 
C 427.821845 487.53796 427.040427 489.424469 427.040427 491.391268 
C 427.040427 493.358067 427.821845 495.244575 429.212581 496.635312 
C 430.603318 498.026049 432.489827 498.807466 434.456626 498.807466 
z
" clip-path="url(#pac3a22c6fd)" style="fill: #ff9896; stroke: #000000; stroke-width: 0.6"/>
   </g>
   <g id="text_25">
    <g clip-path="url(#pac3a22c6fd)">
     <!-- T-1 -->
     <g transform="translate(432.531226 514.820626) scale(0.08 -0.08)">
      <use xlink:href="#DejaVuSans-54"/>
      <use xlink:href="#DejaVuSans-2d" transform="translate(51.958984 0)"/>
      <use xlink:href="#DejaVuSans-31" transform="translate(88.042969 0)"/>
     </g>
    </g>
   </g>
   <g id="text_26">
    <g clip-path="url(#pac3a22c6fd)">
     <!-- T1 -->
     <g transform="translate(546.965131 487.387492) scale(0.08 -0.08)">
      <use xlink:href="#DejaVuSans-54"/>
      <use xlink:href="#DejaVuSans-31" transform="translate(61.083984 0)"/>
     </g>
    </g>
   </g>
   <g id="text_27">
    <g clip-path="url(#pac3a22c6fd)">
     <!-- T2 -->
     <g transform="translate(576.46869 514.30302) scale(0.08 -0.08)">
      <use xlink:href="#DejaVuSans-54"/>
      <use xlink:href="#DejaVuSans-32" transform="translate(61.083984 0)"/>
     </g>
    </g>
   </g>
   <g id="text_28">
    <g clip-path="url(#pac3a22c6fd)">
     <!-- T9 -->
     <g transform="translate(591.479272 450.637445) scale(0.08 -0.08)">
      <use xlink:href="#DejaVuSans-54"/>
      <use xlink:href="#DejaVuSans-39" transform="translate(61.083984 0)"/>
     </g>
    </g>
   </g>
   <g id="text_29">
    <g clip-path="url(#pac3a22c6fd)">
     <!-- T11 -->
     <g transform="translate(426.923501 493.598768) scale(0.08 -0.08)">
      <use xlink:href="#DejaVuSans-54"/>
      <use xlink:href="#DejaVuSans-31" transform="translate(61.083984 0)"/>
      <use xlink:href="#DejaVuSans-31" transform="translate(124.707031 0)"/>
     </g>
    </g>
   </g>
   <g id="text_30">
    <!-- Wave 2 (topics) -->
    <g transform="translate(490.183722 374.52) scale(0.12 -0.12)">
     <use xlink:href="#DejaVuSans-57"/>
     <use xlink:href="#DejaVuSans-61" transform="translate(92.501953 0)"/>
     <use xlink:href="#DejaVuSans-76" transform="translate(153.78125 0)"/>
     <use xlink:href="#DejaVuSans-65" transform="translate(212.960938 0)"/>
     <use xlink:href="#DejaVuSans-20" transform="translate(274.484375 0)"/>
     <use xlink:href="#DejaVuSans-32" transform="translate(306.271484 0)"/>
     <use xlink:href="#DejaVuSans-20" transform="translate(369.894531 0)"/>
     <use xlink:href="#DejaVuSans-28" transform="translate(401.681641 0)"/>
     <use xlink:href="#DejaVuSans-74" transform="translate(440.695312 0)"/>
     <use xlink:href="#DejaVuSans-6f" transform="translate(479.904297 0)"/>
     <use xlink:href="#DejaVuSans-70" transform="translate(541.085938 0)"/>
     <use xlink:href="#DejaVuSans-69" transform="translate(604.5625 0)"/>
     <use xlink:href="#DejaVuSans-63" transform="translate(632.345703 0)"/>
     <use xlink:href="#DejaVuSans-73" transform="translate(687.326172 0)"/>
     <use xlink:href="#DejaVuSans-29" transform="translate(739.425781 0)"/>
    </g>
   </g>
  </g>
 </g>
 <defs>
  <clipPath id="p75b4855fe2">
   <rect x="18.769091" y="25.92" width="328.68" height="328.68"/>
  </clipPath>
  <clipPath id="pf270c9cf74">
   <rect x="372.550909" y="25.92" width="328.68" height="328.68"/>
  </clipPath>
  <clipPath id="p04591ecf9e">
   <rect x="18.769091" y="380.52" width="328.68" height="328.68"/>
  </clipPath>
  <clipPath id="pac3a22c6fd">
   <rect x="372.550909" y="380.52" width="328.68" height="328.68"/>
  </clipPath>
 </defs>
</svg>
